<?xml version="1.0" encoding="UTF-8" standalone="no"?>
<!DOCTYPE svg PUBLIC "-//W3C//DTD SVG 1.1//EN"
 "http://www.w3.org/Graphics/SVG/1.1/DTD/svg11.dtd">
<!-- Generated by graphviz version 2.43.0 (0)
 -->
<!-- Title: components/drivers Pages: 1 -->
<svg width="260pt" height="247pt"
 viewBox="0.00 0.00 260.00 247.00" xmlns="http://www.w3.org/2000/svg" xmlns:xlink="http://www.w3.org/1999/xlink">
<g id="graph0" class="graph" transform="scale(1 1) rotate(0) translate(4 243)">
<title>components/drivers</title>
<g id="clust1" class="cluster">
<title>clusterdir_409f97388efe006bc3438b95e9edef48</title>
<g id="a_clust1"><a xlink:href="dir_409f97388efe006bc3438b95e9edef48.html" target="_top" xlink:title="components">
<polygon fill="#ddddee" stroke="black" points="8,-8 8,-231 244,-231 244,-8 8,-8"/>
<text text-anchor="middle" x="126" y="-219" font-family="Helvetica,sans-Serif" font-size="10.00">components</text>
</a>
</g>
</g>
<g id="clust2" class="cluster">
<title>clusterdir_5929fb5670f1753e25faccc4903a41ec</title>
<g id="a_clust2"><a xlink:href="dir_5929fb5670f1753e25faccc4903a41ec.html" target="_top">
<polygon fill="#eeeeff" stroke="black" points="16,-152 16,-204 236,-204 236,-152 16,-152"/>
</a>
</g>
</g>
<!-- dir_b9e03bbc3948604307f77a3a32c41f22 -->
<g id="node1" class="node">
<title>dir_b9e03bbc3948604307f77a3a32c41f22</title>
<g id="a_node1"><a xlink:href="dir_b9e03bbc3948604307f77a3a32c41f22.html" target="_top" xlink:title="ports">
<polygon fill="none" stroke="red" points="109,-124 55,-124 55,-88 109,-88 109,-124"/>
<text text-anchor="middle" x="82" y="-103.5" font-family="Helvetica,sans-Serif" font-size="10.00">ports</text>
</a>
</g>
</g>
<!-- dir_dd274a85e3fec7ff4cd8d8c8f0a74fa8 -->
<g id="node2" class="node">
<title>dir_dd274a85e3fec7ff4cd8d8c8f0a74fa8</title>
<g id="a_node2"><a xlink:href="dir_dd274a85e3fec7ff4cd8d8c8f0a74fa8.html" target="_top" xlink:title="ca">
<polygon fill="none" stroke="red" points="132,-52 78,-52 78,-16 132,-16 132,-52"/>
<text text-anchor="middle" x="105" y="-31.5" font-family="Helvetica,sans-Serif" font-size="10.00">ca</text>
</a>
</g>
</g>
<!-- dir_b9e03bbc3948604307f77a3a32c41f22&#45;&gt;dir_dd274a85e3fec7ff4cd8d8c8f0a74fa8 -->
<g id="edge1" class="edge">
<title>dir_b9e03bbc3948604307f77a3a32c41f22&#45;&gt;dir_dd274a85e3fec7ff4cd8d8c8f0a74fa8</title>
<path fill="none" stroke="black" d="M87.69,-87.7C90.25,-79.9 93.33,-70.51 96.18,-61.83"/>
<polygon fill="black" stroke="black" points="99.58,-62.7 99.38,-52.1 92.93,-60.51 99.58,-62.7"/>
<g id="a_edge1&#45;headlabel"><a xlink:href="dir_000039_000001.html" target="_top" xlink:title="3">
<text text-anchor="middle" x="101.16" y="-64.5" font-family="Helvetica,sans-Serif" font-size="10.00">3</text>
</a>
</g>
</g>
<!-- dir_5929fb5670f1753e25faccc4903a41ec -->
<g id="node3" class="node">
<title>dir_5929fb5670f1753e25faccc4903a41ec</title>
<text text-anchor="middle" x="201" y="-175.5" font-family="Helvetica,sans-Serif" font-size="10.00">drivers</text>
</g>
<!-- dir_9ac8c62b06a5f0cb6fd07122f4881cfc -->
<g id="node4" class="node">
<title>dir_9ac8c62b06a5f0cb6fd07122f4881cfc</title>
<g id="a_node4"><a xlink:href="dir_9ac8c62b06a5f0cb6fd07122f4881cfc.html" target="_top" xlink:title="ds18b20">
<polygon fill="white" stroke="red" points="82,-196 24,-196 24,-160 82,-160 82,-196"/>
<text text-anchor="middle" x="53" y="-175.5" font-family="Helvetica,sans-Serif" font-size="10.00">ds18b20</text>
</a>
</g>
</g>
<!-- dir_9ac8c62b06a5f0cb6fd07122f4881cfc&#45;&gt;dir_b9e03bbc3948604307f77a3a32c41f22 -->
<g id="edge2" class="edge">
<title>dir_9ac8c62b06a5f0cb6fd07122f4881cfc&#45;&gt;dir_b9e03bbc3948604307f77a3a32c41f22</title>
<path fill="none" stroke="black" d="M60.17,-159.7C63.43,-151.81 67.37,-142.3 71,-133.55"/>
<polygon fill="black" stroke="black" points="74.32,-134.68 74.91,-124.1 67.85,-132 74.32,-134.68"/>
<g id="a_edge2&#45;headlabel"><a xlink:href="dir_000006_000039.html" target="_top" xlink:title="2">
<text text-anchor="middle" x="75.57" y="-136.59" font-family="Helvetica,sans-Serif" font-size="10.00">2</text>
</a>
</g>
</g>
<!-- dir_d7b3e84e30e3e87ae4f25368b695e9f5 -->
<g id="node5" class="node">
<title>dir_d7b3e84e30e3e87ae4f25368b695e9f5</title>
<g id="a_node5"><a xlink:href="dir_d7b3e84e30e3e87ae4f25368b695e9f5.html" target="_top" xlink:title="lcd1602">
<polygon fill="white" stroke="red" points="155.5,-196 100.5,-196 100.5,-160 155.5,-160 155.5,-196"/>
<text text-anchor="middle" x="128" y="-175.5" font-family="Helvetica,sans-Serif" font-size="10.00">lcd1602</text>
</a>
</g>
</g>
<!-- dir_d7b3e84e30e3e87ae4f25368b695e9f5&#45;&gt;dir_b9e03bbc3948604307f77a3a32c41f22 -->
<g id="edge3" class="edge">
<title>dir_d7b3e84e30e3e87ae4f25368b695e9f5&#45;&gt;dir_b9e03bbc3948604307f77a3a32c41f22</title>
<path fill="none" stroke="black" d="M116.63,-159.7C111.28,-151.56 104.8,-141.69 98.89,-132.7"/>
<polygon fill="black" stroke="black" points="101.66,-130.54 93.24,-124.1 95.81,-134.38 101.66,-130.54"/>
<g id="a_edge3&#45;headlabel"><a xlink:href="dir_000010_000039.html" target="_top" xlink:title="2">
<text text-anchor="middle" x="106" y="-129.48" font-family="Helvetica,sans-Serif" font-size="10.00">2</text>
</a>
</g>
</g>
<!-- dir_d7b3e84e30e3e87ae4f25368b695e9f5&#45;&gt;dir_dd274a85e3fec7ff4cd8d8c8f0a74fa8 -->
<g id="edge4" class="edge">
<title>dir_d7b3e84e30e3e87ae4f25368b695e9f5&#45;&gt;dir_dd274a85e3fec7ff4cd8d8c8f0a74fa8</title>
<path fill="none" stroke="black" d="M126.73,-159.84C125.25,-141.85 122.42,-112.8 118,-88 116.48,-79.47 114.39,-70.28 112.33,-61.98"/>
<polygon fill="black" stroke="black" points="115.66,-60.88 109.78,-52.07 108.88,-62.62 115.66,-60.88"/>
<g id="a_edge4&#45;headlabel"><a xlink:href="dir_000010_000001.html" target="_top" xlink:title="2">
<text text-anchor="middle" x="119.3" y="-61.15" font-family="Helvetica,sans-Serif" font-size="10.00">2</text>
</a>
</g>
</g>
</g>
</svg>
