<?xml version="1.0" encoding="UTF-8" standalone="no"?>
<!DOCTYPE svg PUBLIC "-//W3C//DTD SVG 1.1//EN"
 "http://www.w3.org/Graphics/SVG/1.1/DTD/svg11.dtd">
<!-- Generated by graphviz version 2.43.0 (0)
 -->
<!-- Title: components/logger_core Pages: 1 -->
<svg width="202pt" height="247pt"
 viewBox="0.00 0.00 202.00 247.00" xmlns="http://www.w3.org/2000/svg" xmlns:xlink="http://www.w3.org/1999/xlink">
<g id="graph0" class="graph" transform="scale(1 1) rotate(0) translate(4 243)">
<title>components/logger_core</title>
<g id="clust1" class="cluster">
<title>clusterdir_409f97388efe006bc3438b95e9edef48</title>
<g id="a_clust1"><a xlink:href="dir_409f97388efe006bc3438b95e9edef48.html" target="_top" xlink:title="components">
<polygon fill="#ddddee" stroke="black" points="8,-8 8,-231 186,-231 186,-8 8,-8"/>
<text text-anchor="middle" x="97" y="-219" font-family="Helvetica,sans-Serif" font-size="10.00">components</text>
</a>
</g>
</g>
<g id="clust2" class="cluster">
<title>clusterdir_a6a6189aead415cc6f06a1adfdd80564</title>
<g id="a_clust2"><a xlink:href="dir_a6a6189aead415cc6f06a1adfdd80564.html" target="_top">
<polygon fill="#eeeeff" stroke="black" points="16,-80 16,-204 178,-204 178,-80 16,-80"/>
</a>
</g>
</g>
<!-- dir_b9e03bbc3948604307f77a3a32c41f22 -->
<g id="node1" class="node">
<title>dir_b9e03bbc3948604307f77a3a32c41f22</title>
<g id="a_node1"><a xlink:href="dir_b9e03bbc3948604307f77a3a32c41f22.html" target="_top" xlink:title="ports">
<polygon fill="none" stroke="red" points="78,-52 24,-52 24,-16 78,-16 78,-52"/>
<text text-anchor="middle" x="51" y="-31.5" font-family="Helvetica,sans-Serif" font-size="10.00">ports</text>
</a>
</g>
</g>
<!-- dir_a6a6189aead415cc6f06a1adfdd80564 -->
<g id="node2" class="node">
<title>dir_a6a6189aead415cc6f06a1adfdd80564</title>
<text text-anchor="middle" x="133" y="-175.5" font-family="Helvetica,sans-Serif" font-size="10.00">logger_core</text>
</g>
<!-- dir_45b12a4c3b8d49b94416f043234818a3 -->
<g id="node3" class="node">
<title>dir_45b12a4c3b8d49b94416f043234818a3</title>
<g id="a_node3"><a xlink:href="dir_45b12a4c3b8d49b94416f043234818a3.html" target="_top" xlink:title="include">
<polygon fill="white" stroke="red" points="78,-124 24,-124 24,-88 78,-88 78,-124"/>
<text text-anchor="middle" x="51" y="-103.5" font-family="Helvetica,sans-Serif" font-size="10.00">include</text>
</a>
</g>
</g>
<!-- dir_45b12a4c3b8d49b94416f043234818a3&#45;&gt;dir_b9e03bbc3948604307f77a3a32c41f22 -->
<g id="edge2" class="edge">
<title>dir_45b12a4c3b8d49b94416f043234818a3&#45;&gt;dir_b9e03bbc3948604307f77a3a32c41f22</title>
<path fill="none" stroke="black" d="M51,-87.7C51,-79.98 51,-70.71 51,-62.11"/>
<polygon fill="black" stroke="black" points="54.5,-62.1 51,-52.1 47.5,-62.1 54.5,-62.1"/>
<g id="a_edge2&#45;headlabel"><a xlink:href="dir_000032_000039.html" target="_top" xlink:title="2">
<text text-anchor="middle" x="57.34" y="-63.2" font-family="Helvetica,sans-Serif" font-size="10.00">2</text>
</a>
</g>
</g>
<!-- dir_732c2ed3f236ddff446958fa17944b48 -->
<g id="node4" class="node">
<title>dir_732c2ed3f236ddff446958fa17944b48</title>
<g id="a_node4"><a xlink:href="dir_732c2ed3f236ddff446958fa17944b48.html" target="_top" xlink:title="src">
<polygon fill="white" stroke="black" points="78,-196 24,-196 24,-160 78,-160 78,-196"/>
<text text-anchor="middle" x="51" y="-175.5" font-family="Helvetica,sans-Serif" font-size="10.00">src</text>
</a>
</g>
</g>
<!-- dir_732c2ed3f236ddff446958fa17944b48&#45;&gt;dir_45b12a4c3b8d49b94416f043234818a3 -->
<g id="edge1" class="edge">
<title>dir_732c2ed3f236ddff446958fa17944b48&#45;&gt;dir_45b12a4c3b8d49b94416f043234818a3</title>
<path fill="none" stroke="black" d="M51,-159.7C51,-151.98 51,-142.71 51,-134.11"/>
<polygon fill="black" stroke="black" points="54.5,-134.1 51,-124.1 47.5,-134.1 54.5,-134.1"/>
<g id="a_edge1&#45;headlabel"><a xlink:href="dir_000034_000032.html" target="_top" xlink:title="1">
<text text-anchor="middle" x="57.34" y="-135.2" font-family="Helvetica,sans-Serif" font-size="10.00">1</text>
</a>
</g>
</g>
</g>
</svg>
