<?xml version="1.0" encoding="UTF-8" standalone="no"?>
<!DOCTYPE svg PUBLIC "-//W3C//DTD SVG 1.1//EN"
 "http://www.w3.org/Graphics/SVG/1.1/DTD/svg11.dtd">
<!-- Generated by graphviz version 2.43.0 (0)
 -->
<!-- Title: components/infrastructure Pages: 1 -->
<svg width="536pt" height="175pt"
 viewBox="0.00 0.00 536.00 175.00" xmlns="http://www.w3.org/2000/svg" xmlns:xlink="http://www.w3.org/1999/xlink">
<g id="graph0" class="graph" transform="scale(1 1) rotate(0) translate(4 171)">
<title>components/infrastructure</title>
<g id="clust1" class="cluster">
<title>clusterdir_409f97388efe006bc3438b95e9edef48</title>
<g id="a_clust1"><a xlink:href="dir_409f97388efe006bc3438b95e9edef48.html" target="_top" xlink:title="components">
<polygon fill="#ddddee" stroke="black" points="8,-8 8,-159 520,-159 520,-8 8,-8"/>
<text text-anchor="middle" x="264" y="-147" font-family="Helvetica,sans-Serif" font-size="10.00">components</text>
</a>
</g>
</g>
<g id="clust2" class="cluster">
<title>clusterdir_83bdac8d3c170150f3d27835bb423ec5</title>
<g id="a_clust2"><a xlink:href="dir_83bdac8d3c170150f3d27835bb423ec5.html" target="_top">
<polygon fill="#eeeeff" stroke="black" points="16,-80 16,-132 512,-132 512,-80 16,-80"/>
</a>
</g>
</g>
<!-- dir_b9e03bbc3948604307f77a3a32c41f22 -->
<g id="node1" class="node">
<title>dir_b9e03bbc3948604307f77a3a32c41f22</title>
<g id="a_node1"><a xlink:href="dir_b9e03bbc3948604307f77a3a32c41f22.html" target="_top" xlink:title="ports">
<polygon fill="none" stroke="red" points="237,-52 183,-52 183,-16 237,-16 237,-52"/>
<text text-anchor="middle" x="210" y="-31.5" font-family="Helvetica,sans-Serif" font-size="10.00">ports</text>
</a>
</g>
</g>
<!-- dir_83bdac8d3c170150f3d27835bb423ec5 -->
<g id="node2" class="node">
<title>dir_83bdac8d3c170150f3d27835bb423ec5</title>
<text text-anchor="middle" x="462" y="-103.5" font-family="Helvetica,sans-Serif" font-size="10.00">infrastructure</text>
</g>
<!-- dir_b9d6d175b3686c3f41aecfa50e925743 -->
<g id="node3" class="node">
<title>dir_b9d6d175b3686c3f41aecfa50e925743</title>
<g id="a_node3"><a xlink:href="dir_b9d6d175b3686c3f41aecfa50e925743.html" target="_top" xlink:title="idf_i2c_service">
<polygon fill="white" stroke="red" points="402.5,-124 313.5,-124 313.5,-88 402.5,-88 402.5,-124"/>
<text text-anchor="middle" x="358" y="-103.5" font-family="Helvetica,sans-Serif" font-size="10.00">idf_i2c_service</text>
</a>
</g>
</g>
<!-- dir_b9d6d175b3686c3f41aecfa50e925743&#45;&gt;dir_b9e03bbc3948604307f77a3a32c41f22 -->
<g id="edge4" class="edge">
<title>dir_b9d6d175b3686c3f41aecfa50e925743&#45;&gt;dir_b9e03bbc3948604307f77a3a32c41f22</title>
<path fill="none" stroke="black" d="M321.8,-87.88C298.78,-76.99 269.1,-62.95 246.1,-52.07"/>
<polygon fill="black" stroke="black" points="247.55,-48.89 237.01,-47.78 244.56,-55.22 247.55,-48.89"/>
<g id="a_edge4&#45;headlabel"><a xlink:href="dir_000015_000039.html" target="_top" xlink:title="1">
<text text-anchor="middle" x="252.01" y="-45.36" font-family="Helvetica,sans-Serif" font-size="10.00">1</text>
</a>
</g>
</g>
<!-- dir_241a145748213ffe28c2087acf8fbce3 -->
<g id="node4" class="node">
<title>dir_241a145748213ffe28c2087acf8fbce3</title>
<g id="a_node4"><a xlink:href="dir_241a145748213ffe28c2087acf8fbce3.html" target="_top" xlink:title="idf_onewire">
<polygon fill="white" stroke="red" points="295,-124 221,-124 221,-88 295,-88 295,-124"/>
<text text-anchor="middle" x="258" y="-103.5" font-family="Helvetica,sans-Serif" font-size="10.00">idf_onewire</text>
</a>
</g>
</g>
<!-- dir_241a145748213ffe28c2087acf8fbce3&#45;&gt;dir_b9e03bbc3948604307f77a3a32c41f22 -->
<g id="edge2" class="edge">
<title>dir_241a145748213ffe28c2087acf8fbce3&#45;&gt;dir_b9e03bbc3948604307f77a3a32c41f22</title>
<path fill="none" stroke="black" d="M246.13,-87.7C240.5,-79.47 233.65,-69.48 227.43,-60.42"/>
<polygon fill="black" stroke="black" points="230.27,-58.37 221.73,-52.1 224.5,-62.33 230.27,-58.37"/>
<g id="a_edge2&#45;headlabel"><a xlink:href="dir_000019_000039.html" target="_top" xlink:title="1">
<text text-anchor="middle" x="234.65" y="-57.23" font-family="Helvetica,sans-Serif" font-size="10.00">1</text>
</a>
</g>
</g>
<!-- dir_1be85cebc8af5b0f41930679b00210f0 -->
<g id="node5" class="node">
<title>dir_1be85cebc8af5b0f41930679b00210f0</title>
<g id="a_node5"><a xlink:href="dir_1be85cebc8af5b0f41930679b00210f0.html" target="_top" xlink:title="idf_time_port">
<polygon fill="white" stroke="red" points="203,-124 121,-124 121,-88 203,-88 203,-124"/>
<text text-anchor="middle" x="162" y="-103.5" font-family="Helvetica,sans-Serif" font-size="10.00">idf_time_port</text>
</a>
</g>
</g>
<!-- dir_1be85cebc8af5b0f41930679b00210f0&#45;&gt;dir_b9e03bbc3948604307f77a3a32c41f22 -->
<g id="edge3" class="edge">
<title>dir_1be85cebc8af5b0f41930679b00210f0&#45;&gt;dir_b9e03bbc3948604307f77a3a32c41f22</title>
<path fill="none" stroke="black" d="M173.87,-87.7C179.5,-79.47 186.35,-69.48 192.57,-60.42"/>
<polygon fill="black" stroke="black" points="195.5,-62.33 198.27,-52.1 189.73,-58.37 195.5,-62.33"/>
<g id="a_edge3&#45;headlabel"><a xlink:href="dir_000023_000039.html" target="_top" xlink:title="1">
<text text-anchor="middle" x="195.81" y="-64.4" font-family="Helvetica,sans-Serif" font-size="10.00">1</text>
</a>
</g>
</g>
<!-- dir_6d5ed2a96af0dc43a640f52763b5e233 -->
<g id="node6" class="node">
<title>dir_6d5ed2a96af0dc43a640f52763b5e233</title>
<g id="a_node6"><a xlink:href="dir_6d5ed2a96af0dc43a640f52763b5e233.html" target="_top" xlink:title="idf_uart_port">
<polygon fill="white" stroke="red" points="102.5,-124 23.5,-124 23.5,-88 102.5,-88 102.5,-124"/>
<text text-anchor="middle" x="63" y="-103.5" font-family="Helvetica,sans-Serif" font-size="10.00">idf_uart_port</text>
</a>
</g>
</g>
<!-- dir_6d5ed2a96af0dc43a640f52763b5e233&#45;&gt;dir_b9e03bbc3948604307f77a3a32c41f22 -->
<g id="edge1" class="edge">
<title>dir_6d5ed2a96af0dc43a640f52763b5e233&#45;&gt;dir_b9e03bbc3948604307f77a3a32c41f22</title>
<path fill="none" stroke="black" d="M96.12,-87.87C101.41,-85.2 106.84,-82.5 112,-80 132.23,-70.2 155.04,-59.69 173.56,-51.3"/>
<polygon fill="black" stroke="black" points="175.15,-54.42 182.82,-47.12 172.27,-48.04 175.15,-54.42"/>
<g id="a_edge1&#45;headlabel"><a xlink:href="dir_000027_000039.html" target="_top" xlink:title="1">
<text text-anchor="middle" x="173.04" y="-55.99" font-family="Helvetica,sans-Serif" font-size="10.00">1</text>
</a>
</g>
</g>
</g>
</svg>
