<?xml version="1.0" encoding="UTF-8" standalone="no"?>
<!DOCTYPE svg PUBLIC "-//W3C//DTD SVG 1.1//EN"
 "http://www.w3.org/Graphics/SVG/1.1/DTD/svg11.dtd">
<!-- Generated by graphviz version 2.43.0 (0)
 -->
<!-- Title: components Pages: 1 -->
<svg width="500pt" height="220pt"
 viewBox="0.00 0.00 500.00 220.00" xmlns="http://www.w3.org/2000/svg" xmlns:xlink="http://www.w3.org/1999/xlink">
<g id="graph0" class="graph" transform="scale(1 1) rotate(0) translate(4 216)">
<title>components</title>
<g id="clust1" class="cluster">
<title>clusterdir_409f97388efe006bc3438b95e9edef48</title>
<g id="a_clust1"><a xlink:href="dir_409f97388efe006bc3438b95e9edef48.html" target="_top">
<polygon fill="#eeeeff" stroke="black" points="8,-8 8,-204 484,-204 484,-8 8,-8"/>
</a>
</g>
</g>
<!-- dir_409f97388efe006bc3438b95e9edef48 -->
<g id="node1" class="node">
<title>dir_409f97388efe006bc3438b95e9edef48</title>
<text text-anchor="middle" x="437" y="-175.5" font-family="Helvetica,sans-Serif" font-size="10.00">components</text>
</g>
<!-- dir_dd274a85e3fec7ff4cd8d8c8f0a74fa8 -->
<g id="node2" class="node">
<title>dir_dd274a85e3fec7ff4cd8d8c8f0a74fa8</title>
<g id="a_node2"><a xlink:href="dir_dd274a85e3fec7ff4cd8d8c8f0a74fa8.html" target="_top" xlink:title="ca">
<polygon fill="white" stroke="red" points="316,-52 262,-52 262,-16 316,-16 316,-52"/>
<text text-anchor="middle" x="289" y="-31.5" font-family="Helvetica,sans-Serif" font-size="10.00">ca</text>
</a>
</g>
</g>
<!-- dir_5929fb5670f1753e25faccc4903a41ec -->
<g id="node3" class="node">
<title>dir_5929fb5670f1753e25faccc4903a41ec</title>
<g id="a_node3"><a xlink:href="dir_5929fb5670f1753e25faccc4903a41ec.html" target="_top" xlink:title="drivers">
<polygon fill="white" stroke="red" points="380,-196 326,-196 326,-160 380,-160 380,-196"/>
<text text-anchor="middle" x="353" y="-175.5" font-family="Helvetica,sans-Serif" font-size="10.00">drivers</text>
</a>
</g>
</g>
<!-- dir_5929fb5670f1753e25faccc4903a41ec&#45;&gt;dir_dd274a85e3fec7ff4cd8d8c8f0a74fa8 -->
<g id="edge4" class="edge">
<title>dir_5929fb5670f1753e25faccc4903a41ec&#45;&gt;dir_dd274a85e3fec7ff4cd8d8c8f0a74fa8</title>
<path fill="none" stroke="black" d="M345.28,-159.87C334.28,-135.46 313.98,-90.43 301,-61.64"/>
<polygon fill="black" stroke="black" points="304.05,-59.87 296.75,-52.19 297.67,-62.74 304.05,-59.87"/>
<g id="a_edge4&#45;headlabel"><a xlink:href="dir_000005_000001.html" target="_top" xlink:title="2">
<text text-anchor="middle" x="308.11" y="-59.48" font-family="Helvetica,sans-Serif" font-size="10.00">2</text>
</a>
</g>
</g>
<!-- dir_b9e03bbc3948604307f77a3a32c41f22 -->
<g id="node7" class="node">
<title>dir_b9e03bbc3948604307f77a3a32c41f22</title>
<g id="a_node7"><a xlink:href="dir_b9e03bbc3948604307f77a3a32c41f22.html" target="_top" xlink:title="ports">
<polygon fill="white" stroke="red" points="293,-124 239,-124 239,-88 293,-88 293,-124"/>
<text text-anchor="middle" x="266" y="-103.5" font-family="Helvetica,sans-Serif" font-size="10.00">ports</text>
</a>
</g>
</g>
<!-- dir_5929fb5670f1753e25faccc4903a41ec&#45;&gt;dir_b9e03bbc3948604307f77a3a32c41f22 -->
<g id="edge3" class="edge">
<title>dir_5929fb5670f1753e25faccc4903a41ec&#45;&gt;dir_b9e03bbc3948604307f77a3a32c41f22</title>
<path fill="none" stroke="black" d="M331.49,-159.7C320.54,-150.88 307.05,-140.03 295.18,-130.47"/>
<polygon fill="black" stroke="black" points="297.24,-127.65 287.26,-124.1 292.86,-133.1 297.24,-127.65"/>
<g id="a_edge3&#45;headlabel"><a xlink:href="dir_000005_000039.html" target="_top" xlink:title="4">
<text text-anchor="middle" x="301.82" y="-125.19" font-family="Helvetica,sans-Serif" font-size="10.00">4</text>
</a>
</g>
</g>
<!-- dir_83bdac8d3c170150f3d27835bb423ec5 -->
<g id="node4" class="node">
<title>dir_83bdac8d3c170150f3d27835bb423ec5</title>
<g id="a_node4"><a xlink:href="dir_83bdac8d3c170150f3d27835bb423ec5.html" target="_top" xlink:title="infrastructure">
<polygon fill="white" stroke="red" points="307.5,-196 224.5,-196 224.5,-160 307.5,-160 307.5,-196"/>
<text text-anchor="middle" x="266" y="-175.5" font-family="Helvetica,sans-Serif" font-size="10.00">infrastructure</text>
</a>
</g>
</g>
<!-- dir_83bdac8d3c170150f3d27835bb423ec5&#45;&gt;dir_b9e03bbc3948604307f77a3a32c41f22 -->
<g id="edge1" class="edge">
<title>dir_83bdac8d3c170150f3d27835bb423ec5&#45;&gt;dir_b9e03bbc3948604307f77a3a32c41f22</title>
<path fill="none" stroke="black" d="M266,-159.7C266,-151.98 266,-142.71 266,-134.11"/>
<polygon fill="black" stroke="black" points="269.5,-134.1 266,-124.1 262.5,-134.1 269.5,-134.1"/>
<g id="a_edge1&#45;headlabel"><a xlink:href="dir_000014_000039.html" target="_top" xlink:title="4">
<text text-anchor="middle" x="272.34" y="-135.2" font-family="Helvetica,sans-Serif" font-size="10.00">4</text>
</a>
</g>
</g>
<!-- dir_a6a6189aead415cc6f06a1adfdd80564 -->
<g id="node5" class="node">
<title>dir_a6a6189aead415cc6f06a1adfdd80564</title>
<g id="a_node5"><a xlink:href="dir_a6a6189aead415cc6f06a1adfdd80564.html" target="_top" xlink:title="logger_core">
<polygon fill="white" stroke="red" points="206,-196 132,-196 132,-160 206,-160 206,-196"/>
<text text-anchor="middle" x="169" y="-175.5" font-family="Helvetica,sans-Serif" font-size="10.00">logger_core</text>
</a>
</g>
</g>
<!-- dir_a6a6189aead415cc6f06a1adfdd80564&#45;&gt;dir_b9e03bbc3948604307f77a3a32c41f22 -->
<g id="edge2" class="edge">
<title>dir_a6a6189aead415cc6f06a1adfdd80564&#45;&gt;dir_b9e03bbc3948604307f77a3a32c41f22</title>
<path fill="none" stroke="black" d="M192.98,-159.7C205.31,-150.8 220.52,-139.82 233.85,-130.2"/>
<polygon fill="black" stroke="black" points="236.24,-132.79 242.3,-124.1 232.14,-127.12 236.24,-132.79"/>
<g id="a_edge2&#45;headlabel"><a xlink:href="dir_000031_000039.html" target="_top" xlink:title="2">
<text text-anchor="middle" x="234.98" y="-134.7" font-family="Helvetica,sans-Serif" font-size="10.00">2</text>
</a>
</g>
</g>
<!-- dir_666c9c348c8d2ade1d1f691722440e5e -->
<g id="node6" class="node">
<title>dir_666c9c348c8d2ade1d1f691722440e5e</title>
<g id="a_node6"><a xlink:href="dir_666c9c348c8d2ade1d1f691722440e5e.html" target="_top" xlink:title="logger_uart_sink">
<polygon fill="white" stroke="red" points="114,-196 16,-196 16,-160 114,-160 114,-196"/>
<text text-anchor="middle" x="65" y="-175.5" font-family="Helvetica,sans-Serif" font-size="10.00">logger_uart_sink</text>
</a>
</g>
</g>
<!-- dir_666c9c348c8d2ade1d1f691722440e5e&#45;&gt;dir_b9e03bbc3948604307f77a3a32c41f22 -->
<g id="edge6" class="edge">
<title>dir_666c9c348c8d2ade1d1f691722440e5e&#45;&gt;dir_b9e03bbc3948604307f77a3a32c41f22</title>
<path fill="none" stroke="black" d="M113.91,-159.97C149.51,-147.57 196.95,-131.05 229.32,-119.77"/>
<polygon fill="black" stroke="black" points="230.56,-123.05 238.85,-116.45 228.26,-116.44 230.56,-123.05"/>
<g id="a_edge6&#45;headlabel"><a xlink:href="dir_000035_000039.html" target="_top" xlink:title="2">
<text text-anchor="middle" x="228.1" y="-124.41" font-family="Helvetica,sans-Serif" font-size="10.00">2</text>
</a>
</g>
</g>
<!-- dir_b9e03bbc3948604307f77a3a32c41f22&#45;&gt;dir_dd274a85e3fec7ff4cd8d8c8f0a74fa8 -->
<g id="edge5" class="edge">
<title>dir_b9e03bbc3948604307f77a3a32c41f22&#45;&gt;dir_dd274a85e3fec7ff4cd8d8c8f0a74fa8</title>
<path fill="none" stroke="black" d="M271.69,-87.7C274.25,-79.9 277.33,-70.51 280.18,-61.83"/>
<polygon fill="black" stroke="black" points="283.58,-62.7 283.38,-52.1 276.93,-60.51 283.58,-62.7"/>
<g id="a_edge5&#45;headlabel"><a xlink:href="dir_000039_000001.html" target="_top" xlink:title="3">
<text text-anchor="middle" x="285.16" y="-64.5" font-family="Helvetica,sans-Serif" font-size="10.00">3</text>
</a>
</g>
</g>
</g>
</svg>
