<?xml version="1.0" encoding="UTF-8" standalone="no"?>
<!DOCTYPE svg PUBLIC "-//W3C//DTD SVG 1.1//EN"
 "http://www.w3.org/Graphics/SVG/1.1/DTD/svg11.dtd">
<!-- Generated by graphviz version 2.43.0 (0)
 -->
<!-- Title: components/infrastructure/idf_time_port Pages: 1 -->
<svg width="210pt" height="231pt"
 viewBox="0.00 0.00 210.00 231.00" xmlns="http://www.w3.org/2000/svg" xmlns:xlink="http://www.w3.org/1999/xlink">
<g id="graph0" class="graph" transform="scale(1 1) rotate(0) translate(4 227)">
<title>components/infrastructure/idf_time_port</title>
<g id="clust1" class="cluster">
<title>clusterdir_83bdac8d3c170150f3d27835bb423ec5</title>
<g id="a_clust1"><a xlink:href="dir_83bdac8d3c170150f3d27835bb423ec5.html" target="_top" xlink:title="infrastructure">
<polygon fill="#ddddee" stroke="black" points="8,-56 8,-215 194,-215 194,-56 8,-56"/>
<text text-anchor="middle" x="101" y="-203" font-family="Helvetica,sans-Serif" font-size="10.00">infrastructure</text>
</a>
</g>
</g>
<g id="clust2" class="cluster">
<title>clusterdir_1be85cebc8af5b0f41930679b00210f0</title>
<g id="a_clust2"><a xlink:href="dir_1be85cebc8af5b0f41930679b00210f0.html" target="_top">
<polygon fill="#eeeeff" stroke="black" points="16,-64 16,-188 186,-188 186,-64 16,-64"/>
</a>
</g>
</g>
<!-- dir_1be85cebc8af5b0f41930679b00210f0 -->
<g id="node1" class="node">
<title>dir_1be85cebc8af5b0f41930679b00210f0</title>
<text text-anchor="middle" x="137" y="-159.5" font-family="Helvetica,sans-Serif" font-size="10.00">idf_time_port</text>
</g>
<!-- dir_426936b30ea41aa36d5496ad3d05d383 -->
<g id="node2" class="node">
<title>dir_426936b30ea41aa36d5496ad3d05d383</title>
<g id="a_node2"><a xlink:href="dir_426936b30ea41aa36d5496ad3d05d383.html" target="_top" xlink:title="include">
<polygon fill="white" stroke="red" points="78,-108 24,-108 24,-72 78,-72 78,-108"/>
<text text-anchor="middle" x="51" y="-87.5" font-family="Helvetica,sans-Serif" font-size="10.00">include</text>
</a>
</g>
</g>
<!-- dir_b9e03bbc3948604307f77a3a32c41f22 -->
<g id="node4" class="node">
<title>dir_b9e03bbc3948604307f77a3a32c41f22</title>
<g id="a_node4"><a xlink:href="dir_b9e03bbc3948604307f77a3a32c41f22.html" target="_top" xlink:title="ports">
<polygon fill="none" stroke="red" points="78,-36 24,-36 24,0 78,0 78,-36"/>
<text text-anchor="middle" x="51" y="-15.5" font-family="Helvetica,sans-Serif" font-size="10.00">ports</text>
</a>
</g>
</g>
<!-- dir_426936b30ea41aa36d5496ad3d05d383&#45;&gt;dir_b9e03bbc3948604307f77a3a32c41f22 -->
<g id="edge1" class="edge">
<title>dir_426936b30ea41aa36d5496ad3d05d383&#45;&gt;dir_b9e03bbc3948604307f77a3a32c41f22</title>
<path fill="none" stroke="black" d="M51,-71.7C51,-63.98 51,-54.71 51,-46.11"/>
<polygon fill="black" stroke="black" points="54.5,-46.1 51,-36.1 47.5,-46.1 54.5,-46.1"/>
<g id="a_edge1&#45;headlabel"><a xlink:href="dir_000024_000039.html" target="_top" xlink:title="1">
<text text-anchor="middle" x="57.34" y="-47.2" font-family="Helvetica,sans-Serif" font-size="10.00">1</text>
</a>
</g>
</g>
<!-- dir_ea2536e2ac218cd73acde2fc74e8d949 -->
<g id="node3" class="node">
<title>dir_ea2536e2ac218cd73acde2fc74e8d949</title>
<g id="a_node3"><a xlink:href="dir_ea2536e2ac218cd73acde2fc74e8d949.html" target="_top" xlink:title="src">
<polygon fill="white" stroke="black" points="78,-180 24,-180 24,-144 78,-144 78,-180"/>
<text text-anchor="middle" x="51" y="-159.5" font-family="Helvetica,sans-Serif" font-size="10.00">src</text>
</a>
</g>
</g>
<!-- dir_ea2536e2ac218cd73acde2fc74e8d949&#45;&gt;dir_426936b30ea41aa36d5496ad3d05d383 -->
<g id="edge2" class="edge">
<title>dir_ea2536e2ac218cd73acde2fc74e8d949&#45;&gt;dir_426936b30ea41aa36d5496ad3d05d383</title>
<path fill="none" stroke="black" d="M51,-143.7C51,-135.98 51,-126.71 51,-118.11"/>
<polygon fill="black" stroke="black" points="54.5,-118.1 51,-108.1 47.5,-118.1 54.5,-118.1"/>
<g id="a_edge2&#45;headlabel"><a xlink:href="dir_000026_000024.html" target="_top" xlink:title="1">
<text text-anchor="middle" x="57.34" y="-119.2" font-family="Helvetica,sans-Serif" font-size="10.00">1</text>
</a>
</g>
</g>
</g>
</svg>
