<?xml version="1.0" encoding="UTF-8" standalone="no"?>
<!DOCTYPE svg PUBLIC "-//W3C//DTD SVG 1.1//EN"
 "http://www.w3.org/Graphics/SVG/1.1/DTD/svg11.dtd">
<!-- Generated by graphviz version 2.43.0 (0)
 -->
<!-- Title: components/drivers/ds18b20 Pages: 1 -->
<svg width="186pt" height="231pt"
 viewBox="0.00 0.00 186.00 231.00" xmlns="http://www.w3.org/2000/svg" xmlns:xlink="http://www.w3.org/1999/xlink">
<g id="graph0" class="graph" transform="scale(1 1) rotate(0) translate(4 227)">
<title>components/drivers/ds18b20</title>
<g id="clust1" class="cluster">
<title>clusterdir_5929fb5670f1753e25faccc4903a41ec</title>
<g id="a_clust1"><a xlink:href="dir_5929fb5670f1753e25faccc4903a41ec.html" target="_top" xlink:title="drivers">
<polygon fill="#ddddee" stroke="black" points="8,-56 8,-215 170,-215 170,-56 8,-56"/>
<text text-anchor="middle" x="89" y="-203" font-family="Helvetica,sans-Serif" font-size="10.00">drivers</text>
</a>
</g>
</g>
<g id="clust2" class="cluster">
<title>clusterdir_9ac8c62b06a5f0cb6fd07122f4881cfc</title>
<g id="a_clust2"><a xlink:href="dir_9ac8c62b06a5f0cb6fd07122f4881cfc.html" target="_top">
<polygon fill="#eeeeff" stroke="black" points="16,-64 16,-188 162,-188 162,-64 16,-64"/>
</a>
</g>
</g>
<!-- dir_9ac8c62b06a5f0cb6fd07122f4881cfc -->
<g id="node1" class="node">
<title>dir_9ac8c62b06a5f0cb6fd07122f4881cfc</title>
<text text-anchor="middle" x="125" y="-159.5" font-family="Helvetica,sans-Serif" font-size="10.00">ds18b20</text>
</g>
<!-- dir_ef65c1fdff2dcef77132554fe8980f36 -->
<g id="node2" class="node">
<title>dir_ef65c1fdff2dcef77132554fe8980f36</title>
<g id="a_node2"><a xlink:href="dir_ef65c1fdff2dcef77132554fe8980f36.html" target="_top" xlink:title="include">
<polygon fill="white" stroke="red" points="78,-108 24,-108 24,-72 78,-72 78,-108"/>
<text text-anchor="middle" x="51" y="-87.5" font-family="Helvetica,sans-Serif" font-size="10.00">include</text>
</a>
</g>
</g>
<!-- dir_b9e03bbc3948604307f77a3a32c41f22 -->
<g id="node4" class="node">
<title>dir_b9e03bbc3948604307f77a3a32c41f22</title>
<g id="a_node4"><a xlink:href="dir_b9e03bbc3948604307f77a3a32c41f22.html" target="_top" xlink:title="ports">
<polygon fill="none" stroke="red" points="78,-36 24,-36 24,0 78,0 78,-36"/>
<text text-anchor="middle" x="51" y="-15.5" font-family="Helvetica,sans-Serif" font-size="10.00">ports</text>
</a>
</g>
</g>
<!-- dir_ef65c1fdff2dcef77132554fe8980f36&#45;&gt;dir_b9e03bbc3948604307f77a3a32c41f22 -->
<g id="edge2" class="edge">
<title>dir_ef65c1fdff2dcef77132554fe8980f36&#45;&gt;dir_b9e03bbc3948604307f77a3a32c41f22</title>
<path fill="none" stroke="black" d="M51,-71.7C51,-63.98 51,-54.71 51,-46.11"/>
<polygon fill="black" stroke="black" points="54.5,-46.1 51,-36.1 47.5,-46.1 54.5,-46.1"/>
<g id="a_edge2&#45;headlabel"><a xlink:href="dir_000007_000039.html" target="_top" xlink:title="2">
<text text-anchor="middle" x="57.34" y="-47.2" font-family="Helvetica,sans-Serif" font-size="10.00">2</text>
</a>
</g>
</g>
<!-- dir_c7b29d1635a868d5bf343c685155c5be -->
<g id="node3" class="node">
<title>dir_c7b29d1635a868d5bf343c685155c5be</title>
<g id="a_node3"><a xlink:href="dir_c7b29d1635a868d5bf343c685155c5be.html" target="_top" xlink:title="src">
<polygon fill="white" stroke="black" points="78,-180 24,-180 24,-144 78,-144 78,-180"/>
<text text-anchor="middle" x="51" y="-159.5" font-family="Helvetica,sans-Serif" font-size="10.00">src</text>
</a>
</g>
</g>
<!-- dir_c7b29d1635a868d5bf343c685155c5be&#45;&gt;dir_ef65c1fdff2dcef77132554fe8980f36 -->
<g id="edge1" class="edge">
<title>dir_c7b29d1635a868d5bf343c685155c5be&#45;&gt;dir_ef65c1fdff2dcef77132554fe8980f36</title>
<path fill="none" stroke="black" d="M51,-143.7C51,-135.98 51,-126.71 51,-118.11"/>
<polygon fill="black" stroke="black" points="54.5,-118.1 51,-108.1 47.5,-118.1 54.5,-118.1"/>
<g id="a_edge1&#45;headlabel"><a xlink:href="dir_000009_000007.html" target="_top" xlink:title="1">
<text text-anchor="middle" x="57.34" y="-119.2" font-family="Helvetica,sans-Serif" font-size="10.00">1</text>
</a>
</g>
</g>
</g>
</svg>
