<?xml version="1.0" encoding="UTF-8" standalone="no"?>
<!DOCTYPE svg PUBLIC "-//W3C//DTD SVG 1.1//EN"
 "http://www.w3.org/Graphics/SVG/1.1/DTD/svg11.dtd">
<!-- Generated by graphviz version 2.43.0 (0)
 -->
<!-- Title: components/drivers/lcd1602 Pages: 1 -->
<svg width="188pt" height="303pt"
 viewBox="0.00 0.00 188.00 303.00" xmlns="http://www.w3.org/2000/svg" xmlns:xlink="http://www.w3.org/1999/xlink">
<g id="graph0" class="graph" transform="scale(1 1) rotate(0) translate(4 299)">
<title>components/drivers/lcd1602</title>
<g id="clust1" class="cluster">
<title>clusterdir_5929fb5670f1753e25faccc4903a41ec</title>
<g id="a_clust1"><a xlink:href="dir_5929fb5670f1753e25faccc4903a41ec.html" target="_top" xlink:title="drivers">
<polygon fill="#ddddee" stroke="black" points="12,-128 12,-287 172,-287 172,-128 12,-128"/>
<text text-anchor="middle" x="92" y="-275" font-family="Helvetica,sans-Serif" font-size="10.00">drivers</text>
</a>
</g>
</g>
<g id="clust2" class="cluster">
<title>clusterdir_d7b3e84e30e3e87ae4f25368b695e9f5</title>
<g id="a_clust2"><a xlink:href="dir_d7b3e84e30e3e87ae4f25368b695e9f5.html" target="_top">
<polygon fill="#eeeeff" stroke="black" points="20,-136 20,-260 164,-260 164,-136 20,-136"/>
</a>
</g>
</g>
<!-- dir_d7b3e84e30e3e87ae4f25368b695e9f5 -->
<g id="node1" class="node">
<title>dir_d7b3e84e30e3e87ae4f25368b695e9f5</title>
<text text-anchor="middle" x="128" y="-231.5" font-family="Helvetica,sans-Serif" font-size="10.00">lcd1602</text>
</g>
<!-- dir_4cef1d9b6bcf9ee773b23ff1b395f318 -->
<g id="node2" class="node">
<title>dir_4cef1d9b6bcf9ee773b23ff1b395f318</title>
<g id="a_node2"><a xlink:href="dir_4cef1d9b6bcf9ee773b23ff1b395f318.html" target="_top" xlink:title="include">
<polygon fill="white" stroke="red" points="82,-180 28,-180 28,-144 82,-144 82,-180"/>
<text text-anchor="middle" x="55" y="-159.5" font-family="Helvetica,sans-Serif" font-size="10.00">include</text>
</a>
</g>
</g>
<!-- dir_b9e03bbc3948604307f77a3a32c41f22 -->
<g id="node4" class="node">
<title>dir_b9e03bbc3948604307f77a3a32c41f22</title>
<g id="a_node4"><a xlink:href="dir_b9e03bbc3948604307f77a3a32c41f22.html" target="_top" xlink:title="ports">
<polygon fill="none" stroke="red" points="54,-108 0,-108 0,-72 54,-72 54,-108"/>
<text text-anchor="middle" x="27" y="-87.5" font-family="Helvetica,sans-Serif" font-size="10.00">ports</text>
</a>
</g>
</g>
<!-- dir_4cef1d9b6bcf9ee773b23ff1b395f318&#45;&gt;dir_b9e03bbc3948604307f77a3a32c41f22 -->
<g id="edge1" class="edge">
<title>dir_4cef1d9b6bcf9ee773b23ff1b395f318&#45;&gt;dir_b9e03bbc3948604307f77a3a32c41f22</title>
<path fill="none" stroke="black" d="M48.08,-143.7C44.93,-135.81 41.12,-126.3 37.62,-117.55"/>
<polygon fill="black" stroke="black" points="40.81,-116.09 33.84,-108.1 34.31,-118.69 40.81,-116.09"/>
<g id="a_edge1&#45;headlabel"><a xlink:href="dir_000011_000039.html" target="_top" xlink:title="2">
<text text-anchor="middle" x="44.78" y="-115.87" font-family="Helvetica,sans-Serif" font-size="10.00">2</text>
</a>
</g>
</g>
<!-- dir_dd274a85e3fec7ff4cd8d8c8f0a74fa8 -->
<g id="node5" class="node">
<title>dir_dd274a85e3fec7ff4cd8d8c8f0a74fa8</title>
<g id="a_node5"><a xlink:href="dir_dd274a85e3fec7ff4cd8d8c8f0a74fa8.html" target="_top" xlink:title="ca">
<polygon fill="none" stroke="red" points="81,-36 27,-36 27,0 81,0 81,-36"/>
<text text-anchor="middle" x="54" y="-15.5" font-family="Helvetica,sans-Serif" font-size="10.00">ca</text>
</a>
</g>
</g>
<!-- dir_4cef1d9b6bcf9ee773b23ff1b395f318&#45;&gt;dir_dd274a85e3fec7ff4cd8d8c8f0a74fa8 -->
<g id="edge2" class="edge">
<title>dir_4cef1d9b6bcf9ee773b23ff1b395f318&#45;&gt;dir_dd274a85e3fec7ff4cd8d8c8f0a74fa8</title>
<path fill="none" stroke="black" d="M58.25,-143.89C60.05,-133.54 62.09,-120.06 63,-108 64.2,-92.04 64.34,-87.94 63,-72 62.28,-63.5 60.93,-54.31 59.49,-46.01"/>
<polygon fill="black" stroke="black" points="62.91,-45.29 57.65,-36.09 56.03,-46.56 62.91,-45.29"/>
<g id="a_edge2&#45;headlabel"><a xlink:href="dir_000011_000001.html" target="_top" xlink:title="2">
<text text-anchor="middle" x="66.36" y="-45.81" font-family="Helvetica,sans-Serif" font-size="10.00">2</text>
</a>
</g>
</g>
<!-- dir_f57730051b3f28867d4f973651da72c1 -->
<g id="node3" class="node">
<title>dir_f57730051b3f28867d4f973651da72c1</title>
<g id="a_node3"><a xlink:href="dir_f57730051b3f28867d4f973651da72c1.html" target="_top" xlink:title="src">
<polygon fill="white" stroke="black" points="82,-252 28,-252 28,-216 82,-216 82,-252"/>
<text text-anchor="middle" x="55" y="-231.5" font-family="Helvetica,sans-Serif" font-size="10.00">src</text>
</a>
</g>
</g>
<!-- dir_f57730051b3f28867d4f973651da72c1&#45;&gt;dir_4cef1d9b6bcf9ee773b23ff1b395f318 -->
<g id="edge4" class="edge">
<title>dir_f57730051b3f28867d4f973651da72c1&#45;&gt;dir_4cef1d9b6bcf9ee773b23ff1b395f318</title>
<path fill="none" stroke="black" d="M55,-215.7C55,-207.98 55,-198.71 55,-190.11"/>
<polygon fill="black" stroke="black" points="58.5,-190.1 55,-180.1 51.5,-190.1 58.5,-190.1"/>
<g id="a_edge4&#45;headlabel"><a xlink:href="dir_000013_000011.html" target="_top" xlink:title="2">
<text text-anchor="middle" x="61.34" y="-191.2" font-family="Helvetica,sans-Serif" font-size="10.00">2</text>
</a>
</g>
</g>
<!-- dir_b9e03bbc3948604307f77a3a32c41f22&#45;&gt;dir_dd274a85e3fec7ff4cd8d8c8f0a74fa8 -->
<g id="edge3" class="edge">
<title>dir_b9e03bbc3948604307f77a3a32c41f22&#45;&gt;dir_dd274a85e3fec7ff4cd8d8c8f0a74fa8</title>
<path fill="none" stroke="black" d="M33.67,-71.7C36.71,-63.81 40.38,-54.3 43.76,-45.55"/>
<polygon fill="black" stroke="black" points="47.07,-46.69 47.4,-36.1 40.54,-44.17 47.07,-46.69"/>
<g id="a_edge3&#45;headlabel"><a xlink:href="dir_000039_000001.html" target="_top" xlink:title="3">
<text text-anchor="middle" x="48.42" y="-48.57" font-family="Helvetica,sans-Serif" font-size="10.00">3</text>
</a>
</g>
</g>
</g>
</svg>
