<?xml version="1.0" encoding="UTF-8" standalone="no"?>
<!DOCTYPE svg PUBLIC "-//W3C//DTD SVG 1.1//EN"
 "http://www.w3.org/Graphics/SVG/1.1/DTD/svg11.dtd">
<!-- Generated by graphviz version 2.43.0 (0)
 -->
<!-- Title: components/drivers/ds18b20/include/drivers/ds18b20.h Pages: 1 -->
<svg width="343pt" height="218pt"
 viewBox="0.00 0.00 343.47 218.00" xmlns="http://www.w3.org/2000/svg" xmlns:xlink="http://www.w3.org/1999/xlink">
<g id="graph0" class="graph" transform="scale(1 1) rotate(0) translate(4 214)">
<title>components/drivers/ds18b20/include/drivers/ds18b20.h</title>
<!-- Node1 -->
<g id="node1" class="node">
<title>Node1</title>
<g id="a_node1"><a xlink:title=" ">
<polygon fill="#bfbfbf" stroke="black" points="23.97,-168.5 23.97,-209.5 159.97,-209.5 159.97,-168.5 23.97,-168.5"/>
<text text-anchor="start" x="31.97" y="-197.5" font-family="Helvetica,sans-Serif" font-size="10.00">components/drivers</text>
<text text-anchor="start" x="31.97" y="-186.5" font-family="Helvetica,sans-Serif" font-size="10.00">/ds18b20/include/drivers</text>
<text text-anchor="middle" x="91.97" y="-175.5" font-family="Helvetica,sans-Serif" font-size="10.00">/ds18b20.h</text>
</a>
</g>
</g>
<!-- Node2 -->
<g id="node2" class="node">
<title>Node2</title>
<g id="a_node2"><a xlink:title=" ">
<polygon fill="none" stroke="#bfbfbf" points="149.47,-0.5 149.47,-19.5 202.47,-19.5 202.47,-0.5 149.47,-0.5"/>
<text text-anchor="middle" x="175.97" y="-7.5" font-family="Helvetica,sans-Serif" font-size="10.00">stdint.h</text>
</a>
</g>
</g>
<!-- Node1&#45;&gt;Node2 -->
<g id="edge1" class="edge">
<title>Node1&#45;&gt;Node2</title>
<path fill="none" stroke="midnightblue" d="M64.23,-168.46C30.09,-142.03 -20.01,-93.82 8.97,-56 24.69,-35.48 94.82,-22.2 139.05,-15.71"/>
<polygon fill="midnightblue" stroke="midnightblue" points="139.74,-19.15 149.15,-14.28 138.76,-12.22 139.74,-19.15"/>
</g>
<!-- Node3 -->
<g id="node3" class="node">
<title>Node3</title>
<g id="a_node3"><a xlink:title=" ">
<polygon fill="none" stroke="#bfbfbf" points="17.97,-56.5 17.97,-75.5 79.97,-75.5 79.97,-56.5 17.97,-56.5"/>
<text text-anchor="middle" x="48.97" y="-63.5" font-family="Helvetica,sans-Serif" font-size="10.00">stdbool.h</text>
</a>
</g>
</g>
<!-- Node1&#45;&gt;Node3 -->
<g id="edge2" class="edge">
<title>Node1&#45;&gt;Node3</title>
<path fill="none" stroke="midnightblue" d="M83.44,-168.47C78.9,-157.79 73.37,-144.27 68.97,-132 63.43,-116.54 58.01,-98.7 54.21,-85.62"/>
<polygon fill="midnightblue" stroke="midnightblue" points="57.55,-84.57 51.43,-75.92 50.82,-86.49 57.55,-84.57"/>
</g>
<!-- Node4 -->
<g id="node4" class="node">
<title>Node4</title>
<g id="a_node4"><a xlink:href="onewire__port_8h.html" target="_top" xlink:title=" ">
<polygon fill="none" stroke="black" points="77.47,-112.5 77.47,-131.5 194.47,-131.5 194.47,-112.5 77.47,-112.5"/>
<text text-anchor="middle" x="135.97" y="-119.5" font-family="Helvetica,sans-Serif" font-size="10.00">ports/onewire_port.h</text>
</a>
</g>
</g>
<!-- Node1&#45;&gt;Node4 -->
<g id="edge3" class="edge">
<title>Node1&#45;&gt;Node4</title>
<path fill="none" stroke="midnightblue" d="M105.17,-168.5C111.27,-159.49 118.44,-148.89 124.34,-140.19"/>
<polygon fill="midnightblue" stroke="midnightblue" points="127.4,-141.9 130.11,-131.65 121.61,-137.97 127.4,-141.9"/>
</g>
<!-- Node7 -->
<g id="node7" class="node">
<title>Node7</title>
<g id="a_node7"><a xlink:href="time__port_8h.html" target="_top" xlink:title=" ">
<polygon fill="none" stroke="black" points="234.47,-112.5 234.47,-131.5 335.47,-131.5 335.47,-112.5 234.47,-112.5"/>
<text text-anchor="middle" x="284.97" y="-119.5" font-family="Helvetica,sans-Serif" font-size="10.00">ports/time_port.h</text>
</a>
</g>
</g>
<!-- Node1&#45;&gt;Node7 -->
<g id="edge9" class="edge">
<title>Node1&#45;&gt;Node7</title>
<path fill="none" stroke="midnightblue" d="M149.88,-168.5C182.41,-157.54 221.95,-144.22 249.82,-134.84"/>
<polygon fill="midnightblue" stroke="midnightblue" points="251.17,-138.08 259.53,-131.57 248.94,-131.44 251.17,-138.08"/>
</g>
<!-- Node4&#45;&gt;Node2 -->
<g id="edge4" class="edge">
<title>Node4&#45;&gt;Node2</title>
<path fill="none" stroke="midnightblue" d="M131.88,-112.18C126.52,-99.28 118.72,-74.77 126.97,-56 132.36,-43.73 142.93,-33.34 152.87,-25.65"/>
<polygon fill="midnightblue" stroke="midnightblue" points="155.22,-28.27 161.31,-19.6 151.14,-22.58 155.22,-28.27"/>
</g>
<!-- Node4&#45;&gt;Node3 -->
<g id="edge6" class="edge">
<title>Node4&#45;&gt;Node3</title>
<path fill="none" stroke="midnightblue" d="M121.99,-112.32C108.42,-103.9 87.59,-90.97 71.64,-81.07"/>
<polygon fill="midnightblue" stroke="midnightblue" points="73.25,-77.95 62.91,-75.65 69.56,-83.9 73.25,-77.95"/>
</g>
<!-- Node5 -->
<g id="node5" class="node">
<title>Node5</title>
<g id="a_node5"><a xlink:title=" ">
<polygon fill="none" stroke="#bfbfbf" points="135.97,-56.5 135.97,-75.5 191.97,-75.5 191.97,-56.5 135.97,-56.5"/>
<text text-anchor="middle" x="163.97" y="-63.5" font-family="Helvetica,sans-Serif" font-size="10.00">stddef.h</text>
</a>
</g>
</g>
<!-- Node4&#45;&gt;Node5 -->
<g id="edge5" class="edge">
<title>Node4&#45;&gt;Node5</title>
<path fill="none" stroke="midnightblue" d="M140.59,-112.08C144.43,-104.69 149.99,-93.95 154.73,-84.81"/>
<polygon fill="midnightblue" stroke="midnightblue" points="157.94,-86.24 159.43,-75.75 151.72,-83.02 157.94,-86.24"/>
</g>
<!-- Node6 -->
<g id="node6" class="node">
<title>Node6</title>
<g id="a_node6"><a xlink:href="status_8h.html" target="_top" xlink:title=" ">
<polygon fill="none" stroke="black" points="209.97,-56.5 209.97,-75.5 279.97,-75.5 279.97,-56.5 209.97,-56.5"/>
<text text-anchor="middle" x="244.97" y="-63.5" font-family="Helvetica,sans-Serif" font-size="10.00">ca/status.h</text>
</a>
</g>
</g>
<!-- Node4&#45;&gt;Node6 -->
<g id="edge7" class="edge">
<title>Node4&#45;&gt;Node6</title>
<path fill="none" stroke="midnightblue" d="M153.48,-112.32C171.04,-103.62 198.3,-90.12 218.5,-80.11"/>
<polygon fill="midnightblue" stroke="midnightblue" points="220.09,-83.23 227.5,-75.65 216.99,-76.96 220.09,-83.23"/>
</g>
<!-- Node6&#45;&gt;Node2 -->
<g id="edge8" class="edge">
<title>Node6&#45;&gt;Node2</title>
<path fill="none" stroke="midnightblue" d="M233.88,-56.32C223.48,-48.18 207.71,-35.84 195.25,-26.09"/>
<polygon fill="midnightblue" stroke="midnightblue" points="197.29,-23.24 187.26,-19.83 192.97,-28.75 197.29,-23.24"/>
</g>
<!-- Node7&#45;&gt;Node2 -->
<g id="edge10" class="edge">
<title>Node7&#45;&gt;Node2</title>
<path fill="none" stroke="midnightblue" d="M288.67,-112.12C293.62,-98.7 300.52,-73.03 288.97,-56 272.02,-31.01 238.74,-19.89 212.67,-14.95"/>
<polygon fill="midnightblue" stroke="midnightblue" points="213.16,-11.49 202.72,-13.29 212.01,-18.39 213.16,-11.49"/>
</g>
</g>
</svg>
