<?xml version="1.0" encoding="UTF-8" standalone="no"?>
<!DOCTYPE svg PUBLIC "-//W3C//DTD SVG 1.1//EN"
 "http://www.w3.org/Graphics/SVG/1.1/DTD/svg11.dtd">
<!-- Generated by graphviz version 2.43.0 (0)
 -->
<!-- Title: components/drivers/ds18b20/include/drivers/ds18b20.h Pages: 1 -->
<svg width="234pt" height="117pt"
 viewBox="0.00 0.00 234.00 117.00" xmlns="http://www.w3.org/2000/svg" xmlns:xlink="http://www.w3.org/1999/xlink">
<g id="graph0" class="graph" transform="scale(1 1) rotate(0) translate(4 113)">
<title>components/drivers/ds18b20/include/drivers/ds18b20.h</title>
<!-- Node1 -->
<g id="node1" class="node">
<title>Node1</title>
<g id="a_node1"><a xlink:title=" ">
<polygon fill="#bfbfbf" stroke="black" points="58.5,-67.5 58.5,-108.5 194.5,-108.5 194.5,-67.5 58.5,-67.5"/>
<text text-anchor="start" x="66.5" y="-96.5" font-family="Helvetica,sans-Serif" font-size="10.00">components/drivers</text>
<text text-anchor="start" x="66.5" y="-85.5" font-family="Helvetica,sans-Serif" font-size="10.00">/ds18b20/include/drivers</text>
<text text-anchor="middle" x="126.5" y="-74.5" font-family="Helvetica,sans-Serif" font-size="10.00">/ds18b20.h</text>
</a>
</g>
</g>
<!-- Node2 -->
<g id="node2" class="node">
<title>Node2</title>
<g id="a_node2"><a xlink:href="ds18b20_8c.html" target="_top" xlink:title=" ">
<polygon fill="none" stroke="black" points="0,-0.5 0,-30.5 131,-30.5 131,-0.5 0,-0.5"/>
<text text-anchor="start" x="8" y="-18.5" font-family="Helvetica,sans-Serif" font-size="10.00">components/drivers</text>
<text text-anchor="middle" x="65.5" y="-7.5" font-family="Helvetica,sans-Serif" font-size="10.00">/ds18b20/src/ds18b20.c</text>
</a>
</g>
</g>
<!-- Node1&#45;&gt;Node2 -->
<g id="edge1" class="edge">
<title>Node1&#45;&gt;Node2</title>
<path fill="none" stroke="midnightblue" d="M102.9,-59.73C94.39,-49.89 85.13,-39.19 77.95,-30.89"/>
<polygon fill="midnightblue" stroke="midnightblue" points="100.32,-62.09 109.51,-67.36 105.61,-57.51 100.32,-62.09"/>
</g>
<!-- Node3 -->
<g id="node3" class="node">
<title>Node3</title>
<g id="a_node3"><a xlink:href="main_8c.html" target="_top" xlink:title=" ">
<polygon fill="none" stroke="black" points="149,-6 149,-25 226,-25 226,-6 149,-6"/>
<text text-anchor="middle" x="187.5" y="-13" font-family="Helvetica,sans-Serif" font-size="10.00">main/main.c</text>
</a>
</g>
</g>
<!-- Node1&#45;&gt;Node3 -->
<g id="edge2" class="edge">
<title>Node1&#45;&gt;Node3</title>
<path fill="none" stroke="midnightblue" d="M150.23,-59.57C160.83,-47.32 172.58,-33.75 180,-25.17"/>
<polygon fill="midnightblue" stroke="midnightblue" points="147.39,-57.51 143.49,-67.36 152.68,-62.09 147.39,-57.51"/>
</g>
</g>
</svg>
