<?xml version="1.0" encoding="UTF-8" standalone="no"?>
<!DOCTYPE svg PUBLIC "-//W3C//DTD SVG 1.1//EN"
 "http://www.w3.org/Graphics/SVG/1.1/DTD/svg11.dtd">
<!-- Generated by graphviz version 2.43.0 (0)
 -->
<!-- Title: components/drivers/ds18b20/src/ds18b20.c Pages: 1 -->
<svg width="343pt" height="263pt"
 viewBox="0.00 0.00 342.79 263.00" xmlns="http://www.w3.org/2000/svg" xmlns:xlink="http://www.w3.org/1999/xlink">
<g id="graph0" class="graph" transform="scale(1 1) rotate(0) translate(4 259)">
<title>components/drivers/ds18b20/src/ds18b20.c</title>
<!-- Node1 -->
<g id="node1" class="node">
<title>Node1</title>
<g id="a_node1"><a xlink:title=" ">
<polygon fill="#bfbfbf" stroke="black" points="73.79,-224.5 73.79,-254.5 204.79,-254.5 204.79,-224.5 73.79,-224.5"/>
<text text-anchor="start" x="81.79" y="-242.5" font-family="Helvetica,sans-Serif" font-size="10.00">components/drivers</text>
<text text-anchor="middle" x="139.29" y="-231.5" font-family="Helvetica,sans-Serif" font-size="10.00">/ds18b20/src/ds18b20.c</text>
</a>
</g>
</g>
<!-- Node2 -->
<g id="node2" class="node">
<title>Node2</title>
<g id="a_node2"><a xlink:href="ds18b20_8h.html" target="_top" xlink:title=" ">
<polygon fill="none" stroke="black" points="39.29,-168.5 39.29,-187.5 143.29,-187.5 143.29,-168.5 39.29,-168.5"/>
<text text-anchor="middle" x="91.29" y="-175.5" font-family="Helvetica,sans-Serif" font-size="10.00">drivers/ds18b20.h</text>
</a>
</g>
</g>
<!-- Node1&#45;&gt;Node2 -->
<g id="edge1" class="edge">
<title>Node1&#45;&gt;Node2</title>
<path fill="none" stroke="midnightblue" d="M127.92,-224.4C120.94,-215.75 111.98,-204.64 104.66,-195.58"/>
<polygon fill="midnightblue" stroke="midnightblue" points="107.28,-193.24 98.28,-187.66 101.83,-197.64 107.28,-193.24"/>
</g>
<!-- Node9 -->
<g id="node9" class="node">
<title>Node9</title>
<g id="a_node9"><a xlink:title=" ">
<polygon fill="none" stroke="#bfbfbf" points="161.79,-168.5 161.79,-187.5 214.79,-187.5 214.79,-168.5 161.79,-168.5"/>
<text text-anchor="middle" x="188.29" y="-175.5" font-family="Helvetica,sans-Serif" font-size="10.00">string.h</text>
</a>
</g>
</g>
<!-- Node1&#45;&gt;Node9 -->
<g id="edge12" class="edge">
<title>Node1&#45;&gt;Node9</title>
<path fill="none" stroke="midnightblue" d="M150.9,-224.4C158.02,-215.75 167.17,-204.64 174.64,-195.58"/>
<polygon fill="midnightblue" stroke="midnightblue" points="177.51,-197.6 181.16,-187.66 172.1,-193.15 177.51,-197.6"/>
</g>
<!-- Node3 -->
<g id="node3" class="node">
<title>Node3</title>
<g id="a_node3"><a xlink:title=" ">
<polygon fill="none" stroke="#bfbfbf" points="148.79,-0.5 148.79,-19.5 201.79,-19.5 201.79,-0.5 148.79,-0.5"/>
<text text-anchor="middle" x="175.29" y="-7.5" font-family="Helvetica,sans-Serif" font-size="10.00">stdint.h</text>
</a>
</g>
</g>
<!-- Node2&#45;&gt;Node3 -->
<g id="edge2" class="edge">
<title>Node2&#45;&gt;Node3</title>
<path fill="none" stroke="midnightblue" d="M77.13,-168.27C46.08,-148.06 -22.85,-96.64 8.29,-56 24.02,-35.48 94.14,-22.2 138.37,-15.71"/>
<polygon fill="midnightblue" stroke="midnightblue" points="139.06,-19.15 148.47,-14.28 138.08,-12.22 139.06,-19.15"/>
</g>
<!-- Node4 -->
<g id="node4" class="node">
<title>Node4</title>
<g id="a_node4"><a xlink:title=" ">
<polygon fill="none" stroke="#bfbfbf" points="17.29,-56.5 17.29,-75.5 79.29,-75.5 79.29,-56.5 17.29,-56.5"/>
<text text-anchor="middle" x="48.29" y="-63.5" font-family="Helvetica,sans-Serif" font-size="10.00">stdbool.h</text>
</a>
</g>
</g>
<!-- Node2&#45;&gt;Node4 -->
<g id="edge3" class="edge">
<title>Node2&#45;&gt;Node4</title>
<path fill="none" stroke="midnightblue" d="M86.24,-168.25C81.24,-159.33 73.57,-145.01 68.29,-132 62.05,-116.62 56.63,-98.52 53.01,-85.33"/>
<polygon fill="midnightblue" stroke="midnightblue" points="56.37,-84.34 50.42,-75.58 49.61,-86.14 56.37,-84.34"/>
</g>
<!-- Node5 -->
<g id="node5" class="node">
<title>Node5</title>
<g id="a_node5"><a xlink:href="onewire__port_8h.html" target="_top" xlink:title=" ">
<polygon fill="none" stroke="black" points="76.79,-112.5 76.79,-131.5 193.79,-131.5 193.79,-112.5 76.79,-112.5"/>
<text text-anchor="middle" x="135.29" y="-119.5" font-family="Helvetica,sans-Serif" font-size="10.00">ports/onewire_port.h</text>
</a>
</g>
</g>
<!-- Node2&#45;&gt;Node5 -->
<g id="edge4" class="edge">
<title>Node2&#45;&gt;Node5</title>
<path fill="none" stroke="midnightblue" d="M98.56,-168.08C104.84,-160.38 114.08,-149.03 121.72,-139.65"/>
<polygon fill="midnightblue" stroke="midnightblue" points="124.56,-141.71 128.16,-131.75 119.13,-137.29 124.56,-141.71"/>
</g>
<!-- Node8 -->
<g id="node8" class="node">
<title>Node8</title>
<g id="a_node8"><a xlink:href="time__port_8h.html" target="_top" xlink:title=" ">
<polygon fill="none" stroke="black" points="233.79,-112.5 233.79,-131.5 334.79,-131.5 334.79,-112.5 233.79,-112.5"/>
<text text-anchor="middle" x="284.29" y="-119.5" font-family="Helvetica,sans-Serif" font-size="10.00">ports/time_port.h</text>
</a>
</g>
</g>
<!-- Node2&#45;&gt;Node8 -->
<g id="edge10" class="edge">
<title>Node2&#45;&gt;Node8</title>
<path fill="none" stroke="midnightblue" d="M121.87,-168.44C154.91,-159.2 207.68,-144.44 244.06,-134.26"/>
<polygon fill="midnightblue" stroke="midnightblue" points="245.17,-137.58 253.85,-131.52 243.28,-130.84 245.17,-137.58"/>
</g>
<!-- Node5&#45;&gt;Node3 -->
<g id="edge5" class="edge">
<title>Node5&#45;&gt;Node3</title>
<path fill="none" stroke="midnightblue" d="M131.2,-112.18C125.84,-99.28 118.04,-74.77 126.29,-56 131.68,-43.73 142.25,-33.34 152.2,-25.65"/>
<polygon fill="midnightblue" stroke="midnightblue" points="154.54,-28.27 160.63,-19.6 150.46,-22.58 154.54,-28.27"/>
</g>
<!-- Node5&#45;&gt;Node4 -->
<g id="edge7" class="edge">
<title>Node5&#45;&gt;Node4</title>
<path fill="none" stroke="midnightblue" d="M121.31,-112.32C107.74,-103.9 86.91,-90.97 70.97,-81.07"/>
<polygon fill="midnightblue" stroke="midnightblue" points="72.58,-77.95 62.24,-75.65 68.89,-83.9 72.58,-77.95"/>
</g>
<!-- Node6 -->
<g id="node6" class="node">
<title>Node6</title>
<g id="a_node6"><a xlink:title=" ">
<polygon fill="none" stroke="#bfbfbf" points="135.29,-56.5 135.29,-75.5 191.29,-75.5 191.29,-56.5 135.29,-56.5"/>
<text text-anchor="middle" x="163.29" y="-63.5" font-family="Helvetica,sans-Serif" font-size="10.00">stddef.h</text>
</a>
</g>
</g>
<!-- Node5&#45;&gt;Node6 -->
<g id="edge6" class="edge">
<title>Node5&#45;&gt;Node6</title>
<path fill="none" stroke="midnightblue" d="M139.92,-112.08C143.75,-104.69 149.32,-93.95 154.06,-84.81"/>
<polygon fill="midnightblue" stroke="midnightblue" points="157.26,-86.24 158.75,-75.75 151.04,-83.02 157.26,-86.24"/>
</g>
<!-- Node7 -->
<g id="node7" class="node">
<title>Node7</title>
<g id="a_node7"><a xlink:href="status_8h.html" target="_top" xlink:title=" ">
<polygon fill="none" stroke="black" points="209.29,-56.5 209.29,-75.5 279.29,-75.5 279.29,-56.5 209.29,-56.5"/>
<text text-anchor="middle" x="244.29" y="-63.5" font-family="Helvetica,sans-Serif" font-size="10.00">ca/status.h</text>
</a>
</g>
</g>
<!-- Node5&#45;&gt;Node7 -->
<g id="edge8" class="edge">
<title>Node5&#45;&gt;Node7</title>
<path fill="none" stroke="midnightblue" d="M152.8,-112.32C170.36,-103.62 197.62,-90.12 217.82,-80.11"/>
<polygon fill="midnightblue" stroke="midnightblue" points="219.42,-83.23 226.82,-75.65 216.31,-76.96 219.42,-83.23"/>
</g>
<!-- Node7&#45;&gt;Node3 -->
<g id="edge9" class="edge">
<title>Node7&#45;&gt;Node3</title>
<path fill="none" stroke="midnightblue" d="M233.21,-56.32C222.81,-48.18 207.03,-35.84 194.57,-26.09"/>
<polygon fill="midnightblue" stroke="midnightblue" points="196.61,-23.24 186.58,-19.83 192.3,-28.75 196.61,-23.24"/>
</g>
<!-- Node8&#45;&gt;Node3 -->
<g id="edge11" class="edge">
<title>Node8&#45;&gt;Node3</title>
<path fill="none" stroke="midnightblue" d="M288,-112.12C292.95,-98.7 299.84,-73.03 288.29,-56 271.34,-31.01 238.06,-19.89 211.99,-14.95"/>
<polygon fill="midnightblue" stroke="midnightblue" points="212.48,-11.49 202.04,-13.29 211.33,-18.39 212.48,-11.49"/>
</g>
</g>
</svg>
