<?xml version="1.0" encoding="UTF-8" standalone="no"?>
<!DOCTYPE svg PUBLIC "-//W3C//DTD SVG 1.1//EN"
 "http://www.w3.org/Graphics/SVG/1.1/DTD/svg11.dtd">
<!-- Generated by graphviz version 2.43.0 (0)
 -->
<!-- Title: components/ports/include/ports/i2c_async_port.h Pages: 1 -->
<svg width="270pt" height="151pt"
 viewBox="0.00 0.00 270.00 151.00" xmlns="http://www.w3.org/2000/svg" xmlns:xlink="http://www.w3.org/1999/xlink">
<g id="graph0" class="graph" transform="scale(1 1) rotate(0) translate(4 147)">
<title>components/ports/include/ports/i2c_async_port.h</title>
<!-- Node1 -->
<g id="node1" class="node">
<title>Node1</title>
<g id="a_node1"><a xlink:title=" ">
<polygon fill="#bfbfbf" stroke="black" points="41.5,-112.5 41.5,-142.5 184.5,-142.5 184.5,-112.5 41.5,-112.5"/>
<text text-anchor="start" x="49.5" y="-130.5" font-family="Helvetica,sans-Serif" font-size="10.00">components/ports/include</text>
<text text-anchor="middle" x="113" y="-119.5" font-family="Helvetica,sans-Serif" font-size="10.00">/ports/i2c_async_port.h</text>
</a>
</g>
</g>
<!-- Node2 -->
<g id="node2" class="node">
<title>Node2</title>
<g id="a_node2"><a xlink:title=" ">
<polygon fill="none" stroke="#bfbfbf" points="0,-56.5 0,-75.5 56,-75.5 56,-56.5 0,-56.5"/>
<text text-anchor="middle" x="28" y="-63.5" font-family="Helvetica,sans-Serif" font-size="10.00">stddef.h</text>
</a>
</g>
</g>
<!-- Node1&#45;&gt;Node2 -->
<g id="edge1" class="edge">
<title>Node1&#45;&gt;Node2</title>
<path fill="none" stroke="midnightblue" d="M92.86,-112.4C79.61,-103.13 62.32,-91.03 48.92,-81.65"/>
<polygon fill="midnightblue" stroke="midnightblue" points="50.57,-78.53 40.37,-75.66 46.55,-84.26 50.57,-78.53"/>
</g>
<!-- Node3 -->
<g id="node3" class="node">
<title>Node3</title>
<g id="a_node3"><a xlink:title=" ">
<polygon fill="none" stroke="#bfbfbf" points="128.5,-0.5 128.5,-19.5 181.5,-19.5 181.5,-0.5 128.5,-0.5"/>
<text text-anchor="middle" x="155" y="-7.5" font-family="Helvetica,sans-Serif" font-size="10.00">stdint.h</text>
</a>
</g>
</g>
<!-- Node1&#45;&gt;Node3 -->
<g id="edge2" class="edge">
<title>Node1&#45;&gt;Node3</title>
<path fill="none" stroke="midnightblue" d="M106.58,-112.33C100.89,-97.61 94.67,-74.21 103,-56 108.78,-43.36 120.05,-32.91 130.63,-25.27"/>
<polygon fill="midnightblue" stroke="midnightblue" points="132.85,-28 139.22,-19.53 128.96,-22.18 132.85,-28"/>
</g>
<!-- Node4 -->
<g id="node4" class="node">
<title>Node4</title>
<g id="a_node4"><a xlink:title=" ">
<polygon fill="none" stroke="#bfbfbf" points="112,-56.5 112,-75.5 174,-75.5 174,-56.5 112,-56.5"/>
<text text-anchor="middle" x="143" y="-63.5" font-family="Helvetica,sans-Serif" font-size="10.00">stdbool.h</text>
</a>
</g>
</g>
<!-- Node1&#45;&gt;Node4 -->
<g id="edge3" class="edge">
<title>Node1&#45;&gt;Node4</title>
<path fill="none" stroke="midnightblue" d="M120.11,-112.4C124.29,-104.11 129.61,-93.55 134.07,-84.71"/>
<polygon fill="midnightblue" stroke="midnightblue" points="137.26,-86.16 138.63,-75.66 131.01,-83.01 137.26,-86.16"/>
</g>
<!-- Node5 -->
<g id="node5" class="node">
<title>Node5</title>
<g id="a_node5"><a xlink:href="status_8h.html" target="_top" xlink:title=" ">
<polygon fill="none" stroke="black" points="192,-56.5 192,-75.5 262,-75.5 262,-56.5 192,-56.5"/>
<text text-anchor="middle" x="227" y="-63.5" font-family="Helvetica,sans-Serif" font-size="10.00">ca/status.h</text>
</a>
</g>
</g>
<!-- Node1&#45;&gt;Node5 -->
<g id="edge4" class="edge">
<title>Node1&#45;&gt;Node5</title>
<path fill="none" stroke="midnightblue" d="M140.02,-112.4C158.63,-102.68 183.21,-89.86 201.49,-80.31"/>
<polygon fill="midnightblue" stroke="midnightblue" points="203.17,-83.39 210.41,-75.66 199.93,-77.18 203.17,-83.39"/>
</g>
<!-- Node5&#45;&gt;Node3 -->
<g id="edge5" class="edge">
<title>Node5&#45;&gt;Node3</title>
<path fill="none" stroke="midnightblue" d="M215.43,-56.32C204.58,-48.18 188.12,-35.84 175.12,-26.09"/>
<polygon fill="midnightblue" stroke="midnightblue" points="176.88,-23.03 166.78,-19.83 172.68,-28.63 176.88,-23.03"/>
</g>
</g>
</svg>
