<?xml version="1.0" encoding="UTF-8" standalone="no"?>
<!DOCTYPE svg PUBLIC "-//W3C//DTD SVG 1.1//EN"
 "http://www.w3.org/Graphics/SVG/1.1/DTD/svg11.dtd">
<!-- Generated by graphviz version 2.43.0 (0)
 -->
<!-- Title: components/ports/include/ports/i2c_async_port.h Pages: 1 -->
<svg width="589pt" height="262pt"
 viewBox="0.00 0.00 589.00 262.00" xmlns="http://www.w3.org/2000/svg" xmlns:xlink="http://www.w3.org/1999/xlink">
<g id="graph0" class="graph" transform="scale(1 1) rotate(0) translate(4 258)">
<title>components/ports/include/ports/i2c_async_port.h</title>
<!-- Node1 -->
<g id="node1" class="node">
<title>Node1</title>
<g id="a_node1"><a xlink:title=" ">
<polygon fill="#bfbfbf" stroke="black" points="297.5,-223.5 297.5,-253.5 440.5,-253.5 440.5,-223.5 297.5,-223.5"/>
<text text-anchor="start" x="305.5" y="-241.5" font-family="Helvetica,sans-Serif" font-size="10.00">components/ports/include</text>
<text text-anchor="middle" x="369" y="-230.5" font-family="Helvetica,sans-Serif" font-size="10.00">/ports/i2c_async_port.h</text>
</a>
</g>
</g>
<!-- Node2 -->
<g id="node2" class="node">
<title>Node2</title>
<g id="a_node2"><a xlink:href="lcd1602__dev_8h.html" target="_top" xlink:title=" ">
<polygon fill="none" stroke="black" points="149.5,-145.5 149.5,-186.5 282.5,-186.5 282.5,-145.5 149.5,-145.5"/>
<text text-anchor="start" x="157.5" y="-174.5" font-family="Helvetica,sans-Serif" font-size="10.00">components/drivers</text>
<text text-anchor="start" x="157.5" y="-163.5" font-family="Helvetica,sans-Serif" font-size="10.00">/lcd1602/include/drivers</text>
<text text-anchor="middle" x="216" y="-152.5" font-family="Helvetica,sans-Serif" font-size="10.00">/lcd1602_dev.h</text>
</a>
</g>
</g>
<!-- Node1&#45;&gt;Node2 -->
<g id="edge1" class="edge">
<title>Node1&#45;&gt;Node2</title>
<path fill="none" stroke="midnightblue" d="M329.13,-219.13C307.41,-209.12 280.53,-196.73 258.42,-186.55"/>
<polygon fill="midnightblue" stroke="midnightblue" points="327.86,-222.4 338.41,-223.4 330.79,-216.04 327.86,-222.4"/>
</g>
<!-- Node5 -->
<g id="node5" class="node">
<title>Node5</title>
<g id="a_node5"><a xlink:href="main_8c.html" target="_top" xlink:title=" ">
<polygon fill="none" stroke="black" points="244.5,-6 244.5,-25 321.5,-25 321.5,-6 244.5,-6"/>
<text text-anchor="middle" x="283" y="-13" font-family="Helvetica,sans-Serif" font-size="10.00">main/main.c</text>
</a>
</g>
</g>
<!-- Node1&#45;&gt;Node5 -->
<g id="edge10" class="edge">
<title>Node1&#45;&gt;Node5</title>
<path fill="none" stroke="midnightblue" d="M371.84,-212.89C374.65,-178.01 375.33,-113.28 349,-67 338.08,-47.81 316.64,-33.52 301.15,-25.13"/>
<polygon fill="midnightblue" stroke="midnightblue" points="368.33,-212.83 370.88,-223.11 375.3,-213.48 368.33,-212.83"/>
</g>
<!-- Node7 -->
<g id="node7" class="node">
<title>Node7</title>
<g id="a_node7"><a xlink:href="idf__i2c__service_8h.html" target="_top" xlink:title=" ">
<polygon fill="none" stroke="black" points="397,-145.5 397,-186.5 567,-186.5 567,-145.5 397,-145.5"/>
<text text-anchor="start" x="405" y="-174.5" font-family="Helvetica,sans-Serif" font-size="10.00">components/infrastructure</text>
<text text-anchor="start" x="405" y="-163.5" font-family="Helvetica,sans-Serif" font-size="10.00">/idf_i2c_service/include</text>
<text text-anchor="middle" x="482" y="-152.5" font-family="Helvetica,sans-Serif" font-size="10.00">/infrastructure/idf_i2c_service.h</text>
</a>
</g>
</g>
<!-- Node1&#45;&gt;Node7 -->
<g id="edge7" class="edge">
<title>Node1&#45;&gt;Node7</title>
<path fill="none" stroke="midnightblue" d="M400.37,-217.93C415.99,-208.19 434.82,-196.44 450.46,-186.68"/>
<polygon fill="midnightblue" stroke="midnightblue" points="398.23,-215.14 391.6,-223.4 401.93,-221.08 398.23,-215.14"/>
</g>
<!-- Node3 -->
<g id="node3" class="node">
<title>Node3</title>
<g id="a_node3"><a xlink:href="lcd1602__fb_8h.html" target="_top" xlink:title=" ">
<polygon fill="none" stroke="black" points="3.5,-67.5 3.5,-108.5 136.5,-108.5 136.5,-67.5 3.5,-67.5"/>
<text text-anchor="start" x="11.5" y="-96.5" font-family="Helvetica,sans-Serif" font-size="10.00">components/drivers</text>
<text text-anchor="start" x="11.5" y="-85.5" font-family="Helvetica,sans-Serif" font-size="10.00">/lcd1602/include/drivers</text>
<text text-anchor="middle" x="70" y="-74.5" font-family="Helvetica,sans-Serif" font-size="10.00">/lcd1602_fb.h</text>
</a>
</g>
</g>
<!-- Node2&#45;&gt;Node3 -->
<g id="edge2" class="edge">
<title>Node2&#45;&gt;Node3</title>
<path fill="none" stroke="midnightblue" d="M169.45,-140.77C149.44,-130.35 126.36,-118.34 107.47,-108.51"/>
<polygon fill="midnightblue" stroke="midnightblue" points="167.92,-143.92 178.4,-145.43 171.15,-137.71 167.92,-143.92"/>
</g>
<!-- Node2&#45;&gt;Node5 -->
<g id="edge6" class="edge">
<title>Node2&#45;&gt;Node5</title>
<path fill="none" stroke="midnightblue" d="M194.71,-136.9C182.02,-116.45 170.73,-88.67 184,-67 197.4,-45.12 223.6,-32.34 245.68,-25.12"/>
<polygon fill="midnightblue" stroke="midnightblue" points="191.93,-139.03 200.37,-145.45 197.77,-135.17 191.93,-139.03"/>
</g>
<!-- Node6 -->
<g id="node6" class="node">
<title>Node6</title>
<g id="a_node6"><a xlink:href="lcd1602__dev_8c.html" target="_top" xlink:title=" ">
<polygon fill="none" stroke="black" points="193.5,-73 193.5,-103 340.5,-103 340.5,-73 193.5,-73"/>
<text text-anchor="start" x="201.5" y="-91" font-family="Helvetica,sans-Serif" font-size="10.00">components/drivers</text>
<text text-anchor="middle" x="267" y="-80" font-family="Helvetica,sans-Serif" font-size="10.00">/lcd1602/src/lcd1602_dev.c</text>
</a>
</g>
</g>
<!-- Node2&#45;&gt;Node6 -->
<g id="edge5" class="edge">
<title>Node2&#45;&gt;Node6</title>
<path fill="none" stroke="midnightblue" d="M234.8,-136.98C242.51,-125.5 251.09,-112.71 257.45,-103.23"/>
<polygon fill="midnightblue" stroke="midnightblue" points="231.8,-135.17 229.13,-145.43 237.61,-139.07 231.8,-135.17"/>
</g>
<!-- Node4 -->
<g id="node4" class="node">
<title>Node4</title>
<g id="a_node4"><a xlink:href="lcd1602__fb_8c.html" target="_top" xlink:title=" ">
<polygon fill="none" stroke="black" points="0,-0.5 0,-30.5 140,-30.5 140,-0.5 0,-0.5"/>
<text text-anchor="start" x="8" y="-18.5" font-family="Helvetica,sans-Serif" font-size="10.00">components/drivers</text>
<text text-anchor="middle" x="70" y="-7.5" font-family="Helvetica,sans-Serif" font-size="10.00">/lcd1602/src/lcd1602_fb.c</text>
</a>
</g>
</g>
<!-- Node3&#45;&gt;Node4 -->
<g id="edge3" class="edge">
<title>Node3&#45;&gt;Node4</title>
<path fill="none" stroke="midnightblue" d="M70,-57.08C70,-48.01 70,-38.45 70,-30.89"/>
<polygon fill="midnightblue" stroke="midnightblue" points="66.5,-57.36 70,-67.36 73.5,-57.36 66.5,-57.36"/>
</g>
<!-- Node3&#45;&gt;Node5 -->
<g id="edge4" class="edge">
<title>Node3&#45;&gt;Node5</title>
<path fill="none" stroke="midnightblue" d="M138.62,-64.29C179.13,-50.88 228.04,-34.69 257.28,-25.01"/>
<polygon fill="midnightblue" stroke="midnightblue" points="137.44,-60.99 129.05,-67.46 139.64,-67.64 137.44,-60.99"/>
</g>
<!-- Node7&#45;&gt;Node5 -->
<g id="edge9" class="edge">
<title>Node7&#45;&gt;Node5</title>
<path fill="none" stroke="midnightblue" d="M454.73,-137.8C426.13,-109.31 385.04,-68.47 383,-67 358.06,-49.05 325.81,-34.02 304.78,-25.14"/>
<polygon fill="midnightblue" stroke="midnightblue" points="452.51,-140.53 462.06,-145.11 457.45,-135.57 452.51,-140.53"/>
</g>
<!-- Node8 -->
<g id="node8" class="node">
<title>Node8</title>
<g id="a_node8"><a xlink:href="idf__i2c__service_8c.html" target="_top" xlink:title=" ">
<polygon fill="none" stroke="black" points="435,-67.5 435,-108.5 581,-108.5 581,-67.5 435,-67.5"/>
<text text-anchor="start" x="443" y="-96.5" font-family="Helvetica,sans-Serif" font-size="10.00">components/infrastructure</text>
<text text-anchor="start" x="443" y="-85.5" font-family="Helvetica,sans-Serif" font-size="10.00">/idf_i2c_service/src/idf</text>
<text text-anchor="middle" x="508" y="-74.5" font-family="Helvetica,sans-Serif" font-size="10.00">_i2c_service.c</text>
</a>
</g>
</g>
<!-- Node7&#45;&gt;Node8 -->
<g id="edge8" class="edge">
<title>Node7&#45;&gt;Node8</title>
<path fill="none" stroke="midnightblue" d="M491.96,-135.88C495.1,-126.72 498.48,-116.83 501.33,-108.51"/>
<polygon fill="midnightblue" stroke="midnightblue" points="488.62,-134.83 488.7,-145.43 495.24,-137.1 488.62,-134.83"/>
</g>
</g>
</svg>
