<?xml version="1.0" encoding="UTF-8" standalone="no"?>
<!DOCTYPE svg PUBLIC "-//W3C//DTD SVG 1.1//EN"
 "http://www.w3.org/Graphics/SVG/1.1/DTD/svg11.dtd">
<!-- Generated by graphviz version 2.43.0 (0)
 -->
<!-- Title: components/infrastructure/idf_onewire/src/idf_onewire.c Pages: 1 -->
<svg width="312pt" height="274pt"
 viewBox="0.00 0.00 312.25 274.00" xmlns="http://www.w3.org/2000/svg" xmlns:xlink="http://www.w3.org/1999/xlink">
<g id="graph0" class="graph" transform="scale(1 1) rotate(0) translate(4 270)">
<title>components/infrastructure/idf_onewire/src/idf_onewire.c</title>
<!-- Node1 -->
<g id="node1" class="node">
<title>Node1</title>
<g id="a_node1"><a xlink:title=" ">
<polygon fill="#bfbfbf" stroke="black" points="108.75,-235.5 108.75,-265.5 270.75,-265.5 270.75,-235.5 108.75,-235.5"/>
<text text-anchor="start" x="116.75" y="-253.5" font-family="Helvetica,sans-Serif" font-size="10.00">components/infrastructure</text>
<text text-anchor="middle" x="189.75" y="-242.5" font-family="Helvetica,sans-Serif" font-size="10.00">/idf_onewire/src/idf_onewire.c</text>
</a>
</g>
</g>
<!-- Node2 -->
<g id="node2" class="node">
<title>Node2</title>
<g id="a_node2"><a xlink:href="idf__onewire_8h.html" target="_top" xlink:title=" ">
<polygon fill="none" stroke="black" points="29.75,-168.5 29.75,-198.5 127.75,-198.5 127.75,-168.5 29.75,-168.5"/>
<text text-anchor="start" x="37.75" y="-186.5" font-family="Helvetica,sans-Serif" font-size="10.00">infrastructure/idf</text>
<text text-anchor="middle" x="78.75" y="-175.5" font-family="Helvetica,sans-Serif" font-size="10.00">_onewire.h</text>
</a>
</g>
</g>
<!-- Node1&#45;&gt;Node2 -->
<g id="edge1" class="edge">
<title>Node1&#45;&gt;Node2</title>
<path fill="none" stroke="midnightblue" d="M165.66,-235.4C149.81,-226.11 128.85,-213.84 111.49,-203.67"/>
<polygon fill="midnightblue" stroke="midnightblue" points="113.18,-200.61 102.79,-198.58 109.65,-206.65 113.18,-200.61"/>
</g>
<!-- Node8 -->
<g id="node8" class="node">
<title>Node8</title>
<g id="a_node8"><a xlink:title=" ">
<polygon fill="none" stroke="#bfbfbf" points="146.25,-174 146.25,-193 233.25,-193 233.25,-174 146.25,-174"/>
<text text-anchor="middle" x="189.75" y="-181" font-family="Helvetica,sans-Serif" font-size="10.00">onewire_bus.h</text>
</a>
</g>
</g>
<!-- Node1&#45;&gt;Node8 -->
<g id="edge8" class="edge">
<title>Node1&#45;&gt;Node8</title>
<path fill="none" stroke="midnightblue" d="M189.75,-235.4C189.75,-226.06 189.75,-213.71 189.75,-203.52"/>
<polygon fill="midnightblue" stroke="midnightblue" points="193.25,-203.19 189.75,-193.19 186.25,-203.19 193.25,-203.19"/>
</g>
<!-- Node9 -->
<g id="node9" class="node">
<title>Node9</title>
<g id="a_node9"><a xlink:title=" ">
<polygon fill="none" stroke="#bfbfbf" points="251.25,-174 251.25,-193 304.25,-193 304.25,-174 251.25,-174"/>
<text text-anchor="middle" x="277.75" y="-181" font-family="Helvetica,sans-Serif" font-size="10.00">stdlib.h</text>
</a>
</g>
</g>
<!-- Node1&#45;&gt;Node9 -->
<g id="edge9" class="edge">
<title>Node1&#45;&gt;Node9</title>
<path fill="none" stroke="midnightblue" d="M208.84,-235.4C223.33,-224.7 243.18,-210.03 257.85,-199.19"/>
<polygon fill="midnightblue" stroke="midnightblue" points="260.27,-201.76 266.23,-193.01 256.11,-196.13 260.27,-201.76"/>
</g>
<!-- Node3 -->
<g id="node3" class="node">
<title>Node3</title>
<g id="a_node3"><a xlink:href="onewire__port_8h.html" target="_top" xlink:title=" ">
<polygon fill="none" stroke="black" points="20.25,-112.5 20.25,-131.5 137.25,-131.5 137.25,-112.5 20.25,-112.5"/>
<text text-anchor="middle" x="78.75" y="-119.5" font-family="Helvetica,sans-Serif" font-size="10.00">ports/onewire_port.h</text>
</a>
</g>
</g>
<!-- Node2&#45;&gt;Node3 -->
<g id="edge2" class="edge">
<title>Node2&#45;&gt;Node3</title>
<path fill="none" stroke="midnightblue" d="M78.75,-168.4C78.75,-160.47 78.75,-150.46 78.75,-141.86"/>
<polygon fill="midnightblue" stroke="midnightblue" points="82.25,-141.66 78.75,-131.66 75.25,-141.66 82.25,-141.66"/>
</g>
<!-- Node4 -->
<g id="node4" class="node">
<title>Node4</title>
<g id="a_node4"><a xlink:title=" ">
<polygon fill="none" stroke="#bfbfbf" points="66.25,-0.5 66.25,-19.5 119.25,-19.5 119.25,-0.5 66.25,-0.5"/>
<text text-anchor="middle" x="92.75" y="-7.5" font-family="Helvetica,sans-Serif" font-size="10.00">stdint.h</text>
</a>
</g>
</g>
<!-- Node3&#45;&gt;Node4 -->
<g id="edge3" class="edge">
<title>Node3&#45;&gt;Node4</title>
<path fill="none" stroke="midnightblue" d="M53.85,-112.37C26.51,-101.43 -11.6,-80.95 3.75,-56 15.25,-37.29 37.22,-26.07 56.45,-19.51"/>
<polygon fill="midnightblue" stroke="midnightblue" points="57.67,-22.8 66.18,-16.5 55.59,-16.11 57.67,-22.8"/>
</g>
<!-- Node5 -->
<g id="node5" class="node">
<title>Node5</title>
<g id="a_node5"><a xlink:title=" ">
<polygon fill="none" stroke="#bfbfbf" points="12.75,-56.5 12.75,-75.5 68.75,-75.5 68.75,-56.5 12.75,-56.5"/>
<text text-anchor="middle" x="40.75" y="-63.5" font-family="Helvetica,sans-Serif" font-size="10.00">stddef.h</text>
</a>
</g>
</g>
<!-- Node3&#45;&gt;Node5 -->
<g id="edge4" class="edge">
<title>Node3&#45;&gt;Node5</title>
<path fill="none" stroke="midnightblue" d="M72.47,-112.08C67.1,-104.46 59.23,-93.26 52.67,-83.94"/>
<polygon fill="midnightblue" stroke="midnightblue" points="55.52,-81.91 46.9,-75.75 49.8,-85.94 55.52,-81.91"/>
</g>
<!-- Node6 -->
<g id="node6" class="node">
<title>Node6</title>
<g id="a_node6"><a xlink:title=" ">
<polygon fill="none" stroke="#bfbfbf" points="86.75,-56.5 86.75,-75.5 148.75,-75.5 148.75,-56.5 86.75,-56.5"/>
<text text-anchor="middle" x="117.75" y="-63.5" font-family="Helvetica,sans-Serif" font-size="10.00">stdbool.h</text>
</a>
</g>
</g>
<!-- Node3&#45;&gt;Node6 -->
<g id="edge5" class="edge">
<title>Node3&#45;&gt;Node6</title>
<path fill="none" stroke="midnightblue" d="M85.19,-112.08C90.7,-104.46 98.78,-93.26 105.51,-83.94"/>
<polygon fill="midnightblue" stroke="midnightblue" points="108.41,-85.91 111.43,-75.75 102.73,-81.81 108.41,-85.91"/>
</g>
<!-- Node7 -->
<g id="node7" class="node">
<title>Node7</title>
<g id="a_node7"><a xlink:href="status_8h.html" target="_top" xlink:title=" ">
<polygon fill="none" stroke="black" points="166.75,-56.5 166.75,-75.5 236.75,-75.5 236.75,-56.5 166.75,-56.5"/>
<text text-anchor="middle" x="201.75" y="-63.5" font-family="Helvetica,sans-Serif" font-size="10.00">ca/status.h</text>
</a>
</g>
</g>
<!-- Node3&#45;&gt;Node7 -->
<g id="edge6" class="edge">
<title>Node3&#45;&gt;Node7</title>
<path fill="none" stroke="midnightblue" d="M98.24,-112.44C118.39,-103.6 150.07,-89.69 173.08,-79.59"/>
<polygon fill="midnightblue" stroke="midnightblue" points="174.6,-82.74 182.35,-75.52 171.78,-76.33 174.6,-82.74"/>
</g>
<!-- Node7&#45;&gt;Node4 -->
<g id="edge7" class="edge">
<title>Node7&#45;&gt;Node4</title>
<path fill="none" stroke="midnightblue" d="M184.23,-56.32C166.67,-47.62 139.42,-34.12 119.22,-24.11"/>
<polygon fill="midnightblue" stroke="midnightblue" points="120.73,-20.96 110.22,-19.65 117.62,-27.23 120.73,-20.96"/>
</g>
</g>
</svg>
