<?xml version="1.0" encoding="UTF-8" standalone="no"?>
<!DOCTYPE svg PUBLIC "-//W3C//DTD SVG 1.1//EN"
 "http://www.w3.org/Graphics/SVG/1.1/DTD/svg11.dtd">
<!-- Generated by graphviz version 2.43.0 (0)
 -->
<!-- Title: components/infrastructure/idf_i2c_service/include/infrastructure/idf_i2c_service.h Pages: 1 -->
<svg width="270pt" height="218pt"
 viewBox="0.00 0.00 270.00 218.00" xmlns="http://www.w3.org/2000/svg" xmlns:xlink="http://www.w3.org/1999/xlink">
<g id="graph0" class="graph" transform="scale(1 1) rotate(0) translate(4 214)">
<title>components/infrastructure/idf_i2c_service/include/infrastructure/idf_i2c_service.h</title>
<!-- Node1 -->
<g id="node1" class="node">
<title>Node1</title>
<g id="a_node1"><a xlink:title=" ">
<polygon fill="#bfbfbf" stroke="black" points="28,-168.5 28,-209.5 198,-209.5 198,-168.5 28,-168.5"/>
<text text-anchor="start" x="36" y="-197.5" font-family="Helvetica,sans-Serif" font-size="10.00">components/infrastructure</text>
<text text-anchor="start" x="36" y="-186.5" font-family="Helvetica,sans-Serif" font-size="10.00">/idf_i2c_service/include</text>
<text text-anchor="middle" x="113" y="-175.5" font-family="Helvetica,sans-Serif" font-size="10.00">/infrastructure/idf_i2c_service.h</text>
</a>
</g>
</g>
<!-- Node2 -->
<g id="node2" class="node">
<title>Node2</title>
<g id="a_node2"><a xlink:href="i2c__async__port_8h.html" target="_top" xlink:title=" ">
<polygon fill="none" stroke="black" points="50,-112.5 50,-131.5 176,-131.5 176,-112.5 50,-112.5"/>
<text text-anchor="middle" x="113" y="-119.5" font-family="Helvetica,sans-Serif" font-size="10.00">ports/i2c_async_port.h</text>
</a>
</g>
</g>
<!-- Node1&#45;&gt;Node2 -->
<g id="edge1" class="edge">
<title>Node1&#45;&gt;Node2</title>
<path fill="none" stroke="midnightblue" d="M113,-168.5C113,-160.07 113,-150.24 113,-141.87"/>
<polygon fill="midnightblue" stroke="midnightblue" points="116.5,-141.65 113,-131.65 109.5,-141.65 116.5,-141.65"/>
</g>
<!-- Node3 -->
<g id="node3" class="node">
<title>Node3</title>
<g id="a_node3"><a xlink:title=" ">
<polygon fill="none" stroke="#bfbfbf" points="0,-56.5 0,-75.5 56,-75.5 56,-56.5 0,-56.5"/>
<text text-anchor="middle" x="28" y="-63.5" font-family="Helvetica,sans-Serif" font-size="10.00">stddef.h</text>
</a>
</g>
</g>
<!-- Node2&#45;&gt;Node3 -->
<g id="edge2" class="edge">
<title>Node2&#45;&gt;Node3</title>
<path fill="none" stroke="midnightblue" d="M99.34,-112.32C86.08,-103.9 65.73,-90.97 50.15,-81.07"/>
<polygon fill="midnightblue" stroke="midnightblue" points="51.94,-78.06 41.62,-75.65 48.19,-83.97 51.94,-78.06"/>
</g>
<!-- Node4 -->
<g id="node4" class="node">
<title>Node4</title>
<g id="a_node4"><a xlink:title=" ">
<polygon fill="none" stroke="#bfbfbf" points="128.5,-0.5 128.5,-19.5 181.5,-19.5 181.5,-0.5 128.5,-0.5"/>
<text text-anchor="middle" x="155" y="-7.5" font-family="Helvetica,sans-Serif" font-size="10.00">stdint.h</text>
</a>
</g>
</g>
<!-- Node2&#45;&gt;Node4 -->
<g id="edge3" class="edge">
<title>Node2&#45;&gt;Node4</title>
<path fill="none" stroke="midnightblue" d="M108.62,-112.16C102.87,-99.23 94.46,-74.69 103,-56 108.78,-43.36 120.05,-32.91 130.63,-25.27"/>
<polygon fill="midnightblue" stroke="midnightblue" points="132.85,-28 139.22,-19.53 128.96,-22.18 132.85,-28"/>
</g>
<!-- Node5 -->
<g id="node5" class="node">
<title>Node5</title>
<g id="a_node5"><a xlink:title=" ">
<polygon fill="none" stroke="#bfbfbf" points="112,-56.5 112,-75.5 174,-75.5 174,-56.5 112,-56.5"/>
<text text-anchor="middle" x="143" y="-63.5" font-family="Helvetica,sans-Serif" font-size="10.00">stdbool.h</text>
</a>
</g>
</g>
<!-- Node2&#45;&gt;Node5 -->
<g id="edge4" class="edge">
<title>Node2&#45;&gt;Node5</title>
<path fill="none" stroke="midnightblue" d="M117.95,-112.08C122.1,-104.61 128.15,-93.72 133.27,-84.52"/>
<polygon fill="midnightblue" stroke="midnightblue" points="136.34,-86.19 138.14,-75.75 130.22,-82.79 136.34,-86.19"/>
</g>
<!-- Node6 -->
<g id="node6" class="node">
<title>Node6</title>
<g id="a_node6"><a xlink:href="status_8h.html" target="_top" xlink:title=" ">
<polygon fill="none" stroke="black" points="192,-56.5 192,-75.5 262,-75.5 262,-56.5 192,-56.5"/>
<text text-anchor="middle" x="227" y="-63.5" font-family="Helvetica,sans-Serif" font-size="10.00">ca/status.h</text>
</a>
</g>
</g>
<!-- Node2&#45;&gt;Node6 -->
<g id="edge5" class="edge">
<title>Node2&#45;&gt;Node6</title>
<path fill="none" stroke="midnightblue" d="M131.06,-112.44C149.57,-103.68 178.58,-89.94 199.86,-79.86"/>
<polygon fill="midnightblue" stroke="midnightblue" points="201.48,-82.96 209.02,-75.52 198.49,-76.63 201.48,-82.96"/>
</g>
<!-- Node6&#45;&gt;Node4 -->
<g id="edge6" class="edge">
<title>Node6&#45;&gt;Node4</title>
<path fill="none" stroke="midnightblue" d="M215.43,-56.32C204.58,-48.18 188.12,-35.84 175.12,-26.09"/>
<polygon fill="midnightblue" stroke="midnightblue" points="176.88,-23.03 166.78,-19.83 172.68,-28.63 176.88,-23.03"/>
</g>
</g>
</svg>
