<?xml version="1.0" encoding="UTF-8" standalone="no"?>
<!DOCTYPE svg PUBLIC "-//W3C//DTD SVG 1.1//EN"
 "http://www.w3.org/Graphics/SVG/1.1/DTD/svg11.dtd">
<!-- Generated by graphviz version 2.43.0 (0)
 -->
<!-- Title: components/infrastructure/idf_onewire/include/infrastructure/idf_onewire.h Pages: 1 -->
<svg width="266pt" height="117pt"
 viewBox="0.00 0.00 265.50 117.00" xmlns="http://www.w3.org/2000/svg" xmlns:xlink="http://www.w3.org/1999/xlink">
<g id="graph0" class="graph" transform="scale(1 1) rotate(0) translate(4 113)">
<title>components/infrastructure/idf_onewire/include/infrastructure/idf_onewire.h</title>
<!-- Node1 -->
<g id="node1" class="node">
<title>Node1</title>
<g id="a_node1"><a xlink:title=" ">
<polygon fill="#bfbfbf" stroke="black" points="58,-67.5 58,-108.5 242,-108.5 242,-67.5 58,-67.5"/>
<text text-anchor="start" x="66" y="-96.5" font-family="Helvetica,sans-Serif" font-size="10.00">components/infrastructure</text>
<text text-anchor="start" x="66" y="-85.5" font-family="Helvetica,sans-Serif" font-size="10.00">/idf_onewire/include/infrastructure</text>
<text text-anchor="middle" x="150" y="-74.5" font-family="Helvetica,sans-Serif" font-size="10.00">/idf_onewire.h</text>
</a>
</g>
</g>
<!-- Node2 -->
<g id="node2" class="node">
<title>Node2</title>
<g id="a_node2"><a xlink:href="idf__onewire_8c.html" target="_top" xlink:title=" ">
<polygon fill="none" stroke="black" points="0,-0.5 0,-30.5 162,-30.5 162,-0.5 0,-0.5"/>
<text text-anchor="start" x="8" y="-18.5" font-family="Helvetica,sans-Serif" font-size="10.00">components/infrastructure</text>
<text text-anchor="middle" x="81" y="-7.5" font-family="Helvetica,sans-Serif" font-size="10.00">/idf_onewire/src/idf_onewire.c</text>
</a>
</g>
</g>
<!-- Node1&#45;&gt;Node2 -->
<g id="edge1" class="edge">
<title>Node1&#45;&gt;Node2</title>
<path fill="none" stroke="midnightblue" d="M123.59,-60.02C113.89,-50.11 103.29,-39.27 95.09,-30.89"/>
<polygon fill="midnightblue" stroke="midnightblue" points="121.28,-62.66 130.78,-67.36 126.29,-57.77 121.28,-62.66"/>
</g>
<!-- Node3 -->
<g id="node3" class="node">
<title>Node3</title>
<g id="a_node3"><a xlink:href="main_8c.html" target="_top" xlink:title=" ">
<polygon fill="none" stroke="black" points="180.5,-6 180.5,-25 257.5,-25 257.5,-6 180.5,-6"/>
<text text-anchor="middle" x="219" y="-13" font-family="Helvetica,sans-Serif" font-size="10.00">main/main.c</text>
</a>
</g>
</g>
<!-- Node1&#45;&gt;Node3 -->
<g id="edge2" class="edge">
<title>Node1&#45;&gt;Node3</title>
<path fill="none" stroke="midnightblue" d="M176.5,-59.92C188.58,-47.58 202.04,-33.83 210.51,-25.17"/>
<polygon fill="midnightblue" stroke="midnightblue" points="173.71,-57.77 169.22,-67.36 178.72,-62.66 173.71,-57.77"/>
</g>
</g>
</svg>
