<?xml version="1.0" encoding="UTF-8" standalone="no"?>
<!DOCTYPE svg PUBLIC "-//W3C//DTD SVG 1.1//EN"
 "http://www.w3.org/Graphics/SVG/1.1/DTD/svg11.dtd">
<!-- Generated by graphviz version 2.43.0 (0)
 -->
<!-- Title: components/infrastructure/idf_uart_port/include/infrastructure/idf_uart_port.h Pages: 1 -->
<svg width="190pt" height="218pt"
 viewBox="0.00 0.00 190.00 218.00" xmlns="http://www.w3.org/2000/svg" xmlns:xlink="http://www.w3.org/1999/xlink">
<g id="graph0" class="graph" transform="scale(1 1) rotate(0) translate(4 214)">
<title>components/infrastructure/idf_uart_port/include/infrastructure/idf_uart_port.h</title>
<!-- Node1 -->
<g id="node1" class="node">
<title>Node1</title>
<g id="a_node1"><a xlink:title=" ">
<polygon fill="#bfbfbf" stroke="black" points="4,-168.5 4,-209.5 164,-209.5 164,-168.5 4,-168.5"/>
<text text-anchor="start" x="12" y="-197.5" font-family="Helvetica,sans-Serif" font-size="10.00">components/infrastructure</text>
<text text-anchor="start" x="12" y="-186.5" font-family="Helvetica,sans-Serif" font-size="10.00">/idf_uart_port/include</text>
<text text-anchor="middle" x="84" y="-175.5" font-family="Helvetica,sans-Serif" font-size="10.00">/infrastructure/idf_uart_port.h</text>
</a>
</g>
</g>
<!-- Node2 -->
<g id="node2" class="node">
<title>Node2</title>
<g id="a_node2"><a xlink:href="uart__port_8h.html" target="_top" xlink:title=" ">
<polygon fill="none" stroke="black" points="35,-112.5 35,-131.5 133,-131.5 133,-112.5 35,-112.5"/>
<text text-anchor="middle" x="84" y="-119.5" font-family="Helvetica,sans-Serif" font-size="10.00">ports/uart_port.h</text>
</a>
</g>
</g>
<!-- Node1&#45;&gt;Node2 -->
<g id="edge1" class="edge">
<title>Node1&#45;&gt;Node2</title>
<path fill="none" stroke="midnightblue" d="M84,-168.5C84,-160.07 84,-150.24 84,-141.87"/>
<polygon fill="midnightblue" stroke="midnightblue" points="87.5,-141.65 84,-131.65 80.5,-141.65 87.5,-141.65"/>
</g>
<!-- Node3 -->
<g id="node3" class="node">
<title>Node3</title>
<g id="a_node3"><a xlink:title=" ">
<polygon fill="none" stroke="#bfbfbf" points="0,-56.5 0,-75.5 56,-75.5 56,-56.5 0,-56.5"/>
<text text-anchor="middle" x="28" y="-63.5" font-family="Helvetica,sans-Serif" font-size="10.00">stddef.h</text>
</a>
</g>
</g>
<!-- Node2&#45;&gt;Node3 -->
<g id="edge2" class="edge">
<title>Node2&#45;&gt;Node3</title>
<path fill="none" stroke="midnightblue" d="M75,-112.32C66.81,-104.42 54.49,-92.55 44.53,-82.94"/>
<polygon fill="midnightblue" stroke="midnightblue" points="46.79,-80.26 37.16,-75.83 41.93,-85.29 46.79,-80.26"/>
</g>
<!-- Node4 -->
<g id="node4" class="node">
<title>Node4</title>
<g id="a_node4"><a xlink:title=" ">
<polygon fill="none" stroke="#bfbfbf" points="88.5,-0.5 88.5,-19.5 141.5,-19.5 141.5,-0.5 88.5,-0.5"/>
<text text-anchor="middle" x="115" y="-7.5" font-family="Helvetica,sans-Serif" font-size="10.00">stdint.h</text>
</a>
</g>
</g>
<!-- Node2&#45;&gt;Node4 -->
<g id="edge3" class="edge">
<title>Node2&#45;&gt;Node4</title>
<path fill="none" stroke="midnightblue" d="M86.43,-112.37C91.46,-94.54 103.08,-53.3 109.85,-29.27"/>
<polygon fill="midnightblue" stroke="midnightblue" points="113.23,-30.17 112.58,-19.59 106.5,-28.27 113.23,-30.17"/>
</g>
<!-- Node5 -->
<g id="node5" class="node">
<title>Node5</title>
<g id="a_node5"><a xlink:href="status_8h.html" target="_top" xlink:title=" ">
<polygon fill="none" stroke="black" points="112,-56.5 112,-75.5 182,-75.5 182,-56.5 112,-56.5"/>
<text text-anchor="middle" x="147" y="-63.5" font-family="Helvetica,sans-Serif" font-size="10.00">ca/status.h</text>
</a>
</g>
</g>
<!-- Node2&#45;&gt;Node5 -->
<g id="edge4" class="edge">
<title>Node2&#45;&gt;Node5</title>
<path fill="none" stroke="midnightblue" d="M94.12,-112.32C103.53,-104.26 117.74,-92.08 129.07,-82.37"/>
<polygon fill="midnightblue" stroke="midnightblue" points="131.38,-85 136.69,-75.83 126.82,-79.68 131.38,-85"/>
</g>
<!-- Node5&#45;&gt;Node4 -->
<g id="edge5" class="edge">
<title>Node5&#45;&gt;Node4</title>
<path fill="none" stroke="midnightblue" d="M141.72,-56.08C137.29,-48.61 130.84,-37.72 125.38,-28.52"/>
<polygon fill="midnightblue" stroke="midnightblue" points="128.29,-26.57 120.19,-19.75 122.27,-30.14 128.29,-26.57"/>
</g>
</g>
</svg>
