<?xml version="1.0" encoding="UTF-8" standalone="no"?>
<!DOCTYPE svg PUBLIC "-//W3C//DTD SVG 1.1//EN"
 "http://www.w3.org/Graphics/SVG/1.1/DTD/svg11.dtd">
<!-- Generated by graphviz version 2.43.0 (0)
 -->
<!-- Title: components/infrastructure/idf_onewire/include/infrastructure/idf_onewire.h Pages: 1 -->
<svg width="258pt" height="218pt"
 viewBox="0.00 0.00 258.00 218.00" xmlns="http://www.w3.org/2000/svg" xmlns:xlink="http://www.w3.org/1999/xlink">
<g id="graph0" class="graph" transform="scale(1 1) rotate(0) translate(4 214)">
<title>components/infrastructure/idf_onewire/include/infrastructure/idf_onewire.h</title>
<!-- Node1 -->
<g id="node1" class="node">
<title>Node1</title>
<g id="a_node1"><a xlink:title=" ">
<polygon fill="#bfbfbf" stroke="black" points="0,-168.5 0,-209.5 184,-209.5 184,-168.5 0,-168.5"/>
<text text-anchor="start" x="8" y="-197.5" font-family="Helvetica,sans-Serif" font-size="10.00">components/infrastructure</text>
<text text-anchor="start" x="8" y="-186.5" font-family="Helvetica,sans-Serif" font-size="10.00">/idf_onewire/include/infrastructure</text>
<text text-anchor="middle" x="92" y="-175.5" font-family="Helvetica,sans-Serif" font-size="10.00">/idf_onewire.h</text>
</a>
</g>
</g>
<!-- Node2 -->
<g id="node2" class="node">
<title>Node2</title>
<g id="a_node2"><a xlink:href="onewire__port_8h.html" target="_top" xlink:title=" ">
<polygon fill="none" stroke="black" points="33.5,-112.5 33.5,-131.5 150.5,-131.5 150.5,-112.5 33.5,-112.5"/>
<text text-anchor="middle" x="92" y="-119.5" font-family="Helvetica,sans-Serif" font-size="10.00">ports/onewire_port.h</text>
</a>
</g>
</g>
<!-- Node1&#45;&gt;Node2 -->
<g id="edge1" class="edge">
<title>Node1&#45;&gt;Node2</title>
<path fill="none" stroke="midnightblue" d="M92,-168.5C92,-160.07 92,-150.24 92,-141.87"/>
<polygon fill="midnightblue" stroke="midnightblue" points="95.5,-141.65 92,-131.65 88.5,-141.65 95.5,-141.65"/>
</g>
<!-- Node3 -->
<g id="node3" class="node">
<title>Node3</title>
<g id="a_node3"><a xlink:title=" ">
<polygon fill="none" stroke="#bfbfbf" points="79.5,-0.5 79.5,-19.5 132.5,-19.5 132.5,-0.5 79.5,-0.5"/>
<text text-anchor="middle" x="106" y="-7.5" font-family="Helvetica,sans-Serif" font-size="10.00">stdint.h</text>
</a>
</g>
</g>
<!-- Node2&#45;&gt;Node3 -->
<g id="edge2" class="edge">
<title>Node2&#45;&gt;Node3</title>
<path fill="none" stroke="midnightblue" d="M67.1,-112.37C39.76,-101.43 1.66,-80.95 17,-56 28.51,-37.29 50.47,-26.07 69.7,-19.51"/>
<polygon fill="midnightblue" stroke="midnightblue" points="70.92,-22.8 79.44,-16.5 68.85,-16.11 70.92,-22.8"/>
</g>
<!-- Node4 -->
<g id="node4" class="node">
<title>Node4</title>
<g id="a_node4"><a xlink:title=" ">
<polygon fill="none" stroke="#bfbfbf" points="26,-56.5 26,-75.5 82,-75.5 82,-56.5 26,-56.5"/>
<text text-anchor="middle" x="54" y="-63.5" font-family="Helvetica,sans-Serif" font-size="10.00">stddef.h</text>
</a>
</g>
</g>
<!-- Node2&#45;&gt;Node4 -->
<g id="edge3" class="edge">
<title>Node2&#45;&gt;Node4</title>
<path fill="none" stroke="midnightblue" d="M85.73,-112.08C80.36,-104.46 72.48,-93.26 65.92,-83.94"/>
<polygon fill="midnightblue" stroke="midnightblue" points="68.78,-81.91 60.16,-75.75 63.05,-85.94 68.78,-81.91"/>
</g>
<!-- Node5 -->
<g id="node5" class="node">
<title>Node5</title>
<g id="a_node5"><a xlink:title=" ">
<polygon fill="none" stroke="#bfbfbf" points="100,-56.5 100,-75.5 162,-75.5 162,-56.5 100,-56.5"/>
<text text-anchor="middle" x="131" y="-63.5" font-family="Helvetica,sans-Serif" font-size="10.00">stdbool.h</text>
</a>
</g>
</g>
<!-- Node2&#45;&gt;Node5 -->
<g id="edge4" class="edge">
<title>Node2&#45;&gt;Node5</title>
<path fill="none" stroke="midnightblue" d="M98.44,-112.08C103.95,-104.46 112.03,-93.26 118.76,-83.94"/>
<polygon fill="midnightblue" stroke="midnightblue" points="121.66,-85.91 124.68,-75.75 115.99,-81.81 121.66,-85.91"/>
</g>
<!-- Node6 -->
<g id="node6" class="node">
<title>Node6</title>
<g id="a_node6"><a xlink:href="status_8h.html" target="_top" xlink:title=" ">
<polygon fill="none" stroke="black" points="180,-56.5 180,-75.5 250,-75.5 250,-56.5 180,-56.5"/>
<text text-anchor="middle" x="215" y="-63.5" font-family="Helvetica,sans-Serif" font-size="10.00">ca/status.h</text>
</a>
</g>
</g>
<!-- Node2&#45;&gt;Node6 -->
<g id="edge5" class="edge">
<title>Node2&#45;&gt;Node6</title>
<path fill="none" stroke="midnightblue" d="M111.49,-112.44C131.64,-103.6 163.32,-89.69 186.33,-79.59"/>
<polygon fill="midnightblue" stroke="midnightblue" points="187.85,-82.74 195.6,-75.52 185.04,-76.33 187.85,-82.74"/>
</g>
<!-- Node6&#45;&gt;Node3 -->
<g id="edge6" class="edge">
<title>Node6&#45;&gt;Node3</title>
<path fill="none" stroke="midnightblue" d="M197.49,-56.32C179.93,-47.62 152.67,-34.12 132.47,-24.11"/>
<polygon fill="midnightblue" stroke="midnightblue" points="133.98,-20.96 123.47,-19.65 130.88,-27.23 133.98,-20.96"/>
</g>
</g>
</svg>
