<?xml version="1.0" encoding="UTF-8" standalone="no"?>
<!DOCTYPE svg PUBLIC "-//W3C//DTD SVG 1.1//EN"
 "http://www.w3.org/Graphics/SVG/1.1/DTD/svg11.dtd">
<!-- Generated by graphviz version 2.43.0 (0)
 -->
<!-- Title: components/infrastructure/idf_i2c_service/src/idf_i2c_service.c Pages: 1 -->
<svg width="754pt" height="285pt"
 viewBox="0.00 0.00 753.50 285.00" xmlns="http://www.w3.org/2000/svg" xmlns:xlink="http://www.w3.org/1999/xlink">
<g id="graph0" class="graph" transform="scale(1 1) rotate(0) translate(4 281)">
<title>components/infrastructure/idf_i2c_service/src/idf_i2c_service.c</title>
<!-- Node1 -->
<g id="node1" class="node">
<title>Node1</title>
<g id="a_node1"><a xlink:title=" ">
<polygon fill="#bfbfbf" stroke="black" points="376,-235.5 376,-276.5 522,-276.5 522,-235.5 376,-235.5"/>
<text text-anchor="start" x="384" y="-264.5" font-family="Helvetica,sans-Serif" font-size="10.00">components/infrastructure</text>
<text text-anchor="start" x="384" y="-253.5" font-family="Helvetica,sans-Serif" font-size="10.00">/idf_i2c_service/src/idf</text>
<text text-anchor="middle" x="449" y="-242.5" font-family="Helvetica,sans-Serif" font-size="10.00">_i2c_service.c</text>
</a>
</g>
</g>
<!-- Node2 -->
<g id="node2" class="node">
<title>Node2</title>
<g id="a_node2"><a xlink:href="idf__i2c__service_8h.html" target="_top" xlink:title=" ">
<polygon fill="none" stroke="black" points="64,-168.5 64,-198.5 162,-198.5 162,-168.5 64,-168.5"/>
<text text-anchor="start" x="72" y="-186.5" font-family="Helvetica,sans-Serif" font-size="10.00">infrastructure/idf</text>
<text text-anchor="middle" x="113" y="-175.5" font-family="Helvetica,sans-Serif" font-size="10.00">_i2c_service.h</text>
</a>
</g>
</g>
<!-- Node1&#45;&gt;Node2 -->
<g id="edge1" class="edge">
<title>Node1&#45;&gt;Node2</title>
<path fill="none" stroke="midnightblue" d="M375.92,-241.09C319.97,-230.22 240.94,-214.43 172,-199 171.9,-198.98 171.8,-198.96 171.7,-198.93"/>
<polygon fill="midnightblue" stroke="midnightblue" points="172.75,-195.58 162.22,-196.76 171.18,-202.41 172.75,-195.58"/>
</g>
<!-- Node8 -->
<g id="node8" class="node">
<title>Node8</title>
<g id="a_node8"><a xlink:title=" ">
<polygon fill="none" stroke="#bfbfbf" points="180.5,-174 180.5,-193 251.5,-193 251.5,-174 180.5,-174"/>
<text text-anchor="middle" x="216" y="-181" font-family="Helvetica,sans-Serif" font-size="10.00">driver/i2c.h</text>
</a>
</g>
</g>
<!-- Node1&#45;&gt;Node8 -->
<g id="edge8" class="edge">
<title>Node1&#45;&gt;Node8</title>
<path fill="none" stroke="midnightblue" d="M381.89,-235.4C345.97,-224.82 301.01,-211.4 261,-199 258.04,-198.08 254.97,-197.12 251.89,-196.14"/>
<polygon fill="midnightblue" stroke="midnightblue" points="252.73,-192.74 242.14,-193.03 250.61,-199.41 252.73,-192.74"/>
</g>
<!-- Node9 -->
<g id="node9" class="node">
<title>Node9</title>
<g id="a_node9"><a xlink:title=" ">
<polygon fill="none" stroke="#bfbfbf" points="269.5,-174 269.5,-193 382.5,-193 382.5,-174 269.5,-174"/>
<text text-anchor="middle" x="326" y="-181" font-family="Helvetica,sans-Serif" font-size="10.00">freertos/FreeRTOS.h</text>
</a>
</g>
</g>
<!-- Node1&#45;&gt;Node9 -->
<g id="edge9" class="edge">
<title>Node1&#45;&gt;Node9</title>
<path fill="none" stroke="midnightblue" d="M414.74,-235.36C394.16,-223.57 368.48,-208.85 350.04,-198.28"/>
<polygon fill="midnightblue" stroke="midnightblue" points="351.55,-195.11 341.13,-193.17 348.07,-201.18 351.55,-195.11"/>
</g>
<!-- Node10 -->
<g id="node10" class="node">
<title>Node10</title>
<g id="a_node10"><a xlink:title=" ">
<polygon fill="none" stroke="#bfbfbf" points="400.5,-174 400.5,-193 497.5,-193 497.5,-174 400.5,-174"/>
<text text-anchor="middle" x="449" y="-181" font-family="Helvetica,sans-Serif" font-size="10.00">freertos/queue.h</text>
</a>
</g>
</g>
<!-- Node1&#45;&gt;Node10 -->
<g id="edge10" class="edge">
<title>Node1&#45;&gt;Node10</title>
<path fill="none" stroke="midnightblue" d="M449,-235.36C449,-225.3 449,-213.1 449,-203.18"/>
<polygon fill="midnightblue" stroke="midnightblue" points="452.5,-203.17 449,-193.17 445.5,-203.17 452.5,-203.17"/>
</g>
<!-- Node11 -->
<g id="node11" class="node">
<title>Node11</title>
<g id="a_node11"><a xlink:title=" ">
<polygon fill="none" stroke="#bfbfbf" points="516,-174 516,-193 604,-193 604,-174 516,-174"/>
<text text-anchor="middle" x="560" y="-181" font-family="Helvetica,sans-Serif" font-size="10.00">freertos/task.h</text>
</a>
</g>
</g>
<!-- Node1&#45;&gt;Node11 -->
<g id="edge11" class="edge">
<title>Node1&#45;&gt;Node11</title>
<path fill="none" stroke="midnightblue" d="M479.92,-235.36C498.32,-223.67 521.24,-209.12 537.84,-198.57"/>
<polygon fill="midnightblue" stroke="midnightblue" points="539.78,-201.49 546.34,-193.17 536.03,-195.58 539.78,-201.49"/>
</g>
<!-- Node12 -->
<g id="node12" class="node">
<title>Node12</title>
<g id="a_node12"><a xlink:title=" ">
<polygon fill="none" stroke="#bfbfbf" points="621.5,-174 621.5,-193 674.5,-193 674.5,-174 621.5,-174"/>
<text text-anchor="middle" x="648" y="-181" font-family="Helvetica,sans-Serif" font-size="10.00">string.h</text>
</a>
</g>
</g>
<!-- Node1&#45;&gt;Node12 -->
<g id="edge12" class="edge">
<title>Node1&#45;&gt;Node12</title>
<path fill="none" stroke="midnightblue" d="M509.31,-235.43C540.44,-225.07 578.94,-211.86 613,-199 614.85,-198.3 616.74,-197.57 618.65,-196.82"/>
<polygon fill="midnightblue" stroke="midnightblue" points="620.14,-199.99 628.1,-193 617.51,-193.5 620.14,-199.99"/>
</g>
<!-- Node13 -->
<g id="node13" class="node">
<title>Node13</title>
<g id="a_node13"><a xlink:title=" ">
<polygon fill="none" stroke="#bfbfbf" points="692.5,-174 692.5,-193 745.5,-193 745.5,-174 692.5,-174"/>
<text text-anchor="middle" x="719" y="-181" font-family="Helvetica,sans-Serif" font-size="10.00">stdlib.h</text>
</a>
</g>
</g>
<!-- Node1&#45;&gt;Node13 -->
<g id="edge13" class="edge">
<title>Node1&#45;&gt;Node13</title>
<path fill="none" stroke="midnightblue" d="M522.08,-240.71C568.89,-230.8 630.64,-216.29 684,-199 686.14,-198.31 688.32,-197.54 690.51,-196.74"/>
<polygon fill="midnightblue" stroke="midnightblue" points="691.92,-199.94 699.95,-193.03 689.36,-193.43 691.92,-199.94"/>
</g>
<!-- Node3 -->
<g id="node3" class="node">
<title>Node3</title>
<g id="a_node3"><a xlink:href="i2c__async__port_8h.html" target="_top" xlink:title=" ">
<polygon fill="none" stroke="black" points="50,-112.5 50,-131.5 176,-131.5 176,-112.5 50,-112.5"/>
<text text-anchor="middle" x="113" y="-119.5" font-family="Helvetica,sans-Serif" font-size="10.00">ports/i2c_async_port.h</text>
</a>
</g>
</g>
<!-- Node2&#45;&gt;Node3 -->
<g id="edge2" class="edge">
<title>Node2&#45;&gt;Node3</title>
<path fill="none" stroke="midnightblue" d="M113,-168.4C113,-160.47 113,-150.46 113,-141.86"/>
<polygon fill="midnightblue" stroke="midnightblue" points="116.5,-141.66 113,-131.66 109.5,-141.66 116.5,-141.66"/>
</g>
<!-- Node4 -->
<g id="node4" class="node">
<title>Node4</title>
<g id="a_node4"><a xlink:title=" ">
<polygon fill="none" stroke="#bfbfbf" points="0,-56.5 0,-75.5 56,-75.5 56,-56.5 0,-56.5"/>
<text text-anchor="middle" x="28" y="-63.5" font-family="Helvetica,sans-Serif" font-size="10.00">stddef.h</text>
</a>
</g>
</g>
<!-- Node3&#45;&gt;Node4 -->
<g id="edge3" class="edge">
<title>Node3&#45;&gt;Node4</title>
<path fill="none" stroke="midnightblue" d="M99.34,-112.32C86.08,-103.9 65.73,-90.97 50.15,-81.07"/>
<polygon fill="midnightblue" stroke="midnightblue" points="51.94,-78.06 41.62,-75.65 48.19,-83.97 51.94,-78.06"/>
</g>
<!-- Node5 -->
<g id="node5" class="node">
<title>Node5</title>
<g id="a_node5"><a xlink:title=" ">
<polygon fill="none" stroke="#bfbfbf" points="128.5,-0.5 128.5,-19.5 181.5,-19.5 181.5,-0.5 128.5,-0.5"/>
<text text-anchor="middle" x="155" y="-7.5" font-family="Helvetica,sans-Serif" font-size="10.00">stdint.h</text>
</a>
</g>
</g>
<!-- Node3&#45;&gt;Node5 -->
<g id="edge4" class="edge">
<title>Node3&#45;&gt;Node5</title>
<path fill="none" stroke="midnightblue" d="M108.62,-112.16C102.87,-99.23 94.46,-74.69 103,-56 108.78,-43.36 120.05,-32.91 130.63,-25.27"/>
<polygon fill="midnightblue" stroke="midnightblue" points="132.85,-28 139.22,-19.53 128.96,-22.18 132.85,-28"/>
</g>
<!-- Node6 -->
<g id="node6" class="node">
<title>Node6</title>
<g id="a_node6"><a xlink:title=" ">
<polygon fill="none" stroke="#bfbfbf" points="112,-56.5 112,-75.5 174,-75.5 174,-56.5 112,-56.5"/>
<text text-anchor="middle" x="143" y="-63.5" font-family="Helvetica,sans-Serif" font-size="10.00">stdbool.h</text>
</a>
</g>
</g>
<!-- Node3&#45;&gt;Node6 -->
<g id="edge5" class="edge">
<title>Node3&#45;&gt;Node6</title>
<path fill="none" stroke="midnightblue" d="M117.95,-112.08C122.1,-104.61 128.15,-93.72 133.27,-84.52"/>
<polygon fill="midnightblue" stroke="midnightblue" points="136.34,-86.19 138.14,-75.75 130.22,-82.79 136.34,-86.19"/>
</g>
<!-- Node7 -->
<g id="node7" class="node">
<title>Node7</title>
<g id="a_node7"><a xlink:href="status_8h.html" target="_top" xlink:title=" ">
<polygon fill="none" stroke="black" points="192,-56.5 192,-75.5 262,-75.5 262,-56.5 192,-56.5"/>
<text text-anchor="middle" x="227" y="-63.5" font-family="Helvetica,sans-Serif" font-size="10.00">ca/status.h</text>
</a>
</g>
</g>
<!-- Node3&#45;&gt;Node7 -->
<g id="edge6" class="edge">
<title>Node3&#45;&gt;Node7</title>
<path fill="none" stroke="midnightblue" d="M131.06,-112.44C149.57,-103.68 178.58,-89.94 199.86,-79.86"/>
<polygon fill="midnightblue" stroke="midnightblue" points="201.48,-82.96 209.02,-75.52 198.49,-76.63 201.48,-82.96"/>
</g>
<!-- Node7&#45;&gt;Node5 -->
<g id="edge7" class="edge">
<title>Node7&#45;&gt;Node5</title>
<path fill="none" stroke="midnightblue" d="M215.43,-56.32C204.58,-48.18 188.12,-35.84 175.12,-26.09"/>
<polygon fill="midnightblue" stroke="midnightblue" points="176.88,-23.03 166.78,-19.83 172.68,-28.63 176.88,-23.03"/>
</g>
</g>
</svg>
