<?xml version="1.0" encoding="UTF-8" standalone="no"?>
<!DOCTYPE svg PUBLIC "-//W3C//DTD SVG 1.1//EN"
 "http://www.w3.org/Graphics/SVG/1.1/DTD/svg11.dtd">
<!-- Generated by graphviz version 2.43.0 (0)
 -->
<!-- Title: components/infrastructure/idf_time_port/src/idf_time_port.c Pages: 1 -->
<svg width="438pt" height="229pt"
 viewBox="0.00 0.00 437.50 229.00" xmlns="http://www.w3.org/2000/svg" xmlns:xlink="http://www.w3.org/1999/xlink">
<g id="graph0" class="graph" transform="scale(1 1) rotate(0) translate(4 225)">
<title>components/infrastructure/idf_time_port/src/idf_time_port.c</title>
<!-- Node1 -->
<g id="node1" class="node">
<title>Node1</title>
<g id="a_node1"><a xlink:title=" ">
<polygon fill="#bfbfbf" stroke="black" points="160.5,-179.5 160.5,-220.5 306.5,-220.5 306.5,-179.5 160.5,-179.5"/>
<text text-anchor="start" x="168.5" y="-208.5" font-family="Helvetica,sans-Serif" font-size="10.00">components/infrastructure</text>
<text text-anchor="start" x="168.5" y="-197.5" font-family="Helvetica,sans-Serif" font-size="10.00">/idf_time_port/src/idf</text>
<text text-anchor="middle" x="233.5" y="-186.5" font-family="Helvetica,sans-Serif" font-size="10.00">_time_port.c</text>
</a>
</g>
</g>
<!-- Node2 -->
<g id="node2" class="node">
<title>Node2</title>
<g id="a_node2"><a xlink:href="idf__time__port_8h.html" target="_top" xlink:title=" ">
<polygon fill="none" stroke="black" points="1.5,-112.5 1.5,-142.5 99.5,-142.5 99.5,-112.5 1.5,-112.5"/>
<text text-anchor="start" x="9.5" y="-130.5" font-family="Helvetica,sans-Serif" font-size="10.00">infrastructure/idf</text>
<text text-anchor="middle" x="50.5" y="-119.5" font-family="Helvetica,sans-Serif" font-size="10.00">_time_port.h</text>
</a>
</g>
</g>
<!-- Node1&#45;&gt;Node2 -->
<g id="edge1" class="edge">
<title>Node1&#45;&gt;Node2</title>
<path fill="none" stroke="midnightblue" d="M182.52,-179.36C155.61,-168.99 122.83,-156.37 96.67,-146.29"/>
<polygon fill="midnightblue" stroke="midnightblue" points="97.58,-142.89 87,-142.56 95.07,-149.42 97.58,-142.89"/>
</g>
<!-- Node5 -->
<g id="node5" class="node">
<title>Node5</title>
<g id="a_node5"><a xlink:title=" ">
<polygon fill="none" stroke="#bfbfbf" points="118,-118 118,-137 231,-137 231,-118 118,-118"/>
<text text-anchor="middle" x="174.5" y="-125" font-family="Helvetica,sans-Serif" font-size="10.00">freertos/FreeRTOS.h</text>
</a>
</g>
</g>
<!-- Node1&#45;&gt;Node5 -->
<g id="edge4" class="edge">
<title>Node1&#45;&gt;Node5</title>
<path fill="none" stroke="midnightblue" d="M217.07,-179.36C208.01,-168.54 196.89,-155.26 188.29,-144.98"/>
<polygon fill="midnightblue" stroke="midnightblue" points="190.86,-142.6 181.76,-137.17 185.49,-147.09 190.86,-142.6"/>
</g>
<!-- Node6 -->
<g id="node6" class="node">
<title>Node6</title>
<g id="a_node6"><a xlink:title=" ">
<polygon fill="none" stroke="#bfbfbf" points="249.5,-118 249.5,-137 337.5,-137 337.5,-118 249.5,-118"/>
<text text-anchor="middle" x="293.5" y="-125" font-family="Helvetica,sans-Serif" font-size="10.00">freertos/task.h</text>
</a>
</g>
</g>
<!-- Node1&#45;&gt;Node6 -->
<g id="edge5" class="edge">
<title>Node1&#45;&gt;Node6</title>
<path fill="none" stroke="midnightblue" d="M250.21,-179.36C259.42,-168.54 270.73,-155.26 279.47,-144.98"/>
<polygon fill="midnightblue" stroke="midnightblue" points="282.3,-147.06 286.12,-137.17 276.97,-142.52 282.3,-147.06"/>
</g>
<!-- Node7 -->
<g id="node7" class="node">
<title>Node7</title>
<g id="a_node7"><a xlink:title=" ">
<polygon fill="none" stroke="#bfbfbf" points="355.5,-118 355.5,-137 429.5,-137 429.5,-118 355.5,-118"/>
<text text-anchor="middle" x="392.5" y="-125" font-family="Helvetica,sans-Serif" font-size="10.00">esp_timer.h</text>
</a>
</g>
</g>
<!-- Node1&#45;&gt;Node7 -->
<g id="edge6" class="edge">
<title>Node1&#45;&gt;Node7</title>
<path fill="none" stroke="midnightblue" d="M277.79,-179.36C305.25,-167.19 339.73,-151.9 363.68,-141.28"/>
<polygon fill="midnightblue" stroke="midnightblue" points="365.22,-144.43 372.94,-137.17 362.38,-138.03 365.22,-144.43"/>
</g>
<!-- Node3 -->
<g id="node3" class="node">
<title>Node3</title>
<g id="a_node3"><a xlink:href="time__port_8h.html" target="_top" xlink:title=" ">
<polygon fill="none" stroke="black" points="0,-56.5 0,-75.5 101,-75.5 101,-56.5 0,-56.5"/>
<text text-anchor="middle" x="50.5" y="-63.5" font-family="Helvetica,sans-Serif" font-size="10.00">ports/time_port.h</text>
</a>
</g>
</g>
<!-- Node2&#45;&gt;Node3 -->
<g id="edge2" class="edge">
<title>Node2&#45;&gt;Node3</title>
<path fill="none" stroke="midnightblue" d="M50.5,-112.4C50.5,-104.47 50.5,-94.46 50.5,-85.86"/>
<polygon fill="midnightblue" stroke="midnightblue" points="54,-85.66 50.5,-75.66 47,-85.66 54,-85.66"/>
</g>
<!-- Node4 -->
<g id="node4" class="node">
<title>Node4</title>
<g id="a_node4"><a xlink:title=" ">
<polygon fill="none" stroke="#bfbfbf" points="24,-0.5 24,-19.5 77,-19.5 77,-0.5 24,-0.5"/>
<text text-anchor="middle" x="50.5" y="-7.5" font-family="Helvetica,sans-Serif" font-size="10.00">stdint.h</text>
</a>
</g>
</g>
<!-- Node3&#45;&gt;Node4 -->
<g id="edge3" class="edge">
<title>Node3&#45;&gt;Node4</title>
<path fill="none" stroke="midnightblue" d="M50.5,-56.08C50.5,-49.01 50.5,-38.86 50.5,-29.99"/>
<polygon fill="midnightblue" stroke="midnightblue" points="54,-29.75 50.5,-19.75 47,-29.75 54,-29.75"/>
</g>
</g>
</svg>
