<?xml version="1.0" encoding="UTF-8" standalone="no"?>
<!DOCTYPE svg PUBLIC "-//W3C//DTD SVG 1.1//EN"
 "http://www.w3.org/Graphics/SVG/1.1/DTD/svg11.dtd">
<!-- Generated by graphviz version 2.43.0 (0)
 -->
<!-- Title: components/infrastructure/idf_uart_port/include/infrastructure/idf_uart_port.h Pages: 1 -->
<svg width="250pt" height="128pt"
 viewBox="0.00 0.00 249.50 128.00" xmlns="http://www.w3.org/2000/svg" xmlns:xlink="http://www.w3.org/1999/xlink">
<g id="graph0" class="graph" transform="scale(1 1) rotate(0) translate(4 124)">
<title>components/infrastructure/idf_uart_port/include/infrastructure/idf_uart_port.h</title>
<!-- Node1 -->
<g id="node1" class="node">
<title>Node1</title>
<g id="a_node1"><a xlink:title=" ">
<polygon fill="#bfbfbf" stroke="black" points="58,-78.5 58,-119.5 218,-119.5 218,-78.5 58,-78.5"/>
<text text-anchor="start" x="66" y="-107.5" font-family="Helvetica,sans-Serif" font-size="10.00">components/infrastructure</text>
<text text-anchor="start" x="66" y="-96.5" font-family="Helvetica,sans-Serif" font-size="10.00">/idf_uart_port/include</text>
<text text-anchor="middle" x="138" y="-85.5" font-family="Helvetica,sans-Serif" font-size="10.00">/infrastructure/idf_uart_port.h</text>
</a>
</g>
</g>
<!-- Node2 -->
<g id="node2" class="node">
<title>Node2</title>
<g id="a_node2"><a xlink:href="idf__uart__port_8c.html" target="_top" xlink:title=" ">
<polygon fill="none" stroke="black" points="0,-0.5 0,-41.5 146,-41.5 146,-0.5 0,-0.5"/>
<text text-anchor="start" x="8" y="-29.5" font-family="Helvetica,sans-Serif" font-size="10.00">components/infrastructure</text>
<text text-anchor="start" x="8" y="-18.5" font-family="Helvetica,sans-Serif" font-size="10.00">/idf_uart_port/src/idf</text>
<text text-anchor="middle" x="73" y="-7.5" font-family="Helvetica,sans-Serif" font-size="10.00">_uart_port.c</text>
</a>
</g>
</g>
<!-- Node1&#45;&gt;Node2 -->
<g id="edge1" class="edge">
<title>Node1&#45;&gt;Node2</title>
<path fill="none" stroke="midnightblue" d="M114.59,-70.63C106.35,-60.99 97.26,-50.36 89.68,-41.51"/>
<polygon fill="midnightblue" stroke="midnightblue" points="112.1,-73.1 121.26,-78.43 117.42,-68.55 112.1,-73.1"/>
</g>
<!-- Node3 -->
<g id="node3" class="node">
<title>Node3</title>
<g id="a_node3"><a xlink:href="main_8c.html" target="_top" xlink:title=" ">
<polygon fill="none" stroke="black" points="164.5,-11.5 164.5,-30.5 241.5,-30.5 241.5,-11.5 164.5,-11.5"/>
<text text-anchor="middle" x="203" y="-18.5" font-family="Helvetica,sans-Serif" font-size="10.00">main/main.c</text>
</a>
</g>
</g>
<!-- Node1&#45;&gt;Node3 -->
<g id="edge2" class="edge">
<title>Node1&#45;&gt;Node3</title>
<path fill="none" stroke="midnightblue" d="M161.57,-70.44C173.62,-56.35 187.44,-40.19 195.69,-30.55"/>
<polygon fill="midnightblue" stroke="midnightblue" points="158.58,-68.55 154.74,-78.43 163.9,-73.1 158.58,-68.55"/>
</g>
</g>
</svg>
