<?xml version="1.0" encoding="UTF-8" standalone="no"?>
<!DOCTYPE svg PUBLIC "-//W3C//DTD SVG 1.1//EN"
 "http://www.w3.org/Graphics/SVG/1.1/DTD/svg11.dtd">
<!-- Generated by graphviz version 2.43.0 (0)
 -->
<!-- Title: components/drivers/lcd1602/include/drivers/lcd1602_fb.h Pages: 1 -->
<svg width="244pt" height="117pt"
 viewBox="0.00 0.00 243.50 117.00" xmlns="http://www.w3.org/2000/svg" xmlns:xlink="http://www.w3.org/1999/xlink">
<g id="graph0" class="graph" transform="scale(1 1) rotate(0) translate(4 113)">
<title>components/drivers/lcd1602/include/drivers/lcd1602_fb.h</title>
<!-- Node1 -->
<g id="node1" class="node">
<title>Node1</title>
<g id="a_node1"><a xlink:title=" ">
<polygon fill="#bfbfbf" stroke="black" points="66.5,-67.5 66.5,-108.5 199.5,-108.5 199.5,-67.5 66.5,-67.5"/>
<text text-anchor="start" x="74.5" y="-96.5" font-family="Helvetica,sans-Serif" font-size="10.00">components/drivers</text>
<text text-anchor="start" x="74.5" y="-85.5" font-family="Helvetica,sans-Serif" font-size="10.00">/lcd1602/include/drivers</text>
<text text-anchor="middle" x="133" y="-74.5" font-family="Helvetica,sans-Serif" font-size="10.00">/lcd1602_fb.h</text>
</a>
</g>
</g>
<!-- Node2 -->
<g id="node2" class="node">
<title>Node2</title>
<g id="a_node2"><a xlink:href="lcd1602__fb_8c.html" target="_top" xlink:title=" ">
<polygon fill="none" stroke="black" points="0,-0.5 0,-30.5 140,-30.5 140,-0.5 0,-0.5"/>
<text text-anchor="start" x="8" y="-18.5" font-family="Helvetica,sans-Serif" font-size="10.00">components/drivers</text>
<text text-anchor="middle" x="70" y="-7.5" font-family="Helvetica,sans-Serif" font-size="10.00">/lcd1602/src/lcd1602_fb.c</text>
</a>
</g>
</g>
<!-- Node1&#45;&gt;Node2 -->
<g id="edge1" class="edge">
<title>Node1&#45;&gt;Node2</title>
<path fill="none" stroke="midnightblue" d="M108.63,-59.73C99.84,-49.89 90.28,-39.19 82.86,-30.89"/>
<polygon fill="midnightblue" stroke="midnightblue" points="106.18,-62.24 115.45,-67.36 111.4,-57.57 106.18,-62.24"/>
</g>
<!-- Node3 -->
<g id="node3" class="node">
<title>Node3</title>
<g id="a_node3"><a xlink:href="main_8c.html" target="_top" xlink:title=" ">
<polygon fill="none" stroke="black" points="158.5,-6 158.5,-25 235.5,-25 235.5,-6 158.5,-6"/>
<text text-anchor="middle" x="197" y="-13" font-family="Helvetica,sans-Serif" font-size="10.00">main/main.c</text>
</a>
</g>
</g>
<!-- Node1&#45;&gt;Node3 -->
<g id="edge2" class="edge">
<title>Node1&#45;&gt;Node3</title>
<path fill="none" stroke="midnightblue" d="M157.58,-59.92C168.78,-47.58 181.27,-33.83 189.13,-25.17"/>
<polygon fill="midnightblue" stroke="midnightblue" points="154.96,-57.61 150.83,-67.36 160.14,-62.31 154.96,-57.61"/>
</g>
</g>
</svg>
