<?xml version="1.0" encoding="UTF-8" standalone="no"?>
<!DOCTYPE svg PUBLIC "-//W3C//DTD SVG 1.1//EN"
 "http://www.w3.org/Graphics/SVG/1.1/DTD/svg11.dtd">
<!-- Generated by graphviz version 2.43.0 (0)
 -->
<!-- Title: components/drivers/lcd1602/src/lcd1602_fb.c Pages: 1 -->
<svg width="462pt" height="319pt"
 viewBox="0.00 0.00 462.04 319.00" xmlns="http://www.w3.org/2000/svg" xmlns:xlink="http://www.w3.org/1999/xlink">
<g id="graph0" class="graph" transform="scale(1 1) rotate(0) translate(4 315)">
<title>components/drivers/lcd1602/src/lcd1602_fb.c</title>
<!-- Node1 -->
<g id="node1" class="node">
<title>Node1</title>
<g id="a_node1"><a xlink:title=" ">
<polygon fill="#bfbfbf" stroke="black" points="305.54,-280.5 305.54,-310.5 445.54,-310.5 445.54,-280.5 305.54,-280.5"/>
<text text-anchor="start" x="313.54" y="-298.5" font-family="Helvetica,sans-Serif" font-size="10.00">components/drivers</text>
<text text-anchor="middle" x="375.54" y="-287.5" font-family="Helvetica,sans-Serif" font-size="10.00">/lcd1602/src/lcd1602_fb.c</text>
</a>
</g>
</g>
<!-- Node2 -->
<g id="node2" class="node">
<title>Node2</title>
<g id="a_node2"><a xlink:href="lcd1602__fb_8h.html" target="_top" xlink:title=" ">
<polygon fill="none" stroke="black" points="266.54,-224.5 266.54,-243.5 382.54,-243.5 382.54,-224.5 266.54,-224.5"/>
<text text-anchor="middle" x="324.54" y="-231.5" font-family="Helvetica,sans-Serif" font-size="10.00">drivers/lcd1602_fb.h</text>
</a>
</g>
</g>
<!-- Node1&#45;&gt;Node2 -->
<g id="edge1" class="edge">
<title>Node1&#45;&gt;Node2</title>
<path fill="none" stroke="midnightblue" d="M363.46,-280.4C355.97,-271.66 346.32,-260.41 338.51,-251.3"/>
<polygon fill="midnightblue" stroke="midnightblue" points="341.13,-248.97 331.96,-243.66 335.81,-253.53 341.13,-248.97"/>
</g>
<!-- Node10 -->
<g id="node10" class="node">
<title>Node10</title>
<g id="a_node10"><a xlink:title=" ">
<polygon fill="none" stroke="#bfbfbf" points="401.04,-224.5 401.04,-243.5 454.04,-243.5 454.04,-224.5 401.04,-224.5"/>
<text text-anchor="middle" x="427.54" y="-231.5" font-family="Helvetica,sans-Serif" font-size="10.00">string.h</text>
</a>
</g>
</g>
<!-- Node1&#45;&gt;Node10 -->
<g id="edge15" class="edge">
<title>Node1&#45;&gt;Node10</title>
<path fill="none" stroke="midnightblue" d="M387.87,-280.4C395.5,-271.66 405.33,-260.41 413.3,-251.3"/>
<polygon fill="midnightblue" stroke="midnightblue" points="416.03,-253.49 419.98,-243.66 410.76,-248.88 416.03,-253.49"/>
</g>
<!-- Node3 -->
<g id="node3" class="node">
<title>Node3</title>
<g id="a_node3"><a xlink:title=" ">
<polygon fill="none" stroke="#bfbfbf" points="210.04,-0.5 210.04,-19.5 263.04,-19.5 263.04,-0.5 210.04,-0.5"/>
<text text-anchor="middle" x="236.54" y="-7.5" font-family="Helvetica,sans-Serif" font-size="10.00">stdint.h</text>
</a>
</g>
</g>
<!-- Node2&#45;&gt;Node3 -->
<g id="edge2" class="edge">
<title>Node2&#45;&gt;Node3</title>
<path fill="none" stroke="midnightblue" d="M329.05,-224.34C342.63,-196.95 379.97,-110.83 343.54,-56 328.03,-32.65 297.78,-21.39 273.38,-15.97"/>
<polygon fill="midnightblue" stroke="midnightblue" points="273.84,-12.49 263.35,-13.99 272.48,-19.36 273.84,-12.49"/>
</g>
<!-- Node4 -->
<g id="node4" class="node">
<title>Node4</title>
<g id="a_node4"><a xlink:href="lcd1602__dev_8h.html" target="_top" xlink:title=" ">
<polygon fill="none" stroke="black" points="134.04,-168.5 134.04,-187.5 257.04,-187.5 257.04,-168.5 134.04,-168.5"/>
<text text-anchor="middle" x="195.54" y="-175.5" font-family="Helvetica,sans-Serif" font-size="10.00">drivers/lcd1602_dev.h</text>
</a>
</g>
</g>
<!-- Node2&#45;&gt;Node4 -->
<g id="edge3" class="edge">
<title>Node2&#45;&gt;Node4</title>
<path fill="none" stroke="midnightblue" d="M304.1,-224.44C282.87,-215.56 249.44,-201.56 225.29,-191.45"/>
<polygon fill="midnightblue" stroke="midnightblue" points="226.46,-188.15 215.89,-187.52 223.76,-194.61 226.46,-188.15"/>
</g>
<!-- Node8 -->
<g id="node8" class="node">
<title>Node8</title>
<g id="a_node8"><a xlink:href="status_8h.html" target="_top" xlink:title=" ">
<polygon fill="none" stroke="black" points="264.54,-56.5 264.54,-75.5 334.54,-75.5 334.54,-56.5 264.54,-56.5"/>
<text text-anchor="middle" x="299.54" y="-63.5" font-family="Helvetica,sans-Serif" font-size="10.00">ca/status.h</text>
</a>
</g>
</g>
<!-- Node2&#45;&gt;Node8 -->
<g id="edge14" class="edge">
<title>Node2&#45;&gt;Node8</title>
<path fill="none" stroke="midnightblue" d="M323.2,-224.08C319.26,-197.95 307.71,-121.21 302.34,-85.58"/>
<polygon fill="midnightblue" stroke="midnightblue" points="305.78,-84.94 300.83,-75.57 298.86,-85.98 305.78,-84.94"/>
</g>
<!-- Node4&#45;&gt;Node3 -->
<g id="edge4" class="edge">
<title>Node4&#45;&gt;Node3</title>
<path fill="none" stroke="midnightblue" d="M133.74,-170.79C83.94,-164.35 19.65,-152.32 3.54,-132 -1.98,-125.03 0.42,-120.32 3.54,-112 32.3,-35.46 141.67,-16.81 199.77,-12.35"/>
<polygon fill="midnightblue" stroke="midnightblue" points="200.24,-15.82 209.99,-11.67 199.78,-8.84 200.24,-15.82"/>
</g>
<!-- Node5 -->
<g id="node5" class="node">
<title>Node5</title>
<g id="a_node5"><a xlink:href="i2c__async__port_8h.html" target="_top" xlink:title=" ">
<polygon fill="none" stroke="black" points="132.54,-112.5 132.54,-131.5 258.54,-131.5 258.54,-112.5 132.54,-112.5"/>
<text text-anchor="middle" x="195.54" y="-119.5" font-family="Helvetica,sans-Serif" font-size="10.00">ports/i2c_async_port.h</text>
</a>
</g>
</g>
<!-- Node4&#45;&gt;Node5 -->
<g id="edge5" class="edge">
<title>Node4&#45;&gt;Node5</title>
<path fill="none" stroke="midnightblue" d="M195.54,-168.08C195.54,-161.01 195.54,-150.86 195.54,-141.99"/>
<polygon fill="midnightblue" stroke="midnightblue" points="199.04,-141.75 195.54,-131.75 192.04,-141.75 199.04,-141.75"/>
</g>
<!-- Node4&#45;&gt;Node8 -->
<g id="edge13" class="edge">
<title>Node4&#45;&gt;Node8</title>
<path fill="none" stroke="midnightblue" d="M215.36,-168.37C231.14,-160.7 252.92,-148.19 267.54,-132 279.77,-118.47 288.42,-99.4 293.61,-85.42"/>
<polygon fill="midnightblue" stroke="midnightblue" points="296.95,-86.49 296.91,-75.9 290.33,-84.2 296.95,-86.49"/>
</g>
<!-- Node9 -->
<g id="node9" class="node">
<title>Node9</title>
<g id="a_node9"><a xlink:href="time__port_8h.html" target="_top" xlink:title=" ">
<polygon fill="none" stroke="black" points="13.04,-112.5 13.04,-131.5 114.04,-131.5 114.04,-112.5 13.04,-112.5"/>
<text text-anchor="middle" x="63.54" y="-119.5" font-family="Helvetica,sans-Serif" font-size="10.00">ports/time_port.h</text>
</a>
</g>
</g>
<!-- Node4&#45;&gt;Node9 -->
<g id="edge11" class="edge">
<title>Node4&#45;&gt;Node9</title>
<path fill="none" stroke="midnightblue" d="M174.63,-168.44C152.81,-159.52 118.39,-145.44 93.65,-135.32"/>
<polygon fill="midnightblue" stroke="midnightblue" points="94.94,-132.06 84.36,-131.52 92.29,-138.54 94.94,-132.06"/>
</g>
<!-- Node5&#45;&gt;Node3 -->
<g id="edge7" class="edge">
<title>Node5&#45;&gt;Node3</title>
<path fill="none" stroke="midnightblue" d="M200.38,-112.24C205.18,-103.31 212.52,-88.97 217.54,-76 223.51,-60.58 228.66,-42.49 232.08,-29.31"/>
<polygon fill="midnightblue" stroke="midnightblue" points="235.49,-30.12 234.53,-19.57 228.7,-28.41 235.49,-30.12"/>
</g>
<!-- Node6 -->
<g id="node6" class="node">
<title>Node6</title>
<g id="a_node6"><a xlink:title=" ">
<polygon fill="none" stroke="#bfbfbf" points="152.54,-56.5 152.54,-75.5 208.54,-75.5 208.54,-56.5 152.54,-56.5"/>
<text text-anchor="middle" x="180.54" y="-63.5" font-family="Helvetica,sans-Serif" font-size="10.00">stddef.h</text>
</a>
</g>
</g>
<!-- Node5&#45;&gt;Node6 -->
<g id="edge6" class="edge">
<title>Node5&#45;&gt;Node6</title>
<path fill="none" stroke="midnightblue" d="M193.07,-112.08C191.06,-104.85 188.16,-94.41 185.65,-85.4"/>
<polygon fill="midnightblue" stroke="midnightblue" points="189.02,-84.45 182.97,-75.75 182.28,-86.32 189.02,-84.45"/>
</g>
<!-- Node7 -->
<g id="node7" class="node">
<title>Node7</title>
<g id="a_node7"><a xlink:title=" ">
<polygon fill="none" stroke="#bfbfbf" points="72.54,-56.5 72.54,-75.5 134.54,-75.5 134.54,-56.5 72.54,-56.5"/>
<text text-anchor="middle" x="103.54" y="-63.5" font-family="Helvetica,sans-Serif" font-size="10.00">stdbool.h</text>
</a>
</g>
</g>
<!-- Node5&#45;&gt;Node7 -->
<g id="edge8" class="edge">
<title>Node5&#45;&gt;Node7</title>
<path fill="none" stroke="midnightblue" d="M180.76,-112.32C166.28,-103.82 143.97,-90.73 127.05,-80.8"/>
<polygon fill="midnightblue" stroke="midnightblue" points="128.68,-77.7 118.29,-75.65 125.14,-83.74 128.68,-77.7"/>
</g>
<!-- Node5&#45;&gt;Node8 -->
<g id="edge9" class="edge">
<title>Node5&#45;&gt;Node8</title>
<path fill="none" stroke="midnightblue" d="M212.25,-112.32C228.85,-103.7 254.54,-90.36 273.76,-80.39"/>
<polygon fill="midnightblue" stroke="midnightblue" points="275.61,-83.37 282.87,-75.65 272.39,-77.16 275.61,-83.37"/>
</g>
<!-- Node8&#45;&gt;Node3 -->
<g id="edge10" class="edge">
<title>Node8&#45;&gt;Node3</title>
<path fill="none" stroke="midnightblue" d="M289.42,-56.32C280.02,-48.26 265.8,-36.08 254.47,-26.37"/>
<polygon fill="midnightblue" stroke="midnightblue" points="256.72,-23.68 246.85,-19.83 252.16,-29 256.72,-23.68"/>
</g>
<!-- Node9&#45;&gt;Node3 -->
<g id="edge12" class="edge">
<title>Node9&#45;&gt;Node3</title>
<path fill="none" stroke="midnightblue" d="M60.53,-112.37C56.4,-98.82 50.84,-72.43 63.54,-56 80.05,-34.65 154,-21.53 199.71,-15.32"/>
<polygon fill="midnightblue" stroke="midnightblue" points="200.37,-18.77 209.83,-14 199.46,-11.83 200.37,-18.77"/>
</g>
</g>
</svg>
