<?xml version="1.0" encoding="UTF-8" standalone="no"?>
<!DOCTYPE svg PUBLIC "-//W3C//DTD SVG 1.1//EN"
 "http://www.w3.org/Graphics/SVG/1.1/DTD/svg11.dtd">
<!-- Generated by graphviz version 2.43.0 (0)
 -->
<!-- Title: components/ports/include/ports/log_sink.h Pages: 1 -->
<svg width="393pt" height="195pt"
 viewBox="0.00 0.00 393.00 195.00" xmlns="http://www.w3.org/2000/svg" xmlns:xlink="http://www.w3.org/1999/xlink">
<g id="graph0" class="graph" transform="scale(1 1) rotate(0) translate(4 191)">
<title>components/ports/include/ports/log_sink.h</title>
<!-- Node1 -->
<g id="node1" class="node">
<title>Node1</title>
<g id="a_node1"><a xlink:title=" ">
<polygon fill="#bfbfbf" stroke="black" points="122,-156.5 122,-186.5 265,-186.5 265,-156.5 122,-156.5"/>
<text text-anchor="start" x="130" y="-174.5" font-family="Helvetica,sans-Serif" font-size="10.00">components/ports/include</text>
<text text-anchor="middle" x="193.5" y="-163.5" font-family="Helvetica,sans-Serif" font-size="10.00">/ports/log_sink.h</text>
</a>
</g>
</g>
<!-- Node2 -->
<g id="node2" class="node">
<title>Node2</title>
<g id="a_node2"><a xlink:href="logger__core_8h.html" target="_top" xlink:title=" ">
<polygon fill="none" stroke="black" points="28,-78.5 28,-119.5 165,-119.5 165,-78.5 28,-78.5"/>
<text text-anchor="start" x="36" y="-107.5" font-family="Helvetica,sans-Serif" font-size="10.00">components/logger_core</text>
<text text-anchor="start" x="36" y="-96.5" font-family="Helvetica,sans-Serif" font-size="10.00">/include/logger/logger</text>
<text text-anchor="middle" x="96.5" y="-85.5" font-family="Helvetica,sans-Serif" font-size="10.00">_core.h</text>
</a>
</g>
</g>
<!-- Node1&#45;&gt;Node2 -->
<g id="edge1" class="edge">
<title>Node1&#45;&gt;Node2</title>
<path fill="none" stroke="midnightblue" d="M165.58,-150.21C152.33,-140.58 136.57,-129.12 123.45,-119.59"/>
<polygon fill="midnightblue" stroke="midnightblue" points="163.72,-153.19 173.87,-156.23 167.84,-147.52 163.72,-153.19"/>
</g>
<!-- Node4 -->
<g id="node4" class="node">
<title>Node4</title>
<g id="a_node4"><a xlink:href="main_8c.html" target="_top" xlink:title=" ">
<polygon fill="none" stroke="black" points="155,-11.5 155,-30.5 232,-30.5 232,-11.5 155,-11.5"/>
<text text-anchor="middle" x="193.5" y="-18.5" font-family="Helvetica,sans-Serif" font-size="10.00">main/main.c</text>
</a>
</g>
</g>
<!-- Node1&#45;&gt;Node4 -->
<g id="edge7" class="edge">
<title>Node1&#45;&gt;Node4</title>
<path fill="none" stroke="midnightblue" d="M193.5,-145.87C193.5,-112.11 193.5,-53.11 193.5,-30.85"/>
<polygon fill="midnightblue" stroke="midnightblue" points="190,-146.26 193.5,-156.26 197,-146.26 190,-146.26"/>
</g>
<!-- Node5 -->
<g id="node5" class="node">
<title>Node5</title>
<g id="a_node5"><a xlink:href="logger__uart__sink_8h.html" target="_top" xlink:title=" ">
<polygon fill="none" stroke="black" points="221.5,-78.5 221.5,-119.5 369.5,-119.5 369.5,-78.5 221.5,-78.5"/>
<text text-anchor="start" x="229.5" y="-107.5" font-family="Helvetica,sans-Serif" font-size="10.00">components/logger_uart</text>
<text text-anchor="start" x="229.5" y="-96.5" font-family="Helvetica,sans-Serif" font-size="10.00">_sink/include/logger/logger</text>
<text text-anchor="middle" x="295.5" y="-85.5" font-family="Helvetica,sans-Serif" font-size="10.00">_uart_sink.h</text>
</a>
</g>
</g>
<!-- Node1&#45;&gt;Node5 -->
<g id="edge4" class="edge">
<title>Node1&#45;&gt;Node5</title>
<path fill="none" stroke="midnightblue" d="M222.46,-150.48C236.47,-140.8 253.23,-129.22 267.16,-119.59"/>
<polygon fill="midnightblue" stroke="midnightblue" points="220.38,-147.67 214.14,-156.23 224.36,-153.43 220.38,-147.67"/>
</g>
<!-- Node3 -->
<g id="node3" class="node">
<title>Node3</title>
<g id="a_node3"><a xlink:href="logger__core_8c.html" target="_top" xlink:title=" ">
<polygon fill="none" stroke="black" points="0,-6 0,-36 137,-36 137,-6 0,-6"/>
<text text-anchor="start" x="8" y="-24" font-family="Helvetica,sans-Serif" font-size="10.00">components/logger_core</text>
<text text-anchor="middle" x="68.5" y="-13" font-family="Helvetica,sans-Serif" font-size="10.00">/src/logger_core.c</text>
</a>
</g>
</g>
<!-- Node2&#45;&gt;Node3 -->
<g id="edge2" class="edge">
<title>Node2&#45;&gt;Node3</title>
<path fill="none" stroke="midnightblue" d="M85.8,-68.96C81.67,-57.75 77.13,-45.43 73.74,-36.23"/>
<polygon fill="midnightblue" stroke="midnightblue" points="82.55,-70.25 89.29,-78.43 89.12,-67.83 82.55,-70.25"/>
</g>
<!-- Node2&#45;&gt;Node4 -->
<g id="edge3" class="edge">
<title>Node2&#45;&gt;Node4</title>
<path fill="none" stroke="midnightblue" d="M129.67,-72.01C148.1,-57.57 169.82,-40.55 182.58,-30.55"/>
<polygon fill="midnightblue" stroke="midnightblue" points="127.19,-69.51 121.48,-78.43 131.51,-75.02 127.19,-69.51"/>
</g>
<!-- Node5&#45;&gt;Node4 -->
<g id="edge6" class="edge">
<title>Node5&#45;&gt;Node4</title>
<path fill="none" stroke="midnightblue" d="M261.14,-72.4C241.65,-57.88 218.52,-40.64 204.98,-30.55"/>
<polygon fill="midnightblue" stroke="midnightblue" points="259.12,-75.26 269.23,-78.43 263.3,-69.65 259.12,-75.26"/>
</g>
<!-- Node6 -->
<g id="node6" class="node">
<title>Node6</title>
<g id="a_node6"><a xlink:href="logger__uart__sink_8c.html" target="_top" xlink:title=" ">
<polygon fill="none" stroke="black" points="250,-0.5 250,-41.5 385,-41.5 385,-0.5 250,-0.5"/>
<text text-anchor="start" x="258" y="-29.5" font-family="Helvetica,sans-Serif" font-size="10.00">components/logger_uart</text>
<text text-anchor="start" x="258" y="-18.5" font-family="Helvetica,sans-Serif" font-size="10.00">_sink/src/logger_uart</text>
<text text-anchor="middle" x="317.5" y="-7.5" font-family="Helvetica,sans-Serif" font-size="10.00">_sink.c</text>
</a>
</g>
</g>
<!-- Node5&#45;&gt;Node6 -->
<g id="edge5" class="edge">
<title>Node5&#45;&gt;Node6</title>
<path fill="none" stroke="midnightblue" d="M304.01,-68.59C306.64,-59.51 309.47,-49.74 311.85,-41.51"/>
<polygon fill="midnightblue" stroke="midnightblue" points="300.58,-67.85 301.17,-78.43 307.31,-69.8 300.58,-67.85"/>
</g>
</g>
</svg>
