<?xml version="1.0" encoding="UTF-8" standalone="no"?>
<!DOCTYPE svg PUBLIC "-//W3C//DTD SVG 1.1//EN"
 "http://www.w3.org/Graphics/SVG/1.1/DTD/svg11.dtd">
<!-- Generated by graphviz version 2.43.0 (0)
 -->
<!-- Title: components/logger_uart_sink/include/logger/logger_uart_sink.h Pages: 1 -->
<svg width="238pt" height="128pt"
 viewBox="0.00 0.00 238.00 128.00" xmlns="http://www.w3.org/2000/svg" xmlns:xlink="http://www.w3.org/1999/xlink">
<g id="graph0" class="graph" transform="scale(1 1) rotate(0) translate(4 124)">
<title>components/logger_uart_sink/include/logger/logger_uart_sink.h</title>
<!-- Node1 -->
<g id="node1" class="node">
<title>Node1</title>
<g id="a_node1"><a xlink:title=" ">
<polygon fill="#bfbfbf" stroke="black" points="55.5,-78.5 55.5,-119.5 203.5,-119.5 203.5,-78.5 55.5,-78.5"/>
<text text-anchor="start" x="63.5" y="-107.5" font-family="Helvetica,sans-Serif" font-size="10.00">components/logger_uart</text>
<text text-anchor="start" x="63.5" y="-96.5" font-family="Helvetica,sans-Serif" font-size="10.00">_sink/include/logger/logger</text>
<text text-anchor="middle" x="129.5" y="-85.5" font-family="Helvetica,sans-Serif" font-size="10.00">_uart_sink.h</text>
</a>
</g>
</g>
<!-- Node2 -->
<g id="node2" class="node">
<title>Node2</title>
<g id="a_node2"><a xlink:href="logger__uart__sink_8c.html" target="_top" xlink:title=" ">
<polygon fill="none" stroke="black" points="0,-0.5 0,-41.5 135,-41.5 135,-0.5 0,-0.5"/>
<text text-anchor="start" x="8" y="-29.5" font-family="Helvetica,sans-Serif" font-size="10.00">components/logger_uart</text>
<text text-anchor="start" x="8" y="-18.5" font-family="Helvetica,sans-Serif" font-size="10.00">_sink/src/logger_uart</text>
<text text-anchor="middle" x="67.5" y="-7.5" font-family="Helvetica,sans-Serif" font-size="10.00">_sink.c</text>
</a>
</g>
</g>
<!-- Node1&#45;&gt;Node2 -->
<g id="edge1" class="edge">
<title>Node1&#45;&gt;Node2</title>
<path fill="none" stroke="midnightblue" d="M107.17,-70.63C99.31,-60.99 90.64,-50.36 83.41,-41.51"/>
<polygon fill="midnightblue" stroke="midnightblue" points="104.5,-72.89 113.53,-78.43 109.92,-68.47 104.5,-72.89"/>
</g>
<!-- Node3 -->
<g id="node3" class="node">
<title>Node3</title>
<g id="a_node3"><a xlink:href="main_8c.html" target="_top" xlink:title=" ">
<polygon fill="none" stroke="black" points="153,-11.5 153,-30.5 230,-30.5 230,-11.5 153,-11.5"/>
<text text-anchor="middle" x="191.5" y="-18.5" font-family="Helvetica,sans-Serif" font-size="10.00">main/main.c</text>
</a>
</g>
</g>
<!-- Node1&#45;&gt;Node3 -->
<g id="edge2" class="edge">
<title>Node1&#45;&gt;Node3</title>
<path fill="none" stroke="midnightblue" d="M151.98,-70.44C163.48,-56.35 176.66,-40.19 184.52,-30.55"/>
<polygon fill="midnightblue" stroke="midnightblue" points="149.08,-68.47 145.47,-78.43 154.5,-72.89 149.08,-68.47"/>
</g>
</g>
</svg>
