<?xml version="1.0" encoding="UTF-8" standalone="no"?>
<!DOCTYPE svg PUBLIC "-//W3C//DTD SVG 1.1//EN"
 "http://www.w3.org/Graphics/SVG/1.1/DTD/svg11.dtd">
<!-- Generated by graphviz version 2.43.0 (0)
 -->
<!-- Title: components/logger_uart_sink/src/logger_uart_sink.c Pages: 1 -->
<svg width="265pt" height="285pt"
 viewBox="0.00 0.00 265.00 285.00" xmlns="http://www.w3.org/2000/svg" xmlns:xlink="http://www.w3.org/1999/xlink">
<g id="graph0" class="graph" transform="scale(1 1) rotate(0) translate(4 281)">
<title>components/logger_uart_sink/src/logger_uart_sink.c</title>
<!-- Node1 -->
<g id="node1" class="node">
<title>Node1</title>
<g id="a_node1"><a xlink:title=" ">
<polygon fill="#bfbfbf" stroke="black" points="36.5,-235.5 36.5,-276.5 171.5,-276.5 171.5,-235.5 36.5,-235.5"/>
<text text-anchor="start" x="44.5" y="-264.5" font-family="Helvetica,sans-Serif" font-size="10.00">components/logger_uart</text>
<text text-anchor="start" x="44.5" y="-253.5" font-family="Helvetica,sans-Serif" font-size="10.00">_sink/src/logger_uart</text>
<text text-anchor="middle" x="104" y="-242.5" font-family="Helvetica,sans-Serif" font-size="10.00">_sink.c</text>
</a>
</g>
</g>
<!-- Node2 -->
<g id="node2" class="node">
<title>Node2</title>
<g id="a_node2"><a xlink:href="logger__uart__sink_8h.html" target="_top" xlink:title=" ">
<polygon fill="none" stroke="black" points="51,-168.5 51,-198.5 157,-198.5 157,-168.5 51,-168.5"/>
<text text-anchor="start" x="59" y="-186.5" font-family="Helvetica,sans-Serif" font-size="10.00">logger/logger_uart</text>
<text text-anchor="middle" x="104" y="-175.5" font-family="Helvetica,sans-Serif" font-size="10.00">_sink.h</text>
</a>
</g>
</g>
<!-- Node1&#45;&gt;Node2 -->
<g id="edge1" class="edge">
<title>Node1&#45;&gt;Node2</title>
<path fill="none" stroke="midnightblue" d="M104,-235.36C104,-227.23 104,-217.7 104,-209.11"/>
<polygon fill="midnightblue" stroke="midnightblue" points="107.5,-208.89 104,-198.89 100.5,-208.89 107.5,-208.89"/>
</g>
<!-- Node3 -->
<g id="node3" class="node">
<title>Node3</title>
<g id="a_node3"><a xlink:href="log__sink_8h.html" target="_top" xlink:title=" ">
<polygon fill="none" stroke="black" points="0,-112.5 0,-131.5 94,-131.5 94,-112.5 0,-112.5"/>
<text text-anchor="middle" x="47" y="-119.5" font-family="Helvetica,sans-Serif" font-size="10.00">ports/log_sink.h</text>
</a>
</g>
</g>
<!-- Node2&#45;&gt;Node3 -->
<g id="edge2" class="edge">
<title>Node2&#45;&gt;Node3</title>
<path fill="none" stroke="midnightblue" d="M90.49,-168.4C82.04,-159.58 71.12,-148.18 62.34,-139.02"/>
<polygon fill="midnightblue" stroke="midnightblue" points="64.74,-136.46 55.29,-131.66 59.68,-141.3 64.74,-136.46"/>
</g>
<!-- Node6 -->
<g id="node6" class="node">
<title>Node6</title>
<g id="a_node6"><a xlink:href="uart__port_8h.html" target="_top" xlink:title=" ">
<polygon fill="none" stroke="black" points="112,-112.5 112,-131.5 210,-131.5 210,-112.5 112,-112.5"/>
<text text-anchor="middle" x="161" y="-119.5" font-family="Helvetica,sans-Serif" font-size="10.00">ports/uart_port.h</text>
</a>
</g>
</g>
<!-- Node2&#45;&gt;Node6 -->
<g id="edge5" class="edge">
<title>Node2&#45;&gt;Node6</title>
<path fill="none" stroke="midnightblue" d="M117.51,-168.4C125.96,-159.58 136.88,-148.18 145.66,-139.02"/>
<polygon fill="midnightblue" stroke="midnightblue" points="148.32,-141.3 152.71,-131.66 143.26,-136.46 148.32,-141.3"/>
</g>
<!-- Node4 -->
<g id="node4" class="node">
<title>Node4</title>
<g id="a_node4"><a xlink:title=" ">
<polygon fill="none" stroke="#bfbfbf" points="75,-56.5 75,-75.5 131,-75.5 131,-56.5 75,-56.5"/>
<text text-anchor="middle" x="103" y="-63.5" font-family="Helvetica,sans-Serif" font-size="10.00">stddef.h</text>
</a>
</g>
</g>
<!-- Node3&#45;&gt;Node4 -->
<g id="edge3" class="edge">
<title>Node3&#45;&gt;Node4</title>
<path fill="none" stroke="midnightblue" d="M56,-112.32C64.19,-104.42 76.51,-92.55 86.47,-82.94"/>
<polygon fill="midnightblue" stroke="midnightblue" points="89.07,-85.29 93.84,-75.83 84.21,-80.26 89.07,-85.29"/>
</g>
<!-- Node5 -->
<g id="node5" class="node">
<title>Node5</title>
<g id="a_node5"><a xlink:title=" ">
<polygon fill="none" stroke="#bfbfbf" points="132.5,-0.5 132.5,-19.5 185.5,-19.5 185.5,-0.5 132.5,-0.5"/>
<text text-anchor="middle" x="159" y="-7.5" font-family="Helvetica,sans-Serif" font-size="10.00">stdint.h</text>
</a>
</g>
</g>
<!-- Node3&#45;&gt;Node5 -->
<g id="edge4" class="edge">
<title>Node3&#45;&gt;Node5</title>
<path fill="none" stroke="midnightblue" d="M47.35,-112.39C48.32,-98.87 52.03,-72.51 66,-56 80.6,-38.74 103.37,-27.57 122.72,-20.68"/>
<polygon fill="midnightblue" stroke="midnightblue" points="124.07,-23.91 132.47,-17.45 121.87,-17.27 124.07,-23.91"/>
</g>
<!-- Node6&#45;&gt;Node4 -->
<g id="edge6" class="edge">
<title>Node6&#45;&gt;Node4</title>
<path fill="none" stroke="midnightblue" d="M151.68,-112.32C143.11,-104.34 130.19,-92.31 119.81,-82.65"/>
<polygon fill="midnightblue" stroke="midnightblue" points="122.19,-80.09 112.49,-75.83 117.42,-85.21 122.19,-80.09"/>
</g>
<!-- Node6&#45;&gt;Node5 -->
<g id="edge7" class="edge">
<title>Node6&#45;&gt;Node5</title>
<path fill="none" stroke="midnightblue" d="M160.84,-112.37C160.52,-94.62 159.78,-53.67 159.34,-29.6"/>
<polygon fill="midnightblue" stroke="midnightblue" points="162.84,-29.53 159.16,-19.59 155.84,-29.65 162.84,-29.53"/>
</g>
<!-- Node7 -->
<g id="node7" class="node">
<title>Node7</title>
<g id="a_node7"><a xlink:href="status_8h.html" target="_top" xlink:title=" ">
<polygon fill="none" stroke="black" points="187,-56.5 187,-75.5 257,-75.5 257,-56.5 187,-56.5"/>
<text text-anchor="middle" x="222" y="-63.5" font-family="Helvetica,sans-Serif" font-size="10.00">ca/status.h</text>
</a>
</g>
</g>
<!-- Node6&#45;&gt;Node7 -->
<g id="edge8" class="edge">
<title>Node6&#45;&gt;Node7</title>
<path fill="none" stroke="midnightblue" d="M170.8,-112.32C179.82,-104.34 193.41,-92.31 204.32,-82.65"/>
<polygon fill="midnightblue" stroke="midnightblue" points="206.85,-85.08 212.02,-75.83 202.21,-79.84 206.85,-85.08"/>
</g>
<!-- Node7&#45;&gt;Node5 -->
<g id="edge9" class="edge">
<title>Node7&#45;&gt;Node5</title>
<path fill="none" stroke="midnightblue" d="M211.88,-56.32C202.47,-48.26 188.26,-36.08 176.93,-26.37"/>
<polygon fill="midnightblue" stroke="midnightblue" points="179.18,-23.68 169.31,-19.83 174.62,-29 179.18,-23.68"/>
</g>
</g>
</svg>
