<?xml version="1.0" encoding="UTF-8" standalone="no"?>
<!DOCTYPE svg PUBLIC "-//W3C//DTD SVG 1.1//EN"
 "http://www.w3.org/Graphics/SVG/1.1/DTD/svg11.dtd">
<!-- Generated by graphviz version 2.43.0 (0)
 -->
<!-- Title: components/logger_core/include/logger/logger_core.h Pages: 1 -->
<svg width="310pt" height="162pt"
 viewBox="0.00 0.00 310.05 162.00" xmlns="http://www.w3.org/2000/svg" xmlns:xlink="http://www.w3.org/1999/xlink">
<g id="graph0" class="graph" transform="scale(1 1) rotate(0) translate(4 158)">
<title>components/logger_core/include/logger/logger_core.h</title>
<!-- Node1 -->
<g id="node1" class="node">
<title>Node1</title>
<g id="a_node1"><a xlink:title=" ">
<polygon fill="#bfbfbf" stroke="black" points="21.55,-112.5 21.55,-153.5 158.55,-153.5 158.55,-112.5 21.55,-112.5"/>
<text text-anchor="start" x="29.55" y="-141.5" font-family="Helvetica,sans-Serif" font-size="10.00">components/logger_core</text>
<text text-anchor="start" x="29.55" y="-130.5" font-family="Helvetica,sans-Serif" font-size="10.00">/include/logger/logger</text>
<text text-anchor="middle" x="90.05" y="-119.5" font-family="Helvetica,sans-Serif" font-size="10.00">_core.h</text>
</a>
</g>
</g>
<!-- Node2 -->
<g id="node2" class="node">
<title>Node2</title>
<g id="a_node2"><a xlink:title=" ">
<polygon fill="none" stroke="#bfbfbf" points="112.55,-0.5 112.55,-19.5 165.55,-19.5 165.55,-0.5 112.55,-0.5"/>
<text text-anchor="middle" x="139.05" y="-7.5" font-family="Helvetica,sans-Serif" font-size="10.00">stdint.h</text>
</a>
</g>
</g>
<!-- Node1&#45;&gt;Node2 -->
<g id="edge1" class="edge">
<title>Node1&#45;&gt;Node2</title>
<path fill="none" stroke="midnightblue" d="M42.05,-112.43C14.86,-98.38 -10.84,-78.1 5.05,-56 26.99,-25.48 70.65,-15.37 102.18,-12.18"/>
<polygon fill="midnightblue" stroke="midnightblue" points="102.68,-15.65 112.36,-11.34 102.11,-8.67 102.68,-15.65"/>
</g>
<!-- Node3 -->
<g id="node3" class="node">
<title>Node3</title>
<g id="a_node3"><a xlink:title=" ">
<polygon fill="none" stroke="#bfbfbf" points="14.05,-56.5 14.05,-75.5 70.05,-75.5 70.05,-56.5 14.05,-56.5"/>
<text text-anchor="middle" x="42.05" y="-63.5" font-family="Helvetica,sans-Serif" font-size="10.00">stdarg.h</text>
</a>
</g>
</g>
<!-- Node1&#45;&gt;Node3 -->
<g id="edge2" class="edge">
<title>Node1&#45;&gt;Node3</title>
<path fill="none" stroke="midnightblue" d="M75.64,-112.5C68.92,-103.39 61,-92.66 54.53,-83.91"/>
<polygon fill="midnightblue" stroke="midnightblue" points="57.19,-81.62 48.44,-75.65 51.56,-85.78 57.19,-81.62"/>
</g>
<!-- Node4 -->
<g id="node4" class="node">
<title>Node4</title>
<g id="a_node4"><a xlink:href="log__sink_8h.html" target="_top" xlink:title=" ">
<polygon fill="none" stroke="black" points="208.05,-56.5 208.05,-75.5 302.05,-75.5 302.05,-56.5 208.05,-56.5"/>
<text text-anchor="middle" x="255.05" y="-63.5" font-family="Helvetica,sans-Serif" font-size="10.00">ports/log_sink.h</text>
</a>
</g>
</g>
<!-- Node1&#45;&gt;Node4 -->
<g id="edge3" class="edge">
<title>Node1&#45;&gt;Node4</title>
<path fill="none" stroke="midnightblue" d="M139.55,-112.5C166.79,-101.77 199.79,-88.77 223.52,-79.42"/>
<polygon fill="midnightblue" stroke="midnightblue" points="225.06,-82.57 233.08,-75.65 222.49,-76.06 225.06,-82.57"/>
</g>
<!-- Node6 -->
<g id="node6" class="node">
<title>Node6</title>
<g id="a_node6"><a xlink:href="time__port_8h.html" target="_top" xlink:title=" ">
<polygon fill="none" stroke="black" points="88.55,-56.5 88.55,-75.5 189.55,-75.5 189.55,-56.5 88.55,-56.5"/>
<text text-anchor="middle" x="139.05" y="-63.5" font-family="Helvetica,sans-Serif" font-size="10.00">ports/time_port.h</text>
</a>
</g>
</g>
<!-- Node1&#45;&gt;Node6 -->
<g id="edge6" class="edge">
<title>Node1&#45;&gt;Node6</title>
<path fill="none" stroke="midnightblue" d="M104.75,-112.5C111.61,-103.39 119.7,-92.66 126.3,-83.91"/>
<polygon fill="midnightblue" stroke="midnightblue" points="129.3,-85.74 132.52,-75.65 123.71,-81.53 129.3,-85.74"/>
</g>
<!-- Node4&#45;&gt;Node2 -->
<g id="edge5" class="edge">
<title>Node4&#45;&gt;Node2</title>
<path fill="none" stroke="midnightblue" d="M236.67,-56.44C217.83,-47.68 188.31,-33.94 166.67,-23.86"/>
<polygon fill="midnightblue" stroke="midnightblue" points="167.88,-20.56 157.34,-19.52 164.93,-26.91 167.88,-20.56"/>
</g>
<!-- Node5 -->
<g id="node5" class="node">
<title>Node5</title>
<g id="a_node5"><a xlink:title=" ">
<polygon fill="none" stroke="#bfbfbf" points="227.05,-0.5 227.05,-19.5 283.05,-19.5 283.05,-0.5 227.05,-0.5"/>
<text text-anchor="middle" x="255.05" y="-7.5" font-family="Helvetica,sans-Serif" font-size="10.00">stddef.h</text>
</a>
</g>
</g>
<!-- Node4&#45;&gt;Node5 -->
<g id="edge4" class="edge">
<title>Node4&#45;&gt;Node5</title>
<path fill="none" stroke="midnightblue" d="M255.05,-56.08C255.05,-49.01 255.05,-38.86 255.05,-29.99"/>
<polygon fill="midnightblue" stroke="midnightblue" points="258.55,-29.75 255.05,-19.75 251.55,-29.75 258.55,-29.75"/>
</g>
<!-- Node6&#45;&gt;Node2 -->
<g id="edge7" class="edge">
<title>Node6&#45;&gt;Node2</title>
<path fill="none" stroke="midnightblue" d="M139.05,-56.08C139.05,-49.01 139.05,-38.86 139.05,-29.99"/>
<polygon fill="midnightblue" stroke="midnightblue" points="142.55,-29.75 139.05,-19.75 135.55,-29.75 142.55,-29.75"/>
</g>
</g>
</svg>
