<?xml version="1.0" encoding="UTF-8" standalone="no"?>
<!DOCTYPE svg PUBLIC "-//W3C//DTD SVG 1.1//EN"
 "http://www.w3.org/Graphics/SVG/1.1/DTD/svg11.dtd">
<!-- Generated by graphviz version 2.43.0 (0)
 -->
<!-- Title: components/logger_core/src/logger_core.c Pages: 1 -->
<svg width="719pt" height="207pt"
 viewBox="0.00 0.00 719.16 207.00" xmlns="http://www.w3.org/2000/svg" xmlns:xlink="http://www.w3.org/1999/xlink">
<g id="graph0" class="graph" transform="scale(1 1) rotate(0) translate(4 203)">
<title>components/logger_core/src/logger_core.c</title>
<!-- Node1 -->
<g id="node1" class="node">
<title>Node1</title>
<g id="a_node1"><a xlink:title=" ">
<polygon fill="#bfbfbf" stroke="black" points="388.16,-168.5 388.16,-198.5 525.16,-198.5 525.16,-168.5 388.16,-168.5"/>
<text text-anchor="start" x="396.16" y="-186.5" font-family="Helvetica,sans-Serif" font-size="10.00">components/logger_core</text>
<text text-anchor="middle" x="456.66" y="-175.5" font-family="Helvetica,sans-Serif" font-size="10.00">/src/logger_core.c</text>
</a>
</g>
</g>
<!-- Node2 -->
<g id="node2" class="node">
<title>Node2</title>
<g id="a_node2"><a xlink:href="logger__core_8h.html" target="_top" xlink:title=" ">
<polygon fill="none" stroke="black" points="31.66,-112.5 31.66,-131.5 147.66,-131.5 147.66,-112.5 31.66,-112.5"/>
<text text-anchor="middle" x="89.66" y="-119.5" font-family="Helvetica,sans-Serif" font-size="10.00">logger/logger_core.h</text>
</a>
</g>
</g>
<!-- Node1&#45;&gt;Node2 -->
<g id="edge1" class="edge">
<title>Node1&#45;&gt;Node2</title>
<path fill="none" stroke="midnightblue" d="M388.07,-171.38C320.42,-160.41 217.91,-143.79 152.38,-133.17"/>
<polygon fill="midnightblue" stroke="midnightblue" points="152.62,-129.66 142.19,-131.52 151.5,-136.57 152.62,-129.66"/>
</g>
<!-- Node8 -->
<g id="node8" class="node">
<title>Node8</title>
<g id="a_node8"><a xlink:title=" ">
<polygon fill="none" stroke="#bfbfbf" points="166.16,-112.5 166.16,-131.5 279.16,-131.5 279.16,-112.5 166.16,-112.5"/>
<text text-anchor="middle" x="222.66" y="-119.5" font-family="Helvetica,sans-Serif" font-size="10.00">freertos/FreeRTOS.h</text>
</a>
</g>
</g>
<!-- Node1&#45;&gt;Node8 -->
<g id="edge9" class="edge">
<title>Node1&#45;&gt;Node8</title>
<path fill="none" stroke="midnightblue" d="M401.51,-168.47C360.08,-157.94 304.13,-143.72 265.92,-134"/>
<polygon fill="midnightblue" stroke="midnightblue" points="266.67,-130.58 256.12,-131.51 264.95,-137.36 266.67,-130.58"/>
</g>
<!-- Node9 -->
<g id="node9" class="node">
<title>Node9</title>
<g id="a_node9"><a xlink:title=" ">
<polygon fill="none" stroke="#bfbfbf" points="297.16,-112.5 297.16,-131.5 394.16,-131.5 394.16,-112.5 297.16,-112.5"/>
<text text-anchor="middle" x="345.66" y="-119.5" font-family="Helvetica,sans-Serif" font-size="10.00">freertos/queue.h</text>
</a>
</g>
</g>
<!-- Node1&#45;&gt;Node9 -->
<g id="edge10" class="edge">
<title>Node1&#45;&gt;Node9</title>
<path fill="none" stroke="midnightblue" d="M430.36,-168.4C412.4,-158.77 388.74,-146.09 370.99,-136.58"/>
<polygon fill="midnightblue" stroke="midnightblue" points="372.28,-133.3 361.82,-131.66 368.98,-139.47 372.28,-133.3"/>
</g>
<!-- Node10 -->
<g id="node10" class="node">
<title>Node10</title>
<g id="a_node10"><a xlink:title=" ">
<polygon fill="none" stroke="#bfbfbf" points="412.66,-112.5 412.66,-131.5 500.66,-131.5 500.66,-112.5 412.66,-112.5"/>
<text text-anchor="middle" x="456.66" y="-119.5" font-family="Helvetica,sans-Serif" font-size="10.00">freertos/task.h</text>
</a>
</g>
</g>
<!-- Node1&#45;&gt;Node10 -->
<g id="edge11" class="edge">
<title>Node1&#45;&gt;Node10</title>
<path fill="none" stroke="midnightblue" d="M456.66,-168.4C456.66,-160.47 456.66,-150.46 456.66,-141.86"/>
<polygon fill="midnightblue" stroke="midnightblue" points="460.16,-141.66 456.66,-131.66 453.16,-141.66 460.16,-141.66"/>
</g>
<!-- Node11 -->
<g id="node11" class="node">
<title>Node11</title>
<g id="a_node11"><a xlink:title=" ">
<polygon fill="none" stroke="#bfbfbf" points="518.66,-112.5 518.66,-131.5 568.66,-131.5 568.66,-112.5 518.66,-112.5"/>
<text text-anchor="middle" x="543.66" y="-119.5" font-family="Helvetica,sans-Serif" font-size="10.00">stdio.h</text>
</a>
</g>
</g>
<!-- Node1&#45;&gt;Node11 -->
<g id="edge12" class="edge">
<title>Node1&#45;&gt;Node11</title>
<path fill="none" stroke="midnightblue" d="M477.28,-168.4C490.97,-159.04 508.88,-146.79 522.64,-137.38"/>
<polygon fill="midnightblue" stroke="midnightblue" points="524.73,-140.19 531.01,-131.66 520.78,-134.41 524.73,-140.19"/>
</g>
<!-- Node12 -->
<g id="node12" class="node">
<title>Node12</title>
<g id="a_node12"><a xlink:title=" ">
<polygon fill="none" stroke="#bfbfbf" points="587.16,-112.5 587.16,-131.5 640.16,-131.5 640.16,-112.5 587.16,-112.5"/>
<text text-anchor="middle" x="613.66" y="-119.5" font-family="Helvetica,sans-Serif" font-size="10.00">stdlib.h</text>
</a>
</g>
</g>
<!-- Node1&#45;&gt;Node12 -->
<g id="edge13" class="edge">
<title>Node1&#45;&gt;Node12</title>
<path fill="none" stroke="midnightblue" d="M493.87,-168.4C520.45,-158.33 555.85,-144.91 581.27,-135.28"/>
<polygon fill="midnightblue" stroke="midnightblue" points="582.71,-138.47 590.82,-131.66 580.23,-131.93 582.71,-138.47"/>
</g>
<!-- Node13 -->
<g id="node13" class="node">
<title>Node13</title>
<g id="a_node13"><a xlink:title=" ">
<polygon fill="none" stroke="#bfbfbf" points="658.16,-112.5 658.16,-131.5 711.16,-131.5 711.16,-112.5 658.16,-112.5"/>
<text text-anchor="middle" x="684.66" y="-119.5" font-family="Helvetica,sans-Serif" font-size="10.00">string.h</text>
</a>
</g>
</g>
<!-- Node1&#45;&gt;Node13 -->
<g id="edge14" class="edge">
<title>Node1&#45;&gt;Node13</title>
<path fill="none" stroke="midnightblue" d="M510.41,-168.47C552.89,-157.39 611.03,-142.22 648.23,-132.51"/>
<polygon fill="midnightblue" stroke="midnightblue" points="649.34,-135.84 658.13,-129.92 647.57,-129.06 649.34,-135.84"/>
</g>
<!-- Node3 -->
<g id="node3" class="node">
<title>Node3</title>
<g id="a_node3"><a xlink:title=" ">
<polygon fill="none" stroke="#bfbfbf" points="112.16,-0.5 112.16,-19.5 165.16,-19.5 165.16,-0.5 112.16,-0.5"/>
<text text-anchor="middle" x="138.66" y="-7.5" font-family="Helvetica,sans-Serif" font-size="10.00">stdint.h</text>
</a>
</g>
</g>
<!-- Node2&#45;&gt;Node3 -->
<g id="edge2" class="edge">
<title>Node2&#45;&gt;Node3</title>
<path fill="none" stroke="midnightblue" d="M60.54,-112.41C29.25,-101.65 -13.66,-81.49 4.66,-56 26.61,-25.48 70.27,-15.37 101.8,-12.18"/>
<polygon fill="midnightblue" stroke="midnightblue" points="102.3,-15.65 111.98,-11.34 101.73,-8.67 102.3,-15.65"/>
</g>
<!-- Node4 -->
<g id="node4" class="node">
<title>Node4</title>
<g id="a_node4"><a xlink:title=" ">
<polygon fill="none" stroke="#bfbfbf" points="13.66,-56.5 13.66,-75.5 69.66,-75.5 69.66,-56.5 13.66,-56.5"/>
<text text-anchor="middle" x="41.66" y="-63.5" font-family="Helvetica,sans-Serif" font-size="10.00">stdarg.h</text>
</a>
</g>
</g>
<!-- Node2&#45;&gt;Node4 -->
<g id="edge3" class="edge">
<title>Node2&#45;&gt;Node4</title>
<path fill="none" stroke="midnightblue" d="M81.74,-112.08C74.82,-104.3 64.6,-92.8 56.21,-83.37"/>
<polygon fill="midnightblue" stroke="midnightblue" points="58.7,-80.9 49.44,-75.75 53.47,-85.55 58.7,-80.9"/>
</g>
<!-- Node5 -->
<g id="node5" class="node">
<title>Node5</title>
<g id="a_node5"><a xlink:href="log__sink_8h.html" target="_top" xlink:title=" ">
<polygon fill="none" stroke="black" points="207.66,-56.5 207.66,-75.5 301.66,-75.5 301.66,-56.5 207.66,-56.5"/>
<text text-anchor="middle" x="254.66" y="-63.5" font-family="Helvetica,sans-Serif" font-size="10.00">ports/log_sink.h</text>
</a>
</g>
</g>
<!-- Node2&#45;&gt;Node5 -->
<g id="edge4" class="edge">
<title>Node2&#45;&gt;Node5</title>
<path fill="none" stroke="midnightblue" d="M115.81,-112.44C143.69,-103.32 188.01,-88.81 219.06,-78.65"/>
<polygon fill="midnightblue" stroke="midnightblue" points="220.23,-81.95 228.64,-75.52 218.05,-75.3 220.23,-81.95"/>
</g>
<!-- Node7 -->
<g id="node7" class="node">
<title>Node7</title>
<g id="a_node7"><a xlink:href="time__port_8h.html" target="_top" xlink:title=" ">
<polygon fill="none" stroke="black" points="88.16,-56.5 88.16,-75.5 189.16,-75.5 189.16,-56.5 88.16,-56.5"/>
<text text-anchor="middle" x="138.66" y="-63.5" font-family="Helvetica,sans-Serif" font-size="10.00">ports/time_port.h</text>
</a>
</g>
</g>
<!-- Node2&#45;&gt;Node7 -->
<g id="edge7" class="edge">
<title>Node2&#45;&gt;Node7</title>
<path fill="none" stroke="midnightblue" d="M97.76,-112.08C104.82,-104.3 115.25,-92.8 123.81,-83.37"/>
<polygon fill="midnightblue" stroke="midnightblue" points="126.6,-85.51 130.72,-75.75 121.41,-80.8 126.6,-85.51"/>
</g>
<!-- Node5&#45;&gt;Node3 -->
<g id="edge6" class="edge">
<title>Node5&#45;&gt;Node3</title>
<path fill="none" stroke="midnightblue" d="M236.28,-56.44C217.45,-47.68 187.93,-33.94 166.29,-23.86"/>
<polygon fill="midnightblue" stroke="midnightblue" points="167.5,-20.56 156.96,-19.52 164.55,-26.91 167.5,-20.56"/>
</g>
<!-- Node6 -->
<g id="node6" class="node">
<title>Node6</title>
<g id="a_node6"><a xlink:title=" ">
<polygon fill="none" stroke="#bfbfbf" points="226.66,-0.5 226.66,-19.5 282.66,-19.5 282.66,-0.5 226.66,-0.5"/>
<text text-anchor="middle" x="254.66" y="-7.5" font-family="Helvetica,sans-Serif" font-size="10.00">stddef.h</text>
</a>
</g>
</g>
<!-- Node5&#45;&gt;Node6 -->
<g id="edge5" class="edge">
<title>Node5&#45;&gt;Node6</title>
<path fill="none" stroke="midnightblue" d="M254.66,-56.08C254.66,-49.01 254.66,-38.86 254.66,-29.99"/>
<polygon fill="midnightblue" stroke="midnightblue" points="258.16,-29.75 254.66,-19.75 251.16,-29.75 258.16,-29.75"/>
</g>
<!-- Node7&#45;&gt;Node3 -->
<g id="edge8" class="edge">
<title>Node7&#45;&gt;Node3</title>
<path fill="none" stroke="midnightblue" d="M138.66,-56.08C138.66,-49.01 138.66,-38.86 138.66,-29.99"/>
<polygon fill="midnightblue" stroke="midnightblue" points="142.16,-29.75 138.66,-19.75 135.16,-29.75 142.16,-29.75"/>
</g>
</g>
</svg>
