<?xml version="1.0" encoding="UTF-8" standalone="no"?>
<!DOCTYPE svg PUBLIC "-//W3C//DTD SVG 1.1//EN"
 "http://www.w3.org/Graphics/SVG/1.1/DTD/svg11.dtd">
<!-- Generated by graphviz version 2.43.0 (0)
 -->
<!-- Title: main/main.c Pages: 1 -->
<!--zoomable 330 -->
<svg id="main" version="1.1" xmlns="http://www.w3.org/2000/svg" xmlns:xlink="http://www.w3.org/1999/xlink" xml:space="preserve" onload="init(evt)">
<style type="text/css"><![CDATA[
.edge:hover path { stroke: red; }
.edge:hover polygon { stroke: red; fill: red; }
]]></style>
<script type="text/javascript"><![CDATA[
var edges = document.getElementsByTagName('g');
if (edges && edges.length) {
  for (var i=0;i<edges.length;i++) {
    if (edges[i].id.substr(0,4)=='edge') {
      edges[i].setAttribute('class','edge');
    }
  }
}
]]></script>
        <defs>
                <circle id="rim" cx="0" cy="0" r="7"/>
                <circle id="rim2" cx="0" cy="0" r="3.5"/>
                <g id="zoomPlus">
                        <use xlink:href="#rim" fill="#404040">
                                <set attributeName="fill" to="#808080" begin="zoomplus.mouseover" end="zoomplus.mouseout"/>
                        </use>
                        <path d="M-4,0h8M0,-4v8" fill="none" stroke="white" stroke-width="1.5" pointer-events="none"/>
                </g>
                <g id="zoomMin">
                        <use xlink:href="#rim" fill="#404040">
                                <set attributeName="fill" to="#808080" begin="zoomminus.mouseover" end="zoomminus.mouseout"/>
                        </use>
                        <path d="M-4,0h8" fill="none" stroke="white" stroke-width="1.5" pointer-events="none"/>
                </g>
                <g id="dirArrow">
                        <path fill="none" stroke="white" stroke-width="1.5" d="M0,-3.0v7 M-2.5,-0.5L0,-3.0L2.5,-0.5"/>
                </g>
               <g id="resetDef">
                       <use xlink:href="#rim2" fill="#404040">
                               <set attributeName="fill" to="#808080" begin="reset.mouseover" end="reset.mouseout"/>
                       </use>
               </g>
        </defs>

<script type="text/javascript">
var viewWidth = 1286;
var viewHeight = 330;
var sectionId = 'dynsection-0';
</script>
<script xlink:href="svgpan.js"/>
<svg id="graph" class="graph">
<g id="viewport">
<title>main/main.c</title>
<!-- Node1 -->
<g id="node1" class="node">
<title>Node1</title>
<g id="a_node1"><a xlink:title=" ">
<polygon fill="#bfbfbf" stroke="black" points="582,-302.5 582,-321.5 659,-321.5 659,-302.5 582,-302.5"/>
<text text-anchor="middle" x="620.5" y="-309.5" font-family="Helvetica,sans-Serif" font-size="10.00">main/main.c</text>
</a>
</g>
</g>
<!-- Node2 -->
<g id="node2" class="node">
<title>Node2</title>
<g id="a_node2"><a xlink:title=" ">
<polygon fill="none" stroke="#bfbfbf" points="0,-241 0,-260 113,-260 113,-241 0,-241"/>
<text text-anchor="middle" x="56.5" y="-248" font-family="Helvetica,sans-Serif" font-size="10.00">freertos/FreeRTOS.h</text>
</a>
</g>
</g>
<!-- Node1&#45;&gt;Node2 -->
<g id="edge1" class="edge">
<title>Node1&#45;&gt;Node2</title>
<path fill="none" stroke="midnightblue" d="M581.87,-309.17C497.9,-304.84 292.59,-292.26 122.5,-266 115.64,-264.94 108.44,-263.6 101.4,-262.16"/>
<polygon fill="midnightblue" stroke="midnightblue" points="101.79,-258.66 91.28,-260 100.33,-265.51 101.79,-258.66"/>
</g>
<!-- Node3 -->
<g id="node3" class="node">
<title>Node3</title>
<g id="a_node3"><a xlink:title=" ">
<polygon fill="none" stroke="#bfbfbf" points="131.5,-241 131.5,-260 219.5,-260 219.5,-241 131.5,-241"/>
<text text-anchor="middle" x="175.5" y="-248" font-family="Helvetica,sans-Serif" font-size="10.00">freertos/task.h</text>
</a>
</g>
</g>
<!-- Node1&#45;&gt;Node3 -->
<g id="edge2" class="edge">
<title>Node1&#45;&gt;Node3</title>
<path fill="none" stroke="midnightblue" d="M581.81,-308.17C511.87,-302.68 359.93,-289.05 233.5,-266 228.01,-265 222.27,-263.78 216.63,-262.48"/>
<polygon fill="midnightblue" stroke="midnightblue" points="217.19,-259.01 206.64,-260.07 215.55,-265.82 217.19,-259.01"/>
</g>
<!-- Node4 -->
<g id="node4" class="node">
<title>Node4</title>
<g id="a_node4"><a xlink:href="i2c__async__port_8h.html" target="_top" xlink:title=" ">
<polygon fill="none" stroke="black" points="633.5,-112.5 633.5,-131.5 759.5,-131.5 759.5,-112.5 633.5,-112.5"/>
<text text-anchor="middle" x="696.5" y="-119.5" font-family="Helvetica,sans-Serif" font-size="10.00">ports/i2c_async_port.h</text>
</a>
</g>
</g>
<!-- Node1&#45;&gt;Node4 -->
<g id="edge3" class="edge">
<title>Node1&#45;&gt;Node4</title>
<path fill="none" stroke="midnightblue" d="M659.28,-307.13C685.85,-302.23 719.29,-291.13 736.5,-266 763.83,-226.08 729.59,-167.83 709.36,-139.58"/>
<polygon fill="midnightblue" stroke="midnightblue" points="712.16,-137.47 703.39,-131.53 706.54,-141.65 712.16,-137.47"/>
</g>
<!-- Node9 -->
<g id="node9" class="node">
<title>Node9</title>
<g id="a_node9"><a xlink:href="uart__port_8h.html" target="_top" xlink:title=" ">
<polygon fill="none" stroke="black" points="269.5,-112.5 269.5,-131.5 367.5,-131.5 367.5,-112.5 269.5,-112.5"/>
<text text-anchor="middle" x="318.5" y="-119.5" font-family="Helvetica,sans-Serif" font-size="10.00">ports/uart_port.h</text>
</a>
</g>
</g>
<!-- Node1&#45;&gt;Node9 -->
<g id="edge9" class="edge">
<title>Node1&#45;&gt;Node9</title>
<path fill="none" stroke="midnightblue" d="M581.74,-308.28C535.84,-303.93 457.88,-292.96 396.5,-266 350.19,-245.66 327.44,-244.08 304.5,-199 295.22,-180.76 301.97,-157.26 308.95,-141.26"/>
<polygon fill="midnightblue" stroke="midnightblue" points="312.24,-142.48 313.39,-131.95 305.92,-139.46 312.24,-142.48"/>
</g>
<!-- Node10 -->
<g id="node10" class="node">
<title>Node10</title>
<g id="a_node10"><a xlink:href="time__port_8h.html" target="_top" xlink:title=" ">
<polygon fill="none" stroke="black" points="1080,-112.5 1080,-131.5 1181,-131.5 1181,-112.5 1080,-112.5"/>
<text text-anchor="middle" x="1130.5" y="-119.5" font-family="Helvetica,sans-Serif" font-size="10.00">ports/time_port.h</text>
</a>
</g>
</g>
<!-- Node1&#45;&gt;Node10 -->
<g id="edge13" class="edge">
<title>Node1&#45;&gt;Node10</title>
<path fill="none" stroke="midnightblue" d="M659.2,-311.21C790.79,-311.51 1215.1,-309.12 1256.5,-266 1286.67,-234.57 1283.68,-203.55 1258.5,-168 1243.05,-146.2 1216.16,-134.88 1191,-129.04"/>
<polygon fill="midnightblue" stroke="midnightblue" points="1191.61,-125.59 1181.1,-126.99 1190.19,-132.44 1191.61,-125.59"/>
</g>
<!-- Node11 -->
<g id="node11" class="node">
<title>Node11</title>
<g id="a_node11"><a xlink:href="onewire__port_8h.html" target="_top" xlink:title=" ">
<polygon fill="none" stroke="black" points="498,-112.5 498,-131.5 615,-131.5 615,-112.5 498,-112.5"/>
<text text-anchor="middle" x="556.5" y="-119.5" font-family="Helvetica,sans-Serif" font-size="10.00">ports/onewire_port.h</text>
</a>
</g>
</g>
<!-- Node1&#45;&gt;Node11 -->
<g id="edge15" class="edge">
<title>Node1&#45;&gt;Node11</title>
<path fill="none" stroke="midnightblue" d="M581.72,-307.13C555.15,-302.23 521.71,-291.13 504.5,-266 476.5,-225.11 517.46,-167.36 541.35,-139.42"/>
<polygon fill="midnightblue" stroke="midnightblue" points="544.12,-141.56 548.12,-131.75 538.87,-136.93 544.12,-141.56"/>
</g>
<!-- Node12 -->
<g id="node12" class="node">
<title>Node12</title>
<g id="a_node12"><a xlink:href="log__sink_8h.html" target="_top" xlink:title=" ">
<polygon fill="none" stroke="black" points="385.5,-112.5 385.5,-131.5 479.5,-131.5 479.5,-112.5 385.5,-112.5"/>
<text text-anchor="middle" x="432.5" y="-119.5" font-family="Helvetica,sans-Serif" font-size="10.00">ports/log_sink.h</text>
</a>
</g>
</g>
<!-- Node1&#45;&gt;Node12 -->
<g id="edge20" class="edge">
<title>Node1&#45;&gt;Node12</title>
<path fill="none" stroke="midnightblue" d="M581.99,-306.12C553.77,-300.7 516.23,-289.39 491.5,-266 455.34,-231.8 440.61,-172.17 435.24,-141.86"/>
<polygon fill="midnightblue" stroke="midnightblue" points="438.66,-141.1 433.61,-131.79 431.75,-142.22 438.66,-141.1"/>
</g>
<!-- Node13 -->
<g id="node13" class="node">
<title>Node13</title>
<g id="a_node13"><a xlink:href="idf__i2c__service_8h.html" target="_top" xlink:title=" ">
<polygon fill="none" stroke="black" points="629.5,-235.5 629.5,-265.5 727.5,-265.5 727.5,-235.5 629.5,-235.5"/>
<text text-anchor="start" x="637.5" y="-253.5" font-family="Helvetica,sans-Serif" font-size="10.00">infrastructure/idf</text>
<text text-anchor="middle" x="678.5" y="-242.5" font-family="Helvetica,sans-Serif" font-size="10.00">_i2c_service.h</text>
</a>
</g>
</g>
<!-- Node1&#45;&gt;Node13 -->
<g id="edge23" class="edge">
<title>Node1&#45;&gt;Node13</title>
<path fill="none" stroke="midnightblue" d="M628.81,-302.48C636.3,-294.79 647.63,-283.17 657.58,-272.96"/>
<polygon fill="midnightblue" stroke="midnightblue" points="660.36,-275.13 664.83,-265.52 655.34,-270.24 660.36,-275.13"/>
</g>
<!-- Node14 -->
<g id="node14" class="node">
<title>Node14</title>
<g id="a_node14"><a xlink:href="idf__uart__port_8h.html" target="_top" xlink:title=" ">
<polygon fill="none" stroke="black" points="159.5,-168.5 159.5,-198.5 257.5,-198.5 257.5,-168.5 159.5,-168.5"/>
<text text-anchor="start" x="167.5" y="-186.5" font-family="Helvetica,sans-Serif" font-size="10.00">infrastructure/idf</text>
<text text-anchor="middle" x="208.5" y="-175.5" font-family="Helvetica,sans-Serif" font-size="10.00">_uart_port.h</text>
</a>
</g>
</g>
<!-- Node1&#45;&gt;Node14 -->
<g id="edge25" class="edge">
<title>Node1&#45;&gt;Node14</title>
<path fill="none" stroke="midnightblue" d="M581.75,-309.7C502.23,-306.44 323.71,-295.93 271.5,-266 248.14,-252.61 230.47,-226.78 219.87,-207.77"/>
<polygon fill="midnightblue" stroke="midnightblue" points="222.89,-206.01 215.11,-198.82 216.71,-209.29 222.89,-206.01"/>
</g>
<!-- Node15 -->
<g id="node15" class="node">
<title>Node15</title>
<g id="a_node15"><a xlink:href="idf__time__port_8h.html" target="_top" xlink:title=" ">
<polygon fill="none" stroke="black" points="1149.5,-235.5 1149.5,-265.5 1247.5,-265.5 1247.5,-235.5 1149.5,-235.5"/>
<text text-anchor="start" x="1157.5" y="-253.5" font-family="Helvetica,sans-Serif" font-size="10.00">infrastructure/idf</text>
<text text-anchor="middle" x="1198.5" y="-242.5" font-family="Helvetica,sans-Serif" font-size="10.00">_time_port.h</text>
</a>
</g>
</g>
<!-- Node1&#45;&gt;Node15 -->
<g id="edge27" class="edge">
<title>Node1&#45;&gt;Node15</title>
<path fill="none" stroke="midnightblue" d="M659.21,-307.69C739.14,-300.76 928.2,-283.89 1086.5,-266 1103.6,-264.07 1122.14,-261.76 1139.13,-259.55"/>
<polygon fill="midnightblue" stroke="midnightblue" points="1140.01,-262.97 1149.48,-258.2 1139.11,-256.02 1140.01,-262.97"/>
</g>
<!-- Node16 -->
<g id="node16" class="node">
<title>Node16</title>
<g id="a_node16"><a xlink:href="idf__onewire_8h.html" target="_top" xlink:title=" ">
<polygon fill="none" stroke="black" points="513.5,-235.5 513.5,-265.5 611.5,-265.5 611.5,-235.5 513.5,-235.5"/>
<text text-anchor="start" x="521.5" y="-253.5" font-family="Helvetica,sans-Serif" font-size="10.00">infrastructure/idf</text>
<text text-anchor="middle" x="562.5" y="-242.5" font-family="Helvetica,sans-Serif" font-size="10.00">_onewire.h</text>
</a>
</g>
</g>
<!-- Node1&#45;&gt;Node16 -->
<g id="edge29" class="edge">
<title>Node1&#45;&gt;Node16</title>
<path fill="none" stroke="midnightblue" d="M612.19,-302.48C604.7,-294.79 593.37,-283.17 583.42,-272.96"/>
<polygon fill="midnightblue" stroke="midnightblue" points="585.66,-270.24 576.17,-265.52 580.64,-275.13 585.66,-270.24"/>
</g>
<!-- Node17 -->
<g id="node17" class="node">
<title>Node17</title>
<g id="a_node17"><a xlink:href="lcd1602__dev_8h.html" target="_top" xlink:title=" ">
<polygon fill="none" stroke="black" points="854,-174 854,-193 977,-193 977,-174 854,-174"/>
<text text-anchor="middle" x="915.5" y="-181" font-family="Helvetica,sans-Serif" font-size="10.00">drivers/lcd1602_dev.h</text>
</a>
</g>
</g>
<!-- Node1&#45;&gt;Node17 -->
<g id="edge31" class="edge">
<title>Node1&#45;&gt;Node17</title>
<path fill="none" stroke="midnightblue" d="M659.01,-310.64C729.55,-309.09 875.31,-301.57 908.5,-266 924.06,-249.33 922.85,-221.5 919.79,-203.08"/>
<polygon fill="midnightblue" stroke="midnightblue" points="923.22,-202.36 917.83,-193.24 916.35,-203.73 923.22,-202.36"/>
</g>
<!-- Node18 -->
<g id="node18" class="node">
<title>Node18</title>
<g id="a_node18"><a xlink:href="lcd1602__fb_8h.html" target="_top" xlink:title=" ">
<polygon fill="none" stroke="black" points="783.5,-241 783.5,-260 899.5,-260 899.5,-241 783.5,-241"/>
<text text-anchor="middle" x="841.5" y="-248" font-family="Helvetica,sans-Serif" font-size="10.00">drivers/lcd1602_fb.h</text>
</a>
</g>
</g>
<!-- Node1&#45;&gt;Node18 -->
<g id="edge36" class="edge">
<title>Node1&#45;&gt;Node18</title>
<path fill="none" stroke="midnightblue" d="M652.16,-302.48C691.06,-292 757.14,-274.21 800.05,-262.66"/>
<polygon fill="midnightblue" stroke="midnightblue" points="801.15,-265.99 809.89,-260.01 799.33,-259.23 801.15,-265.99"/>
</g>
<!-- Node19 -->
<g id="node19" class="node">
<title>Node19</title>
<g id="a_node19"><a xlink:href="ds18b20_8h.html" target="_top" xlink:title=" ">
<polygon fill="none" stroke="black" points="995.5,-174 995.5,-193 1099.5,-193 1099.5,-174 995.5,-174"/>
<text text-anchor="middle" x="1047.5" y="-181" font-family="Helvetica,sans-Serif" font-size="10.00">drivers/ds18b20.h</text>
</a>
</g>
</g>
<!-- Node1&#45;&gt;Node19 -->
<g id="edge40" class="edge">
<title>Node1&#45;&gt;Node19</title>
<path fill="none" stroke="midnightblue" d="M659.37,-310.88C719.23,-309.5 836.65,-301.92 928.5,-266 968.65,-250.3 1008.61,-218.86 1030.48,-199.95"/>
<polygon fill="midnightblue" stroke="midnightblue" points="1033.01,-202.39 1038.2,-193.15 1028.38,-197.14 1033.01,-202.39"/>
</g>
<!-- Node20 -->
<g id="node20" class="node">
<title>Node20</title>
<g id="a_node20"><a xlink:href="logger__core_8h.html" target="_top" xlink:title=" ">
<polygon fill="none" stroke="black" points="1117.5,-174 1117.5,-193 1233.5,-193 1233.5,-174 1117.5,-174"/>
<text text-anchor="middle" x="1175.5" y="-181" font-family="Helvetica,sans-Serif" font-size="10.00">logger/logger_core.h</text>
</a>
</g>
</g>
<!-- Node1&#45;&gt;Node20 -->
<g id="edge45" class="edge">
<title>Node1&#45;&gt;Node20</title>
<path fill="none" stroke="midnightblue" d="M659.05,-309.16C724.01,-305.37 859.03,-294.5 969.5,-266 1035.99,-248.85 1109.94,-215.98 1148.6,-197.66"/>
<polygon fill="midnightblue" stroke="midnightblue" points="1150.58,-200.59 1158.09,-193.12 1147.56,-194.28 1150.58,-200.59"/>
</g>
<!-- Node22 -->
<g id="node22" class="node">
<title>Node22</title>
<g id="a_node22"><a xlink:href="logger__uart__sink_8h.html" target="_top" xlink:title=" ">
<polygon fill="none" stroke="black" points="313.5,-168.5 313.5,-198.5 419.5,-198.5 419.5,-168.5 313.5,-168.5"/>
<text text-anchor="start" x="321.5" y="-186.5" font-family="Helvetica,sans-Serif" font-size="10.00">logger/logger_uart</text>
<text text-anchor="middle" x="366.5" y="-175.5" font-family="Helvetica,sans-Serif" font-size="10.00">_sink.h</text>
</a>
</g>
</g>
<!-- Node1&#45;&gt;Node22 -->
<g id="edge50" class="edge">
<title>Node1&#45;&gt;Node22</title>
<path fill="none" stroke="midnightblue" d="M581.92,-308.87C542.05,-305.1 479.35,-294.71 433.5,-266 410.26,-251.45 391.29,-226.04 379.54,-207.46"/>
<polygon fill="midnightblue" stroke="midnightblue" points="382.4,-205.43 374.22,-198.71 376.42,-209.07 382.4,-205.43"/>
</g>
<!-- Node5 -->
<g id="node5" class="node">
<title>Node5</title>
<g id="a_node5"><a xlink:title=" ">
<polygon fill="none" stroke="#bfbfbf" points="483.5,-56.5 483.5,-75.5 539.5,-75.5 539.5,-56.5 483.5,-56.5"/>
<text text-anchor="middle" x="511.5" y="-63.5" font-family="Helvetica,sans-Serif" font-size="10.00">stddef.h</text>
</a>
</g>
</g>
<!-- Node4&#45;&gt;Node5 -->
<g id="edge4" class="edge">
<title>Node4&#45;&gt;Node5</title>
<path fill="none" stroke="midnightblue" d="M667.19,-112.44C635.38,-103.16 584.48,-88.3 549.6,-78.12"/>
<polygon fill="midnightblue" stroke="midnightblue" points="550.35,-74.69 539.77,-75.25 548.39,-81.41 550.35,-74.69"/>
</g>
<!-- Node6 -->
<g id="node6" class="node">
<title>Node6</title>
<g id="a_node6"><a xlink:title=" ">
<polygon fill="none" stroke="#bfbfbf" points="780,-0.5 780,-19.5 833,-19.5 833,-0.5 780,-0.5"/>
<text text-anchor="middle" x="806.5" y="-7.5" font-family="Helvetica,sans-Serif" font-size="10.00">stdint.h</text>
</a>
</g>
</g>
<!-- Node4&#45;&gt;Node6 -->
<g id="edge5" class="edge">
<title>Node4&#45;&gt;Node6</title>
<path fill="none" stroke="midnightblue" d="M715.39,-112.4C731.03,-104.59 753.1,-91.86 768.5,-76 781.71,-62.4 792.14,-43.35 798.71,-29.38"/>
<polygon fill="midnightblue" stroke="midnightblue" points="802.08,-30.43 802.96,-19.87 795.69,-27.58 802.08,-30.43"/>
</g>
<!-- Node7 -->
<g id="node7" class="node">
<title>Node7</title>
<g id="a_node7"><a xlink:title=" ">
<polygon fill="none" stroke="#bfbfbf" points="697.5,-56.5 697.5,-75.5 759.5,-75.5 759.5,-56.5 697.5,-56.5"/>
<text text-anchor="middle" x="728.5" y="-63.5" font-family="Helvetica,sans-Serif" font-size="10.00">stdbool.h</text>
</a>
</g>
</g>
<!-- Node4&#45;&gt;Node7 -->
<g id="edge6" class="edge">
<title>Node4&#45;&gt;Node7</title>
<path fill="none" stroke="midnightblue" d="M701.78,-112.08C706.21,-104.61 712.66,-93.72 718.12,-84.52"/>
<polygon fill="midnightblue" stroke="midnightblue" points="721.23,-86.14 723.31,-75.75 715.21,-82.57 721.23,-86.14"/>
</g>
<!-- Node8 -->
<g id="node8" class="node">
<title>Node8</title>
<g id="a_node8"><a xlink:href="status_8h.html" target="_top" xlink:title=" ">
<polygon fill="none" stroke="black" points="609.5,-56.5 609.5,-75.5 679.5,-75.5 679.5,-56.5 609.5,-56.5"/>
<text text-anchor="middle" x="644.5" y="-63.5" font-family="Helvetica,sans-Serif" font-size="10.00">ca/status.h</text>
</a>
</g>
</g>
<!-- Node4&#45;&gt;Node8 -->
<g id="edge7" class="edge">
<title>Node4&#45;&gt;Node8</title>
<path fill="none" stroke="midnightblue" d="M687.91,-112.08C680.34,-104.22 669.12,-92.57 659.99,-83.08"/>
<polygon fill="midnightblue" stroke="midnightblue" points="662.38,-80.53 652.93,-75.75 657.34,-85.38 662.38,-80.53"/>
</g>
<!-- Node8&#45;&gt;Node6 -->
<g id="edge8" class="edge">
<title>Node8&#45;&gt;Node6</title>
<path fill="none" stroke="midnightblue" d="M670.17,-56.44C697.42,-47.36 740.68,-32.94 771.15,-22.78"/>
<polygon fill="midnightblue" stroke="midnightblue" points="772.57,-26 780.95,-19.52 770.36,-19.36 772.57,-26"/>
</g>
<!-- Node9&#45;&gt;Node5 -->
<g id="edge10" class="edge">
<title>Node9&#45;&gt;Node5</title>
<path fill="none" stroke="midnightblue" d="M349.08,-112.44C382.79,-103.01 437.07,-87.83 473.49,-77.63"/>
<polygon fill="midnightblue" stroke="midnightblue" points="474.57,-80.97 483.26,-74.9 472.69,-74.23 474.57,-80.97"/>
</g>
<!-- Node9&#45;&gt;Node6 -->
<g id="edge11" class="edge">
<title>Node9&#45;&gt;Node6</title>
<path fill="none" stroke="midnightblue" d="M332.24,-112.38C355.71,-98.1 405.45,-69.76 451.5,-56 563.99,-22.39 703.85,-13.88 769.38,-11.73"/>
<polygon fill="midnightblue" stroke="midnightblue" points="769.72,-15.22 779.61,-11.42 769.51,-8.22 769.72,-15.22"/>
</g>
<!-- Node9&#45;&gt;Node8 -->
<g id="edge12" class="edge">
<title>Node9&#45;&gt;Node8</title>
<path fill="none" stroke="midnightblue" d="M367.66,-112.86C430.38,-102.47 538.01,-84.64 598.95,-74.55"/>
<polygon fill="midnightblue" stroke="midnightblue" points="599.74,-77.96 609.04,-72.87 598.6,-71.06 599.74,-77.96"/>
</g>
<!-- Node10&#45;&gt;Node6 -->
<g id="edge14" class="edge">
<title>Node10&#45;&gt;Node6</title>
<path fill="none" stroke="midnightblue" d="M1114.67,-112.32C1089.32,-98.72 1037.74,-72.25 991.5,-56 941.19,-38.32 880.82,-25.05 843.05,-17.66"/>
<polygon fill="midnightblue" stroke="midnightblue" points="843.5,-14.18 833.02,-15.73 842.18,-21.05 843.5,-14.18"/>
</g>
<!-- Node11&#45;&gt;Node5 -->
<g id="edge17" class="edge">
<title>Node11&#45;&gt;Node5</title>
<path fill="none" stroke="midnightblue" d="M549.07,-112.08C542.65,-104.38 533.19,-93.03 525.38,-83.65"/>
<polygon fill="midnightblue" stroke="midnightblue" points="527.88,-81.19 518.79,-75.75 522.51,-85.67 527.88,-81.19"/>
</g>
<!-- Node11&#45;&gt;Node6 -->
<g id="edge16" class="edge">
<title>Node11&#45;&gt;Node6</title>
<path fill="none" stroke="midnightblue" d="M559.86,-112.27C565.8,-98.09 579.52,-70.22 600.5,-56 651.88,-21.2 725.54,-12.75 769.45,-11.02"/>
<polygon fill="midnightblue" stroke="midnightblue" points="769.78,-14.51 779.67,-10.72 769.57,-7.52 769.78,-14.51"/>
</g>
<!-- Node11&#45;&gt;Node7 -->
<g id="edge18" class="edge">
<title>Node11&#45;&gt;Node7</title>
<path fill="none" stroke="midnightblue" d="M583.75,-112.44C612.94,-103.28 659.42,-88.69 691.81,-78.52"/>
<polygon fill="midnightblue" stroke="midnightblue" points="692.88,-81.85 701.37,-75.52 690.78,-75.17 692.88,-81.85"/>
</g>
<!-- Node11&#45;&gt;Node8 -->
<g id="edge19" class="edge">
<title>Node11&#45;&gt;Node8</title>
<path fill="none" stroke="midnightblue" d="M570.64,-112.32C584.37,-103.9 605.44,-90.97 621.56,-81.07"/>
<polygon fill="midnightblue" stroke="midnightblue" points="623.7,-83.87 630.4,-75.65 620.04,-77.9 623.7,-83.87"/>
</g>
<!-- Node12&#45;&gt;Node5 -->
<g id="edge21" class="edge">
<title>Node12&#45;&gt;Node5</title>
<path fill="none" stroke="midnightblue" d="M445.19,-112.32C457.4,-103.98 476.08,-91.21 490.5,-81.35"/>
<polygon fill="midnightblue" stroke="midnightblue" points="492.56,-84.19 498.84,-75.65 488.61,-78.41 492.56,-84.19"/>
</g>
<!-- Node12&#45;&gt;Node6 -->
<g id="edge22" class="edge">
<title>Node12&#45;&gt;Node6</title>
<path fill="none" stroke="midnightblue" d="M435.47,-112.08C440.79,-97.64 453.41,-69.4 474.5,-56 522.92,-25.24 693.78,-15.17 769.69,-12.16"/>
<polygon fill="midnightblue" stroke="midnightblue" points="769.89,-15.66 779.75,-11.78 769.62,-8.66 769.89,-15.66"/>
</g>
<!-- Node13&#45;&gt;Node4 -->
<g id="edge24" class="edge">
<title>Node13&#45;&gt;Node4</title>
<path fill="none" stroke="midnightblue" d="M680.5,-235.48C683.75,-212.62 690.2,-167.3 693.84,-141.71"/>
<polygon fill="midnightblue" stroke="midnightblue" points="697.31,-142.18 695.25,-131.79 690.38,-141.2 697.31,-142.18"/>
</g>
<!-- Node14&#45;&gt;Node9 -->
<g id="edge26" class="edge">
<title>Node14&#45;&gt;Node9</title>
<path fill="none" stroke="midnightblue" d="M234.57,-168.4C252.37,-158.77 275.81,-146.09 293.4,-136.58"/>
<polygon fill="midnightblue" stroke="midnightblue" points="295.36,-139.49 302.49,-131.66 292.03,-133.34 295.36,-139.49"/>
</g>
<!-- Node15&#45;&gt;Node10 -->
<g id="edge28" class="edge">
<title>Node15&#45;&gt;Node10</title>
<path fill="none" stroke="midnightblue" d="M1215.56,-235.46C1233.67,-218.82 1257.72,-190.51 1242.5,-168 1230.65,-150.47 1210.72,-139.77 1190.94,-133.23"/>
<polygon fill="midnightblue" stroke="midnightblue" points="1191.85,-129.85 1181.27,-130.35 1189.85,-136.56 1191.85,-129.85"/>
</g>
<!-- Node16&#45;&gt;Node11 -->
<g id="edge30" class="edge">
<title>Node16&#45;&gt;Node11</title>
<path fill="none" stroke="midnightblue" d="M561.83,-235.48C560.76,-212.72 558.62,-167.7 557.4,-142.06"/>
<polygon fill="midnightblue" stroke="midnightblue" points="560.89,-141.61 556.92,-131.79 553.89,-141.94 560.89,-141.61"/>
</g>
<!-- Node17&#45;&gt;Node4 -->
<g id="edge33" class="edge">
<title>Node17&#45;&gt;Node4</title>
<path fill="none" stroke="midnightblue" d="M884.12,-173.98C845.58,-163.5 780.09,-145.71 737.58,-134.16"/>
<polygon fill="midnightblue" stroke="midnightblue" points="738.39,-130.75 727.82,-131.51 736.55,-137.51 738.39,-130.75"/>
</g>
<!-- Node17&#45;&gt;Node6 -->
<g id="edge32" class="edge">
<title>Node17&#45;&gt;Node6</title>
<path fill="none" stroke="midnightblue" d="M910.61,-173.74C898.91,-152.94 868.16,-99.09 839.5,-56 833.2,-46.52 825.73,-36.26 819.49,-27.94"/>
<polygon fill="midnightblue" stroke="midnightblue" points="822.15,-25.65 813.32,-19.79 816.57,-29.88 822.15,-25.65"/>
</g>
<!-- Node17&#45;&gt;Node8 -->
<g id="edge35" class="edge">
<title>Node17&#45;&gt;Node8</title>
<path fill="none" stroke="midnightblue" d="M904.11,-173.97C884.24,-159.42 841.51,-129.7 801.5,-112 765.23,-95.96 721.73,-84.01 689.73,-76.48"/>
<polygon fill="midnightblue" stroke="midnightblue" points="690.29,-73.01 679.76,-74.18 688.72,-79.84 690.29,-73.01"/>
</g>
<!-- Node17&#45;&gt;Node10 -->
<g id="edge34" class="edge">
<title>Node17&#45;&gt;Node10</title>
<path fill="none" stroke="midnightblue" d="M946.3,-173.98C984.06,-163.53 1048.16,-145.79 1089.91,-134.23"/>
<polygon fill="midnightblue" stroke="midnightblue" points="1091.05,-137.55 1099.75,-131.51 1089.18,-130.8 1091.05,-137.55"/>
</g>
<!-- Node18&#45;&gt;Node6 -->
<g id="edge37" class="edge">
<title>Node18&#45;&gt;Node6</title>
<path fill="none" stroke="midnightblue" d="M840.21,-240.73C835.12,-206.03 816.32,-77.89 809.23,-29.59"/>
<polygon fill="midnightblue" stroke="midnightblue" points="812.68,-28.99 807.76,-19.6 805.75,-30 812.68,-28.99"/>
</g>
<!-- Node18&#45;&gt;Node8 -->
<g id="edge39" class="edge">
<title>Node18&#45;&gt;Node8</title>
<path fill="none" stroke="midnightblue" d="M835.98,-240.68C829.79,-230.69 819.58,-213.88 811.5,-199 790.91,-161.1 800.64,-140.76 768.5,-112 755.95,-100.77 716.89,-87.59 685.92,-78.41"/>
<polygon fill="midnightblue" stroke="midnightblue" points="686.78,-75.01 676.2,-75.57 684.82,-81.73 686.78,-75.01"/>
</g>
<!-- Node18&#45;&gt;Node17 -->
<g id="edge38" class="edge">
<title>Node18&#45;&gt;Node17</title>
<path fill="none" stroke="midnightblue" d="M851.48,-240.73C863.35,-230.31 883.39,-212.71 897.88,-199.97"/>
<polygon fill="midnightblue" stroke="midnightblue" points="900.47,-202.36 905.68,-193.13 895.86,-197.1 900.47,-202.36"/>
</g>
<!-- Node19&#45;&gt;Node6 -->
<g id="edge41" class="edge">
<title>Node19&#45;&gt;Node6</title>
<path fill="none" stroke="midnightblue" d="M1035.55,-174C996.92,-146.51 875.14,-59.85 826.68,-25.36"/>
<polygon fill="midnightblue" stroke="midnightblue" points="828.7,-22.5 818.52,-19.56 824.64,-28.21 828.7,-22.5"/>
</g>
<!-- Node19&#45;&gt;Node7 -->
<g id="edge42" class="edge">
<title>Node19&#45;&gt;Node7</title>
<path fill="none" stroke="midnightblue" d="M1023.78,-173.91C967.73,-153.62 826.9,-102.63 762.1,-79.16"/>
<polygon fill="midnightblue" stroke="midnightblue" points="762.97,-75.76 752.37,-75.64 760.58,-82.34 762.97,-75.76"/>
</g>
<!-- Node19&#45;&gt;Node10 -->
<g id="edge44" class="edge">
<title>Node19&#45;&gt;Node10</title>
<path fill="none" stroke="midnightblue" d="M1059.39,-173.98C1072.7,-164.43 1094.5,-148.81 1110.46,-137.37"/>
<polygon fill="midnightblue" stroke="midnightblue" points="1112.54,-140.18 1118.63,-131.51 1108.46,-134.49 1112.54,-140.18"/>
</g>
<!-- Node19&#45;&gt;Node11 -->
<g id="edge43" class="edge">
<title>Node19&#45;&gt;Node11</title>
<path fill="none" stroke="midnightblue" d="M1015.06,-173.93C1005.88,-171.74 995.84,-169.57 986.5,-168 830.32,-141.79 786.88,-150.24 625.39,-132.06"/>
<polygon fill="midnightblue" stroke="midnightblue" points="625.42,-128.54 615.09,-130.88 624.63,-135.49 625.42,-128.54"/>
</g>
<!-- Node20&#45;&gt;Node6 -->
<g id="edge46" class="edge">
<title>Node20&#45;&gt;Node6</title>
<path fill="none" stroke="midnightblue" d="M1181.28,-173.82C1189.97,-159.58 1204,-130.96 1190.5,-112 1149.81,-54.88 931.2,-24.75 843.22,-14.8"/>
<polygon fill="midnightblue" stroke="midnightblue" points="843.48,-11.3 833.16,-13.68 842.71,-18.26 843.48,-11.3"/>
</g>
<!-- Node20&#45;&gt;Node10 -->
<g id="edge49" class="edge">
<title>Node20&#45;&gt;Node10</title>
<path fill="none" stroke="midnightblue" d="M1169.05,-173.98C1162.3,-165.05 1151.53,-150.81 1143.09,-139.64"/>
<polygon fill="midnightblue" stroke="midnightblue" points="1145.76,-137.37 1136.94,-131.51 1140.18,-141.6 1145.76,-137.37"/>
</g>
<!-- Node20&#45;&gt;Node12 -->
<g id="edge48" class="edge">
<title>Node20&#45;&gt;Node12</title>
<path fill="none" stroke="midnightblue" d="M1140.91,-173.94C1130.54,-171.67 1119.11,-169.45 1108.5,-168 838.35,-131.15 764.68,-161.19 489.79,-132.02"/>
<polygon fill="midnightblue" stroke="midnightblue" points="489.82,-128.5 479.51,-130.91 489.07,-135.46 489.82,-128.5"/>
</g>
<!-- Node21 -->
<g id="node21" class="node">
<title>Node21</title>
<g id="a_node21"><a xlink:title=" ">
<polygon fill="none" stroke="#bfbfbf" points="1005.5,-112.5 1005.5,-131.5 1061.5,-131.5 1061.5,-112.5 1005.5,-112.5"/>
<text text-anchor="middle" x="1033.5" y="-119.5" font-family="Helvetica,sans-Serif" font-size="10.00">stdarg.h</text>
</a>
</g>
</g>
<!-- Node20&#45;&gt;Node21 -->
<g id="edge47" class="edge">
<title>Node20&#45;&gt;Node21</title>
<path fill="none" stroke="midnightblue" d="M1155.15,-173.98C1131.11,-163.9 1090.9,-147.05 1063.34,-135.5"/>
<polygon fill="midnightblue" stroke="midnightblue" points="1064.38,-132.15 1053.81,-131.51 1061.68,-138.6 1064.38,-132.15"/>
</g>
<!-- Node22&#45;&gt;Node9 -->
<g id="edge52" class="edge">
<title>Node22&#45;&gt;Node9</title>
<path fill="none" stroke="midnightblue" d="M355.12,-168.4C348.15,-159.75 339.19,-148.64 331.87,-139.58"/>
<polygon fill="midnightblue" stroke="midnightblue" points="334.49,-137.24 325.48,-131.66 329.04,-141.64 334.49,-137.24"/>
</g>
<!-- Node22&#45;&gt;Node12 -->
<g id="edge51" class="edge">
<title>Node22&#45;&gt;Node12</title>
<path fill="none" stroke="midnightblue" d="M382.14,-168.4C392.13,-159.4 405.08,-147.72 415.35,-138.47"/>
<polygon fill="midnightblue" stroke="midnightblue" points="417.81,-140.95 422.9,-131.66 413.13,-135.75 417.81,-140.95"/>
</g>
</g>
</svg>
        <g id="navigator" transform="translate(0 0)" fill="#404254">
                <rect fill="#f2f5e9" fill-opacity="0.5" stroke="#606060" stroke-width=".5" x="0" y="0" width="60" height="60"/>
                <use id="zoomplus" xlink:href="#zoomPlus" x="17" y="9" onmousedown="handleZoom(evt,'in')"/>
                <use id="zoomminus" xlink:href="#zoomMin" x="42" y="9" onmousedown="handleZoom(evt,'out')"/>
                <use id="reset" xlink:href="#resetDef" x="30" y="36" onmousedown="handleReset()"/>
                <g id="arrowUp" xlink:href="#dirArrow" transform="translate(30 24)" onmousedown="handlePan(0,-1)">
                  <use xlink:href="#rim" fill="#404040">
                        <set attributeName="fill" to="#808080" begin="arrowUp.mouseover" end="arrowUp.mouseout"/>
                  </use>
                  <path fill="none" stroke="white" stroke-width="1.5" d="M0,-3.0v7 M-2.5,-0.5L0,-3.0L2.5,-0.5"/>
                </g>
                <g id="arrowRight" xlink:href="#dirArrow" transform="rotate(90) translate(36 -43)" onmousedown="handlePan(1,0)">
                  <use xlink:href="#rim" fill="#404040">
                        <set attributeName="fill" to="#808080" begin="arrowRight.mouseover" end="arrowRight.mouseout"/>
                  </use>
                  <path fill="none" stroke="white" stroke-width="1.5" d="M0,-3.0v7 M-2.5,-0.5L0,-3.0L2.5,-0.5"/>
                </g>
                <g id="arrowDown" xlink:href="#dirArrow" transform="rotate(180) translate(-30 -48)" onmousedown="handlePan(0,1)">
                  <use xlink:href="#rim" fill="#404040">
                        <set attributeName="fill" to="#808080" begin="arrowDown.mouseover" end="arrowDown.mouseout"/>
                  </use>
                  <path fill="none" stroke="white" stroke-width="1.5" d="M0,-3.0v7 M-2.5,-0.5L0,-3.0L2.5,-0.5"/>
                </g>
                <g id="arrowLeft" xlink:href="#dirArrow" transform="rotate(270) translate(-36 17)" onmousedown="handlePan(-1,0)">
                  <use xlink:href="#rim" fill="#404040">
                        <set attributeName="fill" to="#808080" begin="arrowLeft.mouseover" end="arrowLeft.mouseout"/>
                  </use>
                  <path fill="none" stroke="white" stroke-width="1.5" d="M0,-3.0v7 M-2.5,-0.5L0,-3.0L2.5,-0.5"/>
                </g>
        </g>
        <svg viewBox="0 0 15 15" width="100%" height="30px" preserveAspectRatio="xMaxYMin meet">
         <g id="arrow_out" transform="scale(0.3 0.3)">
          <a xlink:href="main_8c__incl_org.svg" target="_base">
           <rect id="button" ry="5" rx="5" y="6" x="6" height="38" width="38"
                fill="#f2f5e9" fill-opacity="0.5" stroke="#606060" stroke-width="1.0"/>
           <path id="arrow"
             d="M 11.500037,31.436501 C 11.940474,20.09759 22.043105,11.32322 32.158766,21.979434 L 37.068811,17.246167 C 37.068811,17.246167 37.088388,32 37.088388,32 L 22.160133,31.978069 C 22.160133,31.978069 26.997745,27.140456 26.997745,27.140456 C 18.528582,18.264221 13.291696,25.230495 11.500037,31.436501 z"
             style="fill:#404040;"/>
          </a>
         </g>
        </svg>
</svg>
