<?xml version="1.0" encoding="UTF-8" standalone="no"?>
<!DOCTYPE svg PUBLIC "-//W3C//DTD SVG 1.1//EN"
 "http://www.w3.org/Graphics/SVG/1.1/DTD/svg11.dtd">
<!-- Generated by graphviz version 2.43.0 (0)
 -->
<!-- Title: components/ports/include/ports/onewire_port.h Pages: 1 -->
<svg width="245pt" height="151pt"
 viewBox="0.00 0.00 244.91 151.00" xmlns="http://www.w3.org/2000/svg" xmlns:xlink="http://www.w3.org/1999/xlink">
<g id="graph0" class="graph" transform="scale(1 1) rotate(0) translate(4 147)">
<title>components/ports/include/ports/onewire_port.h</title>
<!-- Node1 -->
<g id="node1" class="node">
<title>Node1</title>
<g id="a_node1"><a xlink:title=" ">
<polygon fill="#bfbfbf" stroke="black" points="7.41,-112.5 7.41,-142.5 150.41,-142.5 150.41,-112.5 7.41,-112.5"/>
<text text-anchor="start" x="15.41" y="-130.5" font-family="Helvetica,sans-Serif" font-size="10.00">components/ports/include</text>
<text text-anchor="middle" x="78.91" y="-119.5" font-family="Helvetica,sans-Serif" font-size="10.00">/ports/onewire_port.h</text>
</a>
</g>
</g>
<!-- Node2 -->
<g id="node2" class="node">
<title>Node2</title>
<g id="a_node2"><a xlink:title=" ">
<polygon fill="none" stroke="#bfbfbf" points="66.41,-0.5 66.41,-19.5 119.41,-19.5 119.41,-0.5 66.41,-0.5"/>
<text text-anchor="middle" x="92.91" y="-7.5" font-family="Helvetica,sans-Serif" font-size="10.00">stdint.h</text>
</a>
</g>
</g>
<!-- Node1&#45;&gt;Node2 -->
<g id="edge1" class="edge">
<title>Node1&#45;&gt;Node2</title>
<path fill="none" stroke="midnightblue" d="M44.53,-112.38C18.6,-99.52 -10.27,-79.06 3.91,-56 15.41,-37.29 37.38,-26.07 56.61,-19.51"/>
<polygon fill="midnightblue" stroke="midnightblue" points="57.83,-22.8 66.34,-16.5 55.75,-16.11 57.83,-22.8"/>
</g>
<!-- Node3 -->
<g id="node3" class="node">
<title>Node3</title>
<g id="a_node3"><a xlink:title=" ">
<polygon fill="none" stroke="#bfbfbf" points="12.91,-56.5 12.91,-75.5 68.91,-75.5 68.91,-56.5 12.91,-56.5"/>
<text text-anchor="middle" x="40.91" y="-63.5" font-family="Helvetica,sans-Serif" font-size="10.00">stddef.h</text>
</a>
</g>
</g>
<!-- Node1&#45;&gt;Node3 -->
<g id="edge2" class="edge">
<title>Node1&#45;&gt;Node3</title>
<path fill="none" stroke="midnightblue" d="M69.9,-112.4C64.49,-103.93 57.58,-93.1 51.85,-84.14"/>
<polygon fill="midnightblue" stroke="midnightblue" points="54.77,-82.2 46.44,-75.66 48.87,-85.97 54.77,-82.2"/>
</g>
<!-- Node4 -->
<g id="node4" class="node">
<title>Node4</title>
<g id="a_node4"><a xlink:title=" ">
<polygon fill="none" stroke="#bfbfbf" points="86.91,-56.5 86.91,-75.5 148.91,-75.5 148.91,-56.5 86.91,-56.5"/>
<text text-anchor="middle" x="117.91" y="-63.5" font-family="Helvetica,sans-Serif" font-size="10.00">stdbool.h</text>
</a>
</g>
</g>
<!-- Node1&#45;&gt;Node4 -->
<g id="edge3" class="edge">
<title>Node1&#45;&gt;Node4</title>
<path fill="none" stroke="midnightblue" d="M88.15,-112.4C93.7,-103.93 100.8,-93.1 106.67,-84.14"/>
<polygon fill="midnightblue" stroke="midnightblue" points="109.68,-85.94 112.23,-75.66 103.82,-82.1 109.68,-85.94"/>
</g>
<!-- Node5 -->
<g id="node5" class="node">
<title>Node5</title>
<g id="a_node5"><a xlink:href="status_8h.html" target="_top" xlink:title=" ">
<polygon fill="none" stroke="black" points="166.91,-56.5 166.91,-75.5 236.91,-75.5 236.91,-56.5 166.91,-56.5"/>
<text text-anchor="middle" x="201.91" y="-63.5" font-family="Helvetica,sans-Serif" font-size="10.00">ca/status.h</text>
</a>
</g>
</g>
<!-- Node1&#45;&gt;Node5 -->
<g id="edge4" class="edge">
<title>Node1&#45;&gt;Node5</title>
<path fill="none" stroke="midnightblue" d="M108.06,-112.4C128.33,-102.59 155.15,-89.62 174.93,-80.05"/>
<polygon fill="midnightblue" stroke="midnightblue" points="176.53,-83.16 184.01,-75.66 173.48,-76.86 176.53,-83.16"/>
</g>
<!-- Node5&#45;&gt;Node2 -->
<g id="edge5" class="edge">
<title>Node5&#45;&gt;Node2</title>
<path fill="none" stroke="midnightblue" d="M184.39,-56.32C166.83,-47.62 139.58,-34.12 119.38,-24.11"/>
<polygon fill="midnightblue" stroke="midnightblue" points="120.89,-20.96 110.38,-19.65 117.78,-27.23 120.89,-20.96"/>
</g>
</g>
</svg>
