<?xml version="1.0" encoding="UTF-8" standalone="no"?>
<!DOCTYPE svg PUBLIC "-//W3C//DTD SVG 1.1//EN"
 "http://www.w3.org/Graphics/SVG/1.1/DTD/svg11.dtd">
<!-- Generated by graphviz version 2.43.0 (0)
 -->
<!-- Title: components/ports/include/ports/onewire_port.h Pages: 1 -->
<svg width="415pt" height="184pt"
 viewBox="0.00 0.00 414.50 184.00" xmlns="http://www.w3.org/2000/svg" xmlns:xlink="http://www.w3.org/1999/xlink">
<g id="graph0" class="graph" transform="scale(1 1) rotate(0) translate(4 180)">
<title>components/ports/include/ports/onewire_port.h</title>
<!-- Node1 -->
<g id="node1" class="node">
<title>Node1</title>
<g id="a_node1"><a xlink:title=" ">
<polygon fill="#bfbfbf" stroke="black" points="116,-145.5 116,-175.5 259,-175.5 259,-145.5 116,-145.5"/>
<text text-anchor="start" x="124" y="-163.5" font-family="Helvetica,sans-Serif" font-size="10.00">components/ports/include</text>
<text text-anchor="middle" x="187.5" y="-152.5" font-family="Helvetica,sans-Serif" font-size="10.00">/ports/onewire_port.h</text>
</a>
</g>
</g>
<!-- Node2 -->
<g id="node2" class="node">
<title>Node2</title>
<g id="a_node2"><a xlink:href="ds18b20_8h.html" target="_top" xlink:title=" ">
<polygon fill="none" stroke="black" points="23.5,-67.5 23.5,-108.5 159.5,-108.5 159.5,-67.5 23.5,-67.5"/>
<text text-anchor="start" x="31.5" y="-96.5" font-family="Helvetica,sans-Serif" font-size="10.00">components/drivers</text>
<text text-anchor="start" x="31.5" y="-85.5" font-family="Helvetica,sans-Serif" font-size="10.00">/ds18b20/include/drivers</text>
<text text-anchor="middle" x="91.5" y="-74.5" font-family="Helvetica,sans-Serif" font-size="10.00">/ds18b20.h</text>
</a>
</g>
</g>
<!-- Node1&#45;&gt;Node2 -->
<g id="edge1" class="edge">
<title>Node1&#45;&gt;Node2</title>
<path fill="none" stroke="midnightblue" d="M159.87,-139.21C146.76,-129.58 131.16,-118.12 118.17,-108.59"/>
<polygon fill="midnightblue" stroke="midnightblue" points="157.94,-142.14 168.07,-145.23 162.08,-136.49 157.94,-142.14"/>
</g>
<!-- Node4 -->
<g id="node4" class="node">
<title>Node4</title>
<g id="a_node4"><a xlink:href="main_8c.html" target="_top" xlink:title=" ">
<polygon fill="none" stroke="black" points="149,-6 149,-25 226,-25 226,-6 149,-6"/>
<text text-anchor="middle" x="187.5" y="-13" font-family="Helvetica,sans-Serif" font-size="10.00">main/main.c</text>
</a>
</g>
</g>
<!-- Node1&#45;&gt;Node4 -->
<g id="edge7" class="edge">
<title>Node1&#45;&gt;Node4</title>
<path fill="none" stroke="midnightblue" d="M187.5,-135.24C187.5,-102.78 187.5,-46.81 187.5,-25.28"/>
<polygon fill="midnightblue" stroke="midnightblue" points="184,-135.27 187.5,-145.27 191,-135.27 184,-135.27"/>
</g>
<!-- Node5 -->
<g id="node5" class="node">
<title>Node5</title>
<g id="a_node5"><a xlink:href="idf__onewire_8h.html" target="_top" xlink:title=" ">
<polygon fill="none" stroke="black" points="215.5,-67.5 215.5,-108.5 399.5,-108.5 399.5,-67.5 215.5,-67.5"/>
<text text-anchor="start" x="223.5" y="-96.5" font-family="Helvetica,sans-Serif" font-size="10.00">components/infrastructure</text>
<text text-anchor="start" x="223.5" y="-85.5" font-family="Helvetica,sans-Serif" font-size="10.00">/idf_onewire/include/infrastructure</text>
<text text-anchor="middle" x="307.5" y="-74.5" font-family="Helvetica,sans-Serif" font-size="10.00">/idf_onewire.h</text>
</a>
</g>
</g>
<!-- Node1&#45;&gt;Node5 -->
<g id="edge4" class="edge">
<title>Node1&#45;&gt;Node5</title>
<path fill="none" stroke="midnightblue" d="M220.35,-140.2C237.02,-130.41 257.24,-118.53 274,-108.68"/>
<polygon fill="midnightblue" stroke="midnightblue" points="218.34,-137.32 211.5,-145.4 221.89,-143.35 218.34,-137.32"/>
</g>
<!-- Node3 -->
<g id="node3" class="node">
<title>Node3</title>
<g id="a_node3"><a xlink:href="ds18b20_8c.html" target="_top" xlink:title=" ">
<polygon fill="none" stroke="black" points="0,-0.5 0,-30.5 131,-30.5 131,-0.5 0,-0.5"/>
<text text-anchor="start" x="8" y="-18.5" font-family="Helvetica,sans-Serif" font-size="10.00">components/drivers</text>
<text text-anchor="middle" x="65.5" y="-7.5" font-family="Helvetica,sans-Serif" font-size="10.00">/ds18b20/src/ds18b20.c</text>
</a>
</g>
</g>
<!-- Node2&#45;&gt;Node3 -->
<g id="edge2" class="edge">
<title>Node2&#45;&gt;Node3</title>
<path fill="none" stroke="midnightblue" d="M80.79,-57.97C77.35,-48.63 73.69,-38.7 70.81,-30.89"/>
<polygon fill="midnightblue" stroke="midnightblue" points="77.51,-59.19 84.26,-67.36 84.08,-56.77 77.51,-59.19"/>
</g>
<!-- Node2&#45;&gt;Node4 -->
<g id="edge3" class="edge">
<title>Node2&#45;&gt;Node4</title>
<path fill="none" stroke="midnightblue" d="M126.48,-61.31C143.75,-48.63 163.46,-34.16 175.69,-25.17"/>
<polygon fill="midnightblue" stroke="midnightblue" points="124.23,-58.62 118.24,-67.36 128.37,-64.26 124.23,-58.62"/>
</g>
<!-- Node5&#45;&gt;Node4 -->
<g id="edge6" class="edge">
<title>Node5&#45;&gt;Node4</title>
<path fill="none" stroke="midnightblue" d="M265.24,-62.17C243.31,-49.29 217.9,-34.36 202.26,-25.17"/>
<polygon fill="midnightblue" stroke="midnightblue" points="263.68,-65.31 274.07,-67.36 267.22,-59.28 263.68,-65.31"/>
</g>
<!-- Node6 -->
<g id="node6" class="node">
<title>Node6</title>
<g id="a_node6"><a xlink:href="idf__onewire_8c.html" target="_top" xlink:title=" ">
<polygon fill="none" stroke="black" points="244.5,-0.5 244.5,-30.5 406.5,-30.5 406.5,-0.5 244.5,-0.5"/>
<text text-anchor="start" x="252.5" y="-18.5" font-family="Helvetica,sans-Serif" font-size="10.00">components/infrastructure</text>
<text text-anchor="middle" x="325.5" y="-7.5" font-family="Helvetica,sans-Serif" font-size="10.00">/idf_onewire/src/idf_onewire.c</text>
</a>
</g>
</g>
<!-- Node5&#45;&gt;Node6 -->
<g id="edge5" class="edge">
<title>Node5&#45;&gt;Node6</title>
<path fill="none" stroke="midnightblue" d="M314.99,-57.67C317.35,-48.42 319.85,-38.61 321.83,-30.89"/>
<polygon fill="midnightblue" stroke="midnightblue" points="311.6,-56.81 312.51,-67.36 318.38,-58.54 311.6,-56.81"/>
</g>
</g>
</svg>
