<?xml version="1.0" encoding="UTF-8" standalone="no"?>
<!DOCTYPE svg PUBLIC "-//W3C//DTD SVG 1.1//EN"
 "http://www.w3.org/Graphics/SVG/1.1/DTD/svg11.dtd">
<!-- Generated by graphviz version 2.43.0 (0)
 -->
<!-- Title: components/ca/include/ca/status.h Pages: 1 -->
<svg width="1364pt" height="340pt"
 viewBox="0.00 0.00 1364.00 340.00" xmlns="http://www.w3.org/2000/svg" xmlns:xlink="http://www.w3.org/1999/xlink">
<g id="graph0" class="graph" transform="scale(1 1) rotate(0) translate(4 336)">
<title>components/ca/include/ca/status.h</title>
<!-- Node1 -->
<g id="node1" class="node">
<title>Node1</title>
<g id="a_node1"><a xlink:title=" ">
<polygon fill="#bfbfbf" stroke="black" points="392.5,-301.5 392.5,-331.5 521.5,-331.5 521.5,-301.5 392.5,-301.5"/>
<text text-anchor="start" x="400.5" y="-319.5" font-family="Helvetica,sans-Serif" font-size="10.00">components/ca/include</text>
<text text-anchor="middle" x="457" y="-308.5" font-family="Helvetica,sans-Serif" font-size="10.00">/ca/status.h</text>
</a>
</g>
</g>
<!-- Node2 -->
<g id="node2" class="node">
<title>Node2</title>
<g id="a_node2"><a xlink:href="lcd1602__dev_8h.html" target="_top" xlink:title=" ">
<polygon fill="none" stroke="black" points="220.5,-156.5 220.5,-197.5 353.5,-197.5 353.5,-156.5 220.5,-156.5"/>
<text text-anchor="start" x="228.5" y="-185.5" font-family="Helvetica,sans-Serif" font-size="10.00">components/drivers</text>
<text text-anchor="start" x="228.5" y="-174.5" font-family="Helvetica,sans-Serif" font-size="10.00">/lcd1602/include/drivers</text>
<text text-anchor="middle" x="287" y="-163.5" font-family="Helvetica,sans-Serif" font-size="10.00">/lcd1602_dev.h</text>
</a>
</g>
</g>
<!-- Node1&#45;&gt;Node2 -->
<g id="edge1" class="edge">
<title>Node1&#45;&gt;Node2</title>
<path fill="none" stroke="midnightblue" d="M422.39,-296.18C407.61,-287.36 390.46,-276.36 376,-265 349.32,-244.05 321.89,-216.07 304.67,-197.57"/>
<polygon fill="midnightblue" stroke="midnightblue" points="420.85,-299.33 431.24,-301.37 424.39,-293.29 420.85,-299.33"/>
</g>
<!-- Node3 -->
<g id="node3" class="node">
<title>Node3</title>
<g id="a_node3"><a xlink:href="lcd1602__fb_8h.html" target="_top" xlink:title=" ">
<polygon fill="none" stroke="black" points="3.5,-78.5 3.5,-119.5 136.5,-119.5 136.5,-78.5 3.5,-78.5"/>
<text text-anchor="start" x="11.5" y="-107.5" font-family="Helvetica,sans-Serif" font-size="10.00">components/drivers</text>
<text text-anchor="start" x="11.5" y="-96.5" font-family="Helvetica,sans-Serif" font-size="10.00">/lcd1602/include/drivers</text>
<text text-anchor="middle" x="70" y="-85.5" font-family="Helvetica,sans-Serif" font-size="10.00">/lcd1602_fb.h</text>
</a>
</g>
</g>
<!-- Node1&#45;&gt;Node3 -->
<g id="edge7" class="edge">
<title>Node1&#45;&gt;Node3</title>
<path fill="none" stroke="midnightblue" d="M412.56,-297.44C390.29,-288.15 363.02,-276.41 339,-265 281,-237.46 265.92,-231.28 211,-198 169.57,-172.89 123.92,-140.17 96.11,-119.62"/>
<polygon fill="midnightblue" stroke="midnightblue" points="411.51,-300.8 422.09,-301.4 414.19,-294.33 411.51,-300.8"/>
</g>
<!-- Node7 -->
<g id="node7" class="node">
<title>Node7</title>
<g id="a_node7"><a xlink:href="i2c__async__port_8h.html" target="_top" xlink:title=" ">
<polygon fill="none" stroke="black" points="385.5,-234.5 385.5,-264.5 528.5,-264.5 528.5,-234.5 385.5,-234.5"/>
<text text-anchor="start" x="393.5" y="-252.5" font-family="Helvetica,sans-Serif" font-size="10.00">components/ports/include</text>
<text text-anchor="middle" x="457" y="-241.5" font-family="Helvetica,sans-Serif" font-size="10.00">/ports/i2c_async_port.h</text>
</a>
</g>
</g>
<!-- Node1&#45;&gt;Node7 -->
<g id="edge8" class="edge">
<title>Node1&#45;&gt;Node7</title>
<path fill="none" stroke="midnightblue" d="M457,-291.11C457,-282.15 457,-272.32 457,-264.58"/>
<polygon fill="midnightblue" stroke="midnightblue" points="453.5,-291.4 457,-301.4 460.5,-291.4 453.5,-291.4"/>
</g>
<!-- Node10 -->
<g id="node10" class="node">
<title>Node10</title>
<g id="a_node10"><a xlink:href="onewire__port_8h.html" target="_top" xlink:title=" ">
<polygon fill="none" stroke="black" points="615.5,-162 615.5,-192 758.5,-192 758.5,-162 615.5,-162"/>
<text text-anchor="start" x="623.5" y="-180" font-family="Helvetica,sans-Serif" font-size="10.00">components/ports/include</text>
<text text-anchor="middle" x="687" y="-169" font-family="Helvetica,sans-Serif" font-size="10.00">/ports/onewire_port.h</text>
</a>
</g>
</g>
<!-- Node1&#45;&gt;Node10 -->
<g id="edge14" class="edge">
<title>Node1&#45;&gt;Node10</title>
<path fill="none" stroke="midnightblue" d="M489.6,-296.01C536.53,-267.95 622.05,-216.83 663.38,-192.12"/>
<polygon fill="midnightblue" stroke="midnightblue" points="487.53,-293.17 480.75,-301.3 491.13,-299.18 487.53,-293.17"/>
</g>
<!-- Node15 -->
<g id="node15" class="node">
<title>Node15</title>
<g id="a_node15"><a xlink:href="uart__port_8h.html" target="_top" xlink:title=" ">
<polygon fill="none" stroke="black" points="984.5,-162 984.5,-192 1127.5,-192 1127.5,-162 984.5,-162"/>
<text text-anchor="start" x="992.5" y="-180" font-family="Helvetica,sans-Serif" font-size="10.00">components/ports/include</text>
<text text-anchor="middle" x="1056" y="-169" font-family="Helvetica,sans-Serif" font-size="10.00">/ports/uart_port.h</text>
</a>
</g>
</g>
<!-- Node1&#45;&gt;Node15 -->
<g id="edge22" class="edge">
<title>Node1&#45;&gt;Node15</title>
<path fill="none" stroke="midnightblue" d="M528.08,-299.18C646.69,-271.96 882.98,-217.72 994.73,-192.06"/>
<polygon fill="midnightblue" stroke="midnightblue" points="526.97,-295.85 518.01,-301.5 528.54,-302.67 526.97,-295.85"/>
</g>
<!-- Node2&#45;&gt;Node3 -->
<g id="edge2" class="edge">
<title>Node2&#45;&gt;Node3</title>
<path fill="none" stroke="midnightblue" d="M221.4,-153.03C190.86,-142.33 154.9,-129.73 125.69,-119.51"/>
<polygon fill="midnightblue" stroke="midnightblue" points="220.52,-156.43 231.12,-156.43 222.84,-149.82 220.52,-156.43"/>
</g>
<!-- Node5 -->
<g id="node5" class="node">
<title>Node5</title>
<g id="a_node5"><a xlink:href="main_8c.html" target="_top" xlink:title=" ">
<polygon fill="none" stroke="black" points="562.5,-11.5 562.5,-30.5 639.5,-30.5 639.5,-11.5 562.5,-11.5"/>
<text text-anchor="middle" x="601" y="-18.5" font-family="Helvetica,sans-Serif" font-size="10.00">main/main.c</text>
</a>
</g>
</g>
<!-- Node2&#45;&gt;Node5 -->
<g id="edge6" class="edge">
<title>Node2&#45;&gt;Node5</title>
<path fill="none" stroke="midnightblue" d="M305.46,-147.85C321.51,-125.61 346.74,-95.49 376,-78 434.91,-42.79 515.16,-29.64 562.19,-24.78"/>
<polygon fill="midnightblue" stroke="midnightblue" points="302.45,-146.05 299.57,-156.24 308.18,-150.07 302.45,-146.05"/>
</g>
<!-- Node6 -->
<g id="node6" class="node">
<title>Node6</title>
<g id="a_node6"><a xlink:href="lcd1602__dev_8c.html" target="_top" xlink:title=" ">
<polygon fill="none" stroke="black" points="154.5,-84 154.5,-114 301.5,-114 301.5,-84 154.5,-84"/>
<text text-anchor="start" x="162.5" y="-102" font-family="Helvetica,sans-Serif" font-size="10.00">components/drivers</text>
<text text-anchor="middle" x="228" y="-91" font-family="Helvetica,sans-Serif" font-size="10.00">/lcd1602/src/lcd1602_dev.c</text>
</a>
</g>
</g>
<!-- Node2&#45;&gt;Node6 -->
<g id="edge5" class="edge">
<title>Node2&#45;&gt;Node6</title>
<path fill="none" stroke="midnightblue" d="M265.51,-148.32C256.53,-136.75 246.48,-123.8 239.04,-114.23"/>
<polygon fill="midnightblue" stroke="midnightblue" points="262.91,-150.68 271.81,-156.43 268.44,-146.38 262.91,-150.68"/>
</g>
<!-- Node4 -->
<g id="node4" class="node">
<title>Node4</title>
<g id="a_node4"><a xlink:href="lcd1602__fb_8c.html" target="_top" xlink:title=" ">
<polygon fill="none" stroke="black" points="0,-6 0,-36 140,-36 140,-6 0,-6"/>
<text text-anchor="start" x="8" y="-24" font-family="Helvetica,sans-Serif" font-size="10.00">components/drivers</text>
<text text-anchor="middle" x="70" y="-13" font-family="Helvetica,sans-Serif" font-size="10.00">/lcd1602/src/lcd1602_fb.c</text>
</a>
</g>
</g>
<!-- Node3&#45;&gt;Node4 -->
<g id="edge3" class="edge">
<title>Node3&#45;&gt;Node4</title>
<path fill="none" stroke="midnightblue" d="M70,-68.28C70,-57.25 70,-45.25 70,-36.23"/>
<polygon fill="midnightblue" stroke="midnightblue" points="66.5,-68.43 70,-78.43 73.5,-68.43 66.5,-68.43"/>
</g>
<!-- Node3&#45;&gt;Node5 -->
<g id="edge4" class="edge">
<title>Node3&#45;&gt;Node5</title>
<path fill="none" stroke="midnightblue" d="M146.51,-77.83C305.64,-47.64 484.91,-31.19 562.28,-24.93"/>
<polygon fill="midnightblue" stroke="midnightblue" points="145.71,-74.42 136.55,-79.74 147.03,-81.29 145.71,-74.42"/>
</g>
<!-- Node7&#45;&gt;Node2 -->
<g id="edge9" class="edge">
<title>Node7&#45;&gt;Node2</title>
<path fill="none" stroke="midnightblue" d="M413.67,-230.53C389.37,-220.45 359.03,-207.87 334.13,-197.55"/>
<polygon fill="midnightblue" stroke="midnightblue" points="412.43,-233.8 423.01,-234.4 415.11,-227.34 412.43,-233.8"/>
</g>
<!-- Node7&#45;&gt;Node5 -->
<g id="edge13" class="edge">
<title>Node7&#45;&gt;Node5</title>
<path fill="none" stroke="midnightblue" d="M508.54,-230.05C524.08,-222.27 539.94,-211.76 551,-198 593.4,-145.28 599.86,-58.45 600.83,-30.77"/>
<polygon fill="midnightblue" stroke="midnightblue" points="507.02,-226.89 499.46,-234.31 510,-233.23 507.02,-226.89"/>
</g>
<!-- Node8 -->
<g id="node8" class="node">
<title>Node8</title>
<g id="a_node8"><a xlink:href="idf__i2c__service_8h.html" target="_top" xlink:title=" ">
<polygon fill="none" stroke="black" points="372,-156.5 372,-197.5 542,-197.5 542,-156.5 372,-156.5"/>
<text text-anchor="start" x="380" y="-185.5" font-family="Helvetica,sans-Serif" font-size="10.00">components/infrastructure</text>
<text text-anchor="start" x="380" y="-174.5" font-family="Helvetica,sans-Serif" font-size="10.00">/idf_i2c_service/include</text>
<text text-anchor="middle" x="457" y="-163.5" font-family="Helvetica,sans-Serif" font-size="10.00">/infrastructure/idf_i2c_service.h</text>
</a>
</g>
</g>
<!-- Node7&#45;&gt;Node8 -->
<g id="edge10" class="edge">
<title>Node7&#45;&gt;Node8</title>
<path fill="none" stroke="midnightblue" d="M457,-223.98C457,-215.35 457,-205.76 457,-197.59"/>
<polygon fill="midnightblue" stroke="midnightblue" points="453.5,-224.23 457,-234.23 460.5,-224.23 453.5,-224.23"/>
</g>
<!-- Node8&#45;&gt;Node5 -->
<g id="edge12" class="edge">
<title>Node8&#45;&gt;Node5</title>
<path fill="none" stroke="midnightblue" d="M412.49,-150.21C402.24,-141.97 392.69,-131.84 387,-120 378.91,-103.18 375.59,-92.78 387,-78 408.24,-50.49 506.42,-33.89 562.13,-26.52"/>
<polygon fill="midnightblue" stroke="midnightblue" points="410.69,-153.24 420.8,-156.42 414.88,-147.63 410.69,-153.24"/>
</g>
<!-- Node9 -->
<g id="node9" class="node">
<title>Node9</title>
<g id="a_node9"><a xlink:href="idf__i2c__service_8c.html" target="_top" xlink:title=" ">
<polygon fill="none" stroke="black" points="396,-78.5 396,-119.5 542,-119.5 542,-78.5 396,-78.5"/>
<text text-anchor="start" x="404" y="-107.5" font-family="Helvetica,sans-Serif" font-size="10.00">components/infrastructure</text>
<text text-anchor="start" x="404" y="-96.5" font-family="Helvetica,sans-Serif" font-size="10.00">/idf_i2c_service/src/idf</text>
<text text-anchor="middle" x="469" y="-85.5" font-family="Helvetica,sans-Serif" font-size="10.00">_i2c_service.c</text>
</a>
</g>
</g>
<!-- Node8&#45;&gt;Node9 -->
<g id="edge11" class="edge">
<title>Node8&#45;&gt;Node9</title>
<path fill="none" stroke="midnightblue" d="M461.69,-146.3C463.11,-137.3 464.63,-127.65 465.92,-119.51"/>
<polygon fill="midnightblue" stroke="midnightblue" points="458.19,-146 460.09,-156.43 465.11,-147.1 458.19,-146"/>
</g>
<!-- Node10&#45;&gt;Node5 -->
<g id="edge21" class="edge">
<title>Node10&#45;&gt;Node5</title>
<path fill="none" stroke="midnightblue" d="M658.65,-155.32C647.32,-145.73 635.07,-133.48 627,-120 609.27,-90.4 603.45,-48.68 601.69,-30.75"/>
<polygon fill="midnightblue" stroke="midnightblue" points="656.69,-158.23 666.66,-161.8 661.09,-152.79 656.69,-158.23"/>
</g>
<!-- Node11 -->
<g id="node11" class="node">
<title>Node11</title>
<g id="a_node11"><a xlink:href="ds18b20_8h.html" target="_top" xlink:title=" ">
<polygon fill="none" stroke="black" points="636,-78.5 636,-119.5 772,-119.5 772,-78.5 636,-78.5"/>
<text text-anchor="start" x="644" y="-107.5" font-family="Helvetica,sans-Serif" font-size="10.00">components/drivers</text>
<text text-anchor="start" x="644" y="-96.5" font-family="Helvetica,sans-Serif" font-size="10.00">/ds18b20/include/drivers</text>
<text text-anchor="middle" x="704" y="-85.5" font-family="Helvetica,sans-Serif" font-size="10.00">/ds18b20.h</text>
</a>
</g>
</g>
<!-- Node10&#45;&gt;Node11 -->
<g id="edge15" class="edge">
<title>Node10&#45;&gt;Node11</title>
<path fill="none" stroke="midnightblue" d="M692.45,-151.66C694.76,-141.33 697.41,-129.44 699.6,-119.68"/>
<polygon fill="midnightblue" stroke="midnightblue" points="688.96,-151.18 690.2,-161.7 695.8,-152.71 688.96,-151.18"/>
</g>
<!-- Node13 -->
<g id="node13" class="node">
<title>Node13</title>
<g id="a_node13"><a xlink:href="idf__onewire_8h.html" target="_top" xlink:title=" ">
<polygon fill="none" stroke="black" points="790,-78.5 790,-119.5 974,-119.5 974,-78.5 790,-78.5"/>
<text text-anchor="start" x="798" y="-107.5" font-family="Helvetica,sans-Serif" font-size="10.00">components/infrastructure</text>
<text text-anchor="start" x="798" y="-96.5" font-family="Helvetica,sans-Serif" font-size="10.00">/idf_onewire/include/infrastructure</text>
<text text-anchor="middle" x="882" y="-85.5" font-family="Helvetica,sans-Serif" font-size="10.00">/idf_onewire.h</text>
</a>
</g>
</g>
<!-- Node10&#45;&gt;Node13 -->
<g id="edge18" class="edge">
<title>Node10&#45;&gt;Node13</title>
<path fill="none" stroke="midnightblue" d="M732.91,-158.11C762.56,-146.55 801.15,-131.51 831.64,-119.63"/>
<polygon fill="midnightblue" stroke="midnightblue" points="731.27,-154.99 723.22,-161.88 733.81,-161.51 731.27,-154.99"/>
</g>
<!-- Node11&#45;&gt;Node5 -->
<g id="edge17" class="edge">
<title>Node11&#45;&gt;Node5</title>
<path fill="none" stroke="midnightblue" d="M669.3,-72.4C649.62,-57.88 626.26,-40.64 612.59,-30.55"/>
<polygon fill="midnightblue" stroke="midnightblue" points="667.35,-75.31 677.47,-78.43 671.51,-69.67 667.35,-75.31"/>
</g>
<!-- Node12 -->
<g id="node12" class="node">
<title>Node12</title>
<g id="a_node12"><a xlink:href="ds18b20_8c.html" target="_top" xlink:title=" ">
<polygon fill="none" stroke="black" points="657.5,-6 657.5,-36 788.5,-36 788.5,-6 657.5,-6"/>
<text text-anchor="start" x="665.5" y="-24" font-family="Helvetica,sans-Serif" font-size="10.00">components/drivers</text>
<text text-anchor="middle" x="723" y="-13" font-family="Helvetica,sans-Serif" font-size="10.00">/ds18b20/src/ds18b20.c</text>
</a>
</g>
</g>
<!-- Node11&#45;&gt;Node12 -->
<g id="edge16" class="edge">
<title>Node11&#45;&gt;Node12</title>
<path fill="none" stroke="midnightblue" d="M711.34,-68.62C714.12,-57.5 717.17,-45.34 719.44,-36.23"/>
<polygon fill="midnightblue" stroke="midnightblue" points="707.92,-67.88 708.89,-78.43 714.71,-69.58 707.92,-67.88"/>
</g>
<!-- Node13&#45;&gt;Node5 -->
<g id="edge20" class="edge">
<title>Node13&#45;&gt;Node5</title>
<path fill="none" stroke="midnightblue" d="M779.75,-77.12C738.7,-67.79 691.2,-55.77 649,-42 639.22,-38.81 628.63,-34.49 619.89,-30.69"/>
<polygon fill="midnightblue" stroke="midnightblue" points="779.24,-80.6 789.77,-79.38 780.78,-73.77 779.24,-80.6"/>
</g>
<!-- Node14 -->
<g id="node14" class="node">
<title>Node14</title>
<g id="a_node14"><a xlink:href="idf__onewire_8c.html" target="_top" xlink:title=" ">
<polygon fill="none" stroke="black" points="807,-6 807,-36 969,-36 969,-6 807,-6"/>
<text text-anchor="start" x="815" y="-24" font-family="Helvetica,sans-Serif" font-size="10.00">components/infrastructure</text>
<text text-anchor="middle" x="888" y="-13" font-family="Helvetica,sans-Serif" font-size="10.00">/idf_onewire/src/idf_onewire.c</text>
</a>
</g>
</g>
<!-- Node13&#45;&gt;Node14 -->
<g id="edge19" class="edge">
<title>Node13&#45;&gt;Node14</title>
<path fill="none" stroke="midnightblue" d="M884.35,-68.28C885.22,-57.25 886.16,-45.25 886.88,-36.23"/>
<polygon fill="midnightblue" stroke="midnightblue" points="880.84,-68.18 883.55,-78.43 887.82,-68.73 880.84,-68.18"/>
</g>
<!-- Node15&#45;&gt;Node5 -->
<g id="edge29" class="edge">
<title>Node15&#45;&gt;Node5</title>
<path fill="none" stroke="midnightblue" d="M1042.11,-153.26C1025.7,-127.21 998.66,-86.94 983,-78 853.35,-3.95 793.62,-79.09 649,-42 638.51,-39.31 627.3,-34.75 618.36,-30.66"/>
<polygon fill="midnightblue" stroke="midnightblue" points="1039.18,-155.17 1047.44,-161.81 1045.12,-151.47 1039.18,-155.17"/>
</g>
<!-- Node16 -->
<g id="node16" class="node">
<title>Node16</title>
<g id="a_node16"><a xlink:href="idf__uart__port_8h.html" target="_top" xlink:title=" ">
<polygon fill="none" stroke="black" points="1030,-78.5 1030,-119.5 1190,-119.5 1190,-78.5 1030,-78.5"/>
<text text-anchor="start" x="1038" y="-107.5" font-family="Helvetica,sans-Serif" font-size="10.00">components/infrastructure</text>
<text text-anchor="start" x="1038" y="-96.5" font-family="Helvetica,sans-Serif" font-size="10.00">/idf_uart_port/include</text>
<text text-anchor="middle" x="1110" y="-85.5" font-family="Helvetica,sans-Serif" font-size="10.00">/infrastructure/idf_uart_port.h</text>
</a>
</g>
</g>
<!-- Node15&#45;&gt;Node16 -->
<g id="edge23" class="edge">
<title>Node15&#45;&gt;Node16</title>
<path fill="none" stroke="midnightblue" d="M1072.15,-153.27C1079.74,-142.58 1088.72,-129.96 1096.02,-119.68"/>
<polygon fill="midnightblue" stroke="midnightblue" points="1069.1,-151.53 1066.16,-161.7 1074.8,-155.58 1069.1,-151.53"/>
</g>
<!-- Node18 -->
<g id="node18" class="node">
<title>Node18</title>
<g id="a_node18"><a xlink:href="logger__uart__sink_8h.html" target="_top" xlink:title=" ">
<polygon fill="none" stroke="black" points="1208,-78.5 1208,-119.5 1356,-119.5 1356,-78.5 1208,-78.5"/>
<text text-anchor="start" x="1216" y="-107.5" font-family="Helvetica,sans-Serif" font-size="10.00">components/logger_uart</text>
<text text-anchor="start" x="1216" y="-96.5" font-family="Helvetica,sans-Serif" font-size="10.00">_sink/include/logger/logger</text>
<text text-anchor="middle" x="1282" y="-85.5" font-family="Helvetica,sans-Serif" font-size="10.00">_uart_sink.h</text>
</a>
</g>
</g>
<!-- Node15&#45;&gt;Node18 -->
<g id="edge26" class="edge">
<title>Node15&#45;&gt;Node18</title>
<path fill="none" stroke="midnightblue" d="M1107.64,-158.64C1142.29,-146.98 1188,-131.61 1223.92,-119.53"/>
<polygon fill="midnightblue" stroke="midnightblue" points="1106.08,-155.47 1097.72,-161.97 1108.31,-162.1 1106.08,-155.47"/>
</g>
<!-- Node16&#45;&gt;Node5 -->
<g id="edge25" class="edge">
<title>Node16&#45;&gt;Node5</title>
<path fill="none" stroke="midnightblue" d="M1019.85,-78.61C1018.56,-78.4 1017.28,-78.2 1016,-78 854.04,-52.91 807.95,-81.96 649,-42 638.49,-39.36 627.29,-34.8 618.35,-30.7"/>
<polygon fill="midnightblue" stroke="midnightblue" points="1019.41,-82.09 1029.86,-80.32 1020.59,-75.19 1019.41,-82.09"/>
</g>
<!-- Node17 -->
<g id="node17" class="node">
<title>Node17</title>
<g id="a_node17"><a xlink:href="idf__uart__port_8c.html" target="_top" xlink:title=" ">
<polygon fill="none" stroke="black" points="1037,-0.5 1037,-41.5 1183,-41.5 1183,-0.5 1037,-0.5"/>
<text text-anchor="start" x="1045" y="-29.5" font-family="Helvetica,sans-Serif" font-size="10.00">components/infrastructure</text>
<text text-anchor="start" x="1045" y="-18.5" font-family="Helvetica,sans-Serif" font-size="10.00">/idf_uart_port/src/idf</text>
<text text-anchor="middle" x="1110" y="-7.5" font-family="Helvetica,sans-Serif" font-size="10.00">_uart_port.c</text>
</a>
</g>
</g>
<!-- Node16&#45;&gt;Node17 -->
<g id="edge24" class="edge">
<title>Node16&#45;&gt;Node17</title>
<path fill="none" stroke="midnightblue" d="M1110,-68.3C1110,-59.3 1110,-49.65 1110,-41.51"/>
<polygon fill="midnightblue" stroke="midnightblue" points="1106.5,-68.43 1110,-78.43 1113.5,-68.43 1106.5,-68.43"/>
</g>
<!-- Node18&#45;&gt;Node5 -->
<g id="edge28" class="edge">
<title>Node18&#45;&gt;Node5</title>
<path fill="none" stroke="midnightblue" d="M1197.71,-77.96C954.89,-42.7 884.25,-97.1 649,-42 638.28,-39.49 626.87,-34.83 617.87,-30.64"/>
<polygon fill="midnightblue" stroke="midnightblue" points="1197.51,-81.47 1207.91,-79.48 1198.54,-74.55 1197.51,-81.47"/>
</g>
<!-- Node19 -->
<g id="node19" class="node">
<title>Node19</title>
<g id="a_node19"><a xlink:href="logger__uart__sink_8c.html" target="_top" xlink:title=" ">
<polygon fill="none" stroke="black" points="1214.5,-0.5 1214.5,-41.5 1349.5,-41.5 1349.5,-0.5 1214.5,-0.5"/>
<text text-anchor="start" x="1222.5" y="-29.5" font-family="Helvetica,sans-Serif" font-size="10.00">components/logger_uart</text>
<text text-anchor="start" x="1222.5" y="-18.5" font-family="Helvetica,sans-Serif" font-size="10.00">_sink/src/logger_uart</text>
<text text-anchor="middle" x="1282" y="-7.5" font-family="Helvetica,sans-Serif" font-size="10.00">_sink.c</text>
</a>
</g>
</g>
<!-- Node18&#45;&gt;Node19 -->
<g id="edge27" class="edge">
<title>Node18&#45;&gt;Node19</title>
<path fill="none" stroke="midnightblue" d="M1282,-68.3C1282,-59.3 1282,-49.65 1282,-41.51"/>
<polygon fill="midnightblue" stroke="midnightblue" points="1278.5,-68.43 1282,-78.43 1285.5,-68.43 1278.5,-68.43"/>
</g>
</g>
</svg>
