<?xml version="1.0" encoding="UTF-8" standalone="no"?>
<!DOCTYPE svg PUBLIC "-//W3C//DTD SVG 1.1//EN"
 "http://www.w3.org/Graphics/SVG/1.1/DTD/svg11.dtd">
<!-- Generated by graphviz version 2.43.0 (0)
 -->
<!-- Title: lcd1602_fb_t Pages: 1 -->
<svg width="180pt" height="162pt"
 viewBox="0.00 0.00 179.50 162.00" xmlns="http://www.w3.org/2000/svg" xmlns:xlink="http://www.w3.org/1999/xlink">
<g id="graph0" class="graph" transform="scale(1 1) rotate(0) translate(4 158)">
<title>lcd1602_fb_t</title>
<!-- Node1 -->
<g id="node1" class="node">
<title>Node1</title>
<g id="a_node1"><a xlink:title=" ">
<polygon fill="#bfbfbf" stroke="black" points="39.5,-0.5 39.5,-19.5 118.5,-19.5 118.5,-0.5 39.5,-0.5"/>
<text text-anchor="middle" x="79" y="-7.5" font-family="Helvetica,sans-Serif" font-size="10.00">lcd1602_fb_t</text>
</a>
</g>
</g>
<!-- Node2 -->
<g id="node2" class="node">
<title>Node2</title>
<g id="a_node2"><a xlink:href="structlcd1602__dev__t.html" target="_top" xlink:title=" ">
<polygon fill="none" stroke="black" points="35.5,-67.5 35.5,-86.5 122.5,-86.5 122.5,-67.5 35.5,-67.5"/>
<text text-anchor="middle" x="79" y="-74.5" font-family="Helvetica,sans-Serif" font-size="10.00">lcd1602_dev_t</text>
</a>
</g>
</g>
<!-- Node2&#45;&gt;Node1 -->
<g id="edge1" class="edge">
<title>Node2&#45;&gt;Node1</title>
<path fill="none" stroke="#9a32cd" stroke-dasharray="5,2" d="M79,-57.04C79,-44.67 79,-29.12 79,-19.63"/>
<polygon fill="#9a32cd" stroke="#9a32cd" points="75.5,-57.23 79,-67.23 82.5,-57.23 75.5,-57.23"/>
<text text-anchor="middle" x="90" y="-41" font-family="Helvetica,sans-Serif" font-size="10.00"> dev</text>
</g>
<!-- Node3 -->
<g id="node3" class="node">
<title>Node3</title>
<g id="a_node3"><a xlink:href="structtime__port.html" target="_top" xlink:title=" ">
<polygon fill="none" stroke="black" points="0,-134.5 0,-153.5 64,-153.5 64,-134.5 0,-134.5"/>
<text text-anchor="middle" x="32" y="-141.5" font-family="Helvetica,sans-Serif" font-size="10.00">time_port</text>
</a>
</g>
</g>
<!-- Node3&#45;&gt;Node2 -->
<g id="edge2" class="edge">
<title>Node3&#45;&gt;Node2</title>
<path fill="none" stroke="#9a32cd" stroke-dasharray="5,2" d="M44.36,-125.9C53.49,-113.27 65.55,-96.6 72.76,-86.63"/>
<polygon fill="#9a32cd" stroke="#9a32cd" points="41.36,-124.08 38.34,-134.23 47.03,-128.18 41.36,-124.08"/>
<text text-anchor="middle" x="72" y="-108" font-family="Helvetica,sans-Serif" font-size="10.00"> time</text>
</g>
<!-- Node4 -->
<g id="node4" class="node">
<title>Node4</title>
<g id="a_node4"><a xlink:href="structi2c__async__port.html" target="_top" xlink:title=" ">
<polygon fill="none" stroke="black" points="82.5,-134.5 82.5,-153.5 171.5,-153.5 171.5,-134.5 82.5,-134.5"/>
<text text-anchor="middle" x="127" y="-141.5" font-family="Helvetica,sans-Serif" font-size="10.00">i2c_async_port</text>
</a>
</g>
</g>
<!-- Node4&#45;&gt;Node2 -->
<g id="edge3" class="edge">
<title>Node4&#45;&gt;Node2</title>
<path fill="none" stroke="#9a32cd" stroke-dasharray="5,2" d="M114.38,-125.9C105.05,-113.27 92.74,-96.6 85.37,-86.63"/>
<polygon fill="#9a32cd" stroke="#9a32cd" points="111.77,-128.27 120.53,-134.23 117.4,-124.11 111.77,-128.27"/>
<text text-anchor="middle" x="114" y="-108" font-family="Helvetica,sans-Serif" font-size="10.00"> i2c</text>
</g>
</g>
</svg>
