<?xml version="1.0" encoding="UTF-8" standalone="no"?>
<!DOCTYPE svg PUBLIC "-//W3C//DTD SVG 1.1//EN"
 "http://www.w3.org/Graphics/SVG/1.1/DTD/svg11.dtd">
<!-- Generated by graphviz version 2.43.0 (0)
 -->
<!-- Title: components/ports/include/ports/time_port.h Pages: 1 -->
<svg width="927pt" height="262pt"
 viewBox="0.00 0.00 927.11 262.00" xmlns="http://www.w3.org/2000/svg" xmlns:xlink="http://www.w3.org/1999/xlink">
<g id="graph0" class="graph" transform="scale(1 1) rotate(0) translate(4 258)">
<title>components/ports/include/ports/time_port.h</title>
<!-- Node1 -->
<g id="node1" class="node">
<title>Node1</title>
<g id="a_node1"><a xlink:title=" ">
<polygon fill="#bfbfbf" stroke="black" points="196.61,-223.5 196.61,-253.5 339.61,-253.5 339.61,-223.5 196.61,-223.5"/>
<text text-anchor="start" x="204.61" y="-241.5" font-family="Helvetica,sans-Serif" font-size="10.00">components/ports/include</text>
<text text-anchor="middle" x="268.11" y="-230.5" font-family="Helvetica,sans-Serif" font-size="10.00">/ports/time_port.h</text>
</a>
</g>
</g>
<!-- Node2 -->
<g id="node2" class="node">
<title>Node2</title>
<g id="a_node2"><a xlink:href="ds18b20_8h.html" target="_top" xlink:title=" ">
<polygon fill="none" stroke="black" points="200.11,-145.5 200.11,-186.5 336.11,-186.5 336.11,-145.5 200.11,-145.5"/>
<text text-anchor="start" x="208.11" y="-174.5" font-family="Helvetica,sans-Serif" font-size="10.00">components/drivers</text>
<text text-anchor="start" x="208.11" y="-163.5" font-family="Helvetica,sans-Serif" font-size="10.00">/ds18b20/include/drivers</text>
<text text-anchor="middle" x="268.11" y="-152.5" font-family="Helvetica,sans-Serif" font-size="10.00">/ds18b20.h</text>
</a>
</g>
</g>
<!-- Node1&#45;&gt;Node2 -->
<g id="edge1" class="edge">
<title>Node1&#45;&gt;Node2</title>
<path fill="none" stroke="midnightblue" d="M268.11,-212.98C268.11,-204.35 268.11,-194.76 268.11,-186.59"/>
<polygon fill="midnightblue" stroke="midnightblue" points="264.61,-213.23 268.11,-223.23 271.61,-213.23 264.61,-213.23"/>
</g>
<!-- Node4 -->
<g id="node4" class="node">
<title>Node4</title>
<g id="a_node4"><a xlink:href="main_8c.html" target="_top" xlink:title=" ">
<polygon fill="none" stroke="black" points="337.61,-6 337.61,-25 414.61,-25 414.61,-6 337.61,-6"/>
<text text-anchor="middle" x="376.11" y="-13" font-family="Helvetica,sans-Serif" font-size="10.00">main/main.c</text>
</a>
</g>
</g>
<!-- Node1&#45;&gt;Node4 -->
<g id="edge16" class="edge">
<title>Node1&#45;&gt;Node4</title>
<path fill="none" stroke="midnightblue" d="M186.13,-232.62C118.89,-226.71 31.31,-213.95 9.11,-187 -3.24,-172.02 -3.56,-85.18 13.11,-67 56.05,-20.15 252.98,-15.67 337.45,-15.96"/>
<polygon fill="midnightblue" stroke="midnightblue" points="186.05,-236.13 196.31,-233.48 186.64,-229.15 186.05,-236.13"/>
</g>
<!-- Node5 -->
<g id="node5" class="node">
<title>Node5</title>
<g id="a_node5"><a xlink:href="lcd1602__dev_8h.html" target="_top" xlink:title=" ">
<polygon fill="none" stroke="black" points="636.61,-145.5 636.61,-186.5 769.61,-186.5 769.61,-145.5 636.61,-145.5"/>
<text text-anchor="start" x="644.61" y="-174.5" font-family="Helvetica,sans-Serif" font-size="10.00">components/drivers</text>
<text text-anchor="start" x="644.61" y="-163.5" font-family="Helvetica,sans-Serif" font-size="10.00">/lcd1602/include/drivers</text>
<text text-anchor="middle" x="703.11" y="-152.5" font-family="Helvetica,sans-Serif" font-size="10.00">/lcd1602_dev.h</text>
</a>
</g>
</g>
<!-- Node1&#45;&gt;Node5 -->
<g id="edge4" class="edge">
<title>Node1&#45;&gt;Node5</title>
<path fill="none" stroke="midnightblue" d="M349.83,-224.26C432.74,-210.82 559.52,-190.27 636.53,-177.79"/>
<polygon fill="midnightblue" stroke="midnightblue" points="349.25,-220.8 339.94,-225.86 350.37,-227.71 349.25,-220.8"/>
</g>
<!-- Node9 -->
<g id="node9" class="node">
<title>Node9</title>
<g id="a_node9"><a xlink:href="idf__time__port_8h.html" target="_top" xlink:title=" ">
<polygon fill="none" stroke="black" points="18.61,-145.5 18.61,-186.5 181.61,-186.5 181.61,-145.5 18.61,-145.5"/>
<text text-anchor="start" x="26.61" y="-174.5" font-family="Helvetica,sans-Serif" font-size="10.00">components/infrastructure</text>
<text text-anchor="start" x="26.61" y="-163.5" font-family="Helvetica,sans-Serif" font-size="10.00">/idf_time_port/include</text>
<text text-anchor="middle" x="100.11" y="-152.5" font-family="Helvetica,sans-Serif" font-size="10.00">/infrastructure/idf_time_port.h</text>
</a>
</g>
</g>
<!-- Node1&#45;&gt;Node9 -->
<g id="edge10" class="edge">
<title>Node1&#45;&gt;Node9</title>
<path fill="none" stroke="midnightblue" d="M225.29,-219.53C201.28,-209.45 171.29,-196.87 146.69,-186.55"/>
<polygon fill="midnightblue" stroke="midnightblue" points="223.94,-222.76 234.51,-223.4 226.65,-216.31 223.94,-222.76"/>
</g>
<!-- Node11 -->
<g id="node11" class="node">
<title>Node11</title>
<g id="a_node11"><a xlink:href="logger__core_8h.html" target="_top" xlink:title=" ">
<polygon fill="none" stroke="black" points="354.61,-145.5 354.61,-186.5 491.61,-186.5 491.61,-145.5 354.61,-145.5"/>
<text text-anchor="start" x="362.61" y="-174.5" font-family="Helvetica,sans-Serif" font-size="10.00">components/logger_core</text>
<text text-anchor="start" x="362.61" y="-163.5" font-family="Helvetica,sans-Serif" font-size="10.00">/include/logger/logger</text>
<text text-anchor="middle" x="423.11" y="-152.5" font-family="Helvetica,sans-Serif" font-size="10.00">_core.h</text>
</a>
</g>
</g>
<!-- Node1&#45;&gt;Node11 -->
<g id="edge13" class="edge">
<title>Node1&#45;&gt;Node11</title>
<path fill="none" stroke="midnightblue" d="M308.5,-219.13C330.5,-209.12 357.74,-196.73 380.13,-186.55"/>
<polygon fill="midnightblue" stroke="midnightblue" points="306.76,-216.08 299.1,-223.4 309.65,-222.45 306.76,-216.08"/>
</g>
<!-- Node3 -->
<g id="node3" class="node">
<title>Node3</title>
<g id="a_node3"><a xlink:href="ds18b20_8c.html" target="_top" xlink:title=" ">
<polygon fill="none" stroke="black" points="197.61,-73 197.61,-103 328.61,-103 328.61,-73 197.61,-73"/>
<text text-anchor="start" x="205.61" y="-91" font-family="Helvetica,sans-Serif" font-size="10.00">components/drivers</text>
<text text-anchor="middle" x="263.11" y="-80" font-family="Helvetica,sans-Serif" font-size="10.00">/ds18b20/src/ds18b20.c</text>
</a>
</g>
</g>
<!-- Node2&#45;&gt;Node3 -->
<g id="edge2" class="edge">
<title>Node2&#45;&gt;Node3</title>
<path fill="none" stroke="midnightblue" d="M266.15,-135.28C265.43,-124.25 264.64,-112.25 264.04,-103.23"/>
<polygon fill="midnightblue" stroke="midnightblue" points="262.67,-135.68 266.82,-145.43 269.66,-135.22 262.67,-135.68"/>
</g>
<!-- Node2&#45;&gt;Node4 -->
<g id="edge3" class="edge">
<title>Node2&#45;&gt;Node4</title>
<path fill="none" stroke="midnightblue" d="M306.7,-139.15C317.56,-130.51 328.69,-120.21 337.11,-109 357.51,-81.82 369.46,-42.38 374,-25.12"/>
<polygon fill="midnightblue" stroke="midnightblue" points="304.32,-136.56 298.5,-145.41 308.57,-142.12 304.32,-136.56"/>
</g>
<!-- Node5&#45;&gt;Node4 -->
<g id="edge9" class="edge">
<title>Node5&#45;&gt;Node4</title>
<path fill="none" stroke="midnightblue" d="M725.28,-137.15C739.45,-115.78 752.24,-86.71 735.11,-67 693.92,-19.61 498.91,-15.42 414.83,-15.87"/>
<polygon fill="midnightblue" stroke="midnightblue" points="722.3,-135.3 719.42,-145.49 728.03,-139.32 722.3,-135.3"/>
</g>
<!-- Node6 -->
<g id="node6" class="node">
<title>Node6</title>
<g id="a_node6"><a xlink:href="lcd1602__fb_8h.html" target="_top" xlink:title=" ">
<polygon fill="none" stroke="black" points="782.61,-67.5 782.61,-108.5 915.61,-108.5 915.61,-67.5 782.61,-67.5"/>
<text text-anchor="start" x="790.61" y="-96.5" font-family="Helvetica,sans-Serif" font-size="10.00">components/drivers</text>
<text text-anchor="start" x="790.61" y="-85.5" font-family="Helvetica,sans-Serif" font-size="10.00">/lcd1602/include/drivers</text>
<text text-anchor="middle" x="849.11" y="-74.5" font-family="Helvetica,sans-Serif" font-size="10.00">/lcd1602_fb.h</text>
</a>
</g>
</g>
<!-- Node5&#45;&gt;Node6 -->
<g id="edge5" class="edge">
<title>Node5&#45;&gt;Node6</title>
<path fill="none" stroke="midnightblue" d="M749.66,-140.77C769.67,-130.35 792.75,-118.34 811.64,-108.51"/>
<polygon fill="midnightblue" stroke="midnightblue" points="747.96,-137.71 740.71,-145.43 751.19,-143.92 747.96,-137.71"/>
</g>
<!-- Node8 -->
<g id="node8" class="node">
<title>Node8</title>
<g id="a_node8"><a xlink:href="lcd1602__dev_8c.html" target="_top" xlink:title=" ">
<polygon fill="none" stroke="black" points="578.61,-73 578.61,-103 725.61,-103 725.61,-73 578.61,-73"/>
<text text-anchor="start" x="586.61" y="-91" font-family="Helvetica,sans-Serif" font-size="10.00">components/drivers</text>
<text text-anchor="middle" x="652.11" y="-80" font-family="Helvetica,sans-Serif" font-size="10.00">/lcd1602/src/lcd1602_dev.c</text>
</a>
</g>
</g>
<!-- Node5&#45;&gt;Node8 -->
<g id="edge8" class="edge">
<title>Node5&#45;&gt;Node8</title>
<path fill="none" stroke="midnightblue" d="M684.31,-136.98C676.6,-125.5 668.02,-112.71 661.65,-103.23"/>
<polygon fill="midnightblue" stroke="midnightblue" points="681.5,-139.07 689.97,-145.43 687.31,-135.17 681.5,-139.07"/>
</g>
<!-- Node6&#45;&gt;Node4 -->
<g id="edge7" class="edge">
<title>Node6&#45;&gt;Node4</title>
<path fill="none" stroke="midnightblue" d="M772.55,-67.85C771.06,-67.56 769.58,-67.27 768.11,-67 639.62,-42.94 485.29,-26.73 414.73,-20"/>
<polygon fill="midnightblue" stroke="midnightblue" points="771.99,-71.31 782.49,-69.91 773.41,-64.46 771.99,-71.31"/>
</g>
<!-- Node7 -->
<g id="node7" class="node">
<title>Node7</title>
<g id="a_node7"><a xlink:href="lcd1602__fb_8c.html" target="_top" xlink:title=" ">
<polygon fill="none" stroke="black" points="779.11,-0.5 779.11,-30.5 919.11,-30.5 919.11,-0.5 779.11,-0.5"/>
<text text-anchor="start" x="787.11" y="-18.5" font-family="Helvetica,sans-Serif" font-size="10.00">components/drivers</text>
<text text-anchor="middle" x="849.11" y="-7.5" font-family="Helvetica,sans-Serif" font-size="10.00">/lcd1602/src/lcd1602_fb.c</text>
</a>
</g>
</g>
<!-- Node6&#45;&gt;Node7 -->
<g id="edge6" class="edge">
<title>Node6&#45;&gt;Node7</title>
<path fill="none" stroke="midnightblue" d="M849.11,-57.08C849.11,-48.01 849.11,-38.45 849.11,-30.89"/>
<polygon fill="midnightblue" stroke="midnightblue" points="845.61,-57.36 849.11,-67.36 852.61,-57.36 845.61,-57.36"/>
</g>
<!-- Node9&#45;&gt;Node4 -->
<g id="edge12" class="edge">
<title>Node9&#45;&gt;Node4</title>
<path fill="none" stroke="midnightblue" d="M51.25,-139.44C40.36,-131.27 30.23,-121.12 24.11,-109 15.69,-92.34 11.88,-81.11 24.11,-67 64.34,-20.58 254.73,-15.81 337.51,-15.99"/>
<polygon fill="midnightblue" stroke="midnightblue" points="49.47,-142.46 59.68,-145.31 53.47,-136.72 49.47,-142.46"/>
</g>
<!-- Node10 -->
<g id="node10" class="node">
<title>Node10</title>
<g id="a_node10"><a xlink:href="idf__time__port_8c.html" target="_top" xlink:title=" ">
<polygon fill="none" stroke="black" points="33.11,-67.5 33.11,-108.5 179.11,-108.5 179.11,-67.5 33.11,-67.5"/>
<text text-anchor="start" x="41.11" y="-96.5" font-family="Helvetica,sans-Serif" font-size="10.00">components/infrastructure</text>
<text text-anchor="start" x="41.11" y="-85.5" font-family="Helvetica,sans-Serif" font-size="10.00">/idf_time_port/src/idf</text>
<text text-anchor="middle" x="106.11" y="-74.5" font-family="Helvetica,sans-Serif" font-size="10.00">_time_port.c</text>
</a>
</g>
</g>
<!-- Node9&#45;&gt;Node10 -->
<g id="edge11" class="edge">
<title>Node9&#45;&gt;Node10</title>
<path fill="none" stroke="midnightblue" d="M102.45,-135.3C103.16,-126.3 103.93,-116.65 104.57,-108.51"/>
<polygon fill="midnightblue" stroke="midnightblue" points="98.95,-135.18 101.65,-145.43 105.93,-135.73 98.95,-135.18"/>
</g>
<!-- Node11&#45;&gt;Node4 -->
<g id="edge15" class="edge">
<title>Node11&#45;&gt;Node4</title>
<path fill="none" stroke="midnightblue" d="M413.72,-135.33C402.84,-100.97 385.57,-46.39 378.88,-25.26"/>
<polygon fill="midnightblue" stroke="midnightblue" points="410.51,-136.8 416.87,-145.28 417.19,-134.69 410.51,-136.8"/>
</g>
<!-- Node12 -->
<g id="node12" class="node">
<title>Node12</title>
<g id="a_node12"><a xlink:href="logger__core_8c.html" target="_top" xlink:title=" ">
<polygon fill="none" stroke="black" points="423.61,-73 423.61,-103 560.61,-103 560.61,-73 423.61,-73"/>
<text text-anchor="start" x="431.61" y="-91" font-family="Helvetica,sans-Serif" font-size="10.00">components/logger_core</text>
<text text-anchor="middle" x="492.11" y="-80" font-family="Helvetica,sans-Serif" font-size="10.00">/src/logger_core.c</text>
</a>
</g>
</g>
<!-- Node11&#45;&gt;Node12 -->
<g id="edge14" class="edge">
<title>Node11&#45;&gt;Node12</title>
<path fill="none" stroke="midnightblue" d="M447.63,-137.99C458.29,-126.25 470.33,-112.99 479.19,-103.23"/>
<polygon fill="midnightblue" stroke="midnightblue" points="445.01,-135.67 440.88,-145.43 450.19,-140.38 445.01,-135.67"/>
</g>
</g>
</svg>
