<?xml version="1.0" encoding="UTF-8" standalone="no"?>
<!DOCTYPE svg PUBLIC "-//W3C//DTD SVG 1.1//EN"
 "http://www.w3.org/Graphics/SVG/1.1/DTD/svg11.dtd">
<!-- Generated by graphviz version 2.43.0 (0)
 -->
<!-- Title: components/ports/include/ports/uart_port.h Pages: 1 -->
<svg width="190pt" height="151pt"
 viewBox="0.00 0.00 190.00 151.00" xmlns="http://www.w3.org/2000/svg" xmlns:xlink="http://www.w3.org/1999/xlink">
<g id="graph0" class="graph" transform="scale(1 1) rotate(0) translate(4 147)">
<title>components/ports/include/ports/uart_port.h</title>
<!-- Node1 -->
<g id="node1" class="node">
<title>Node1</title>
<g id="a_node1"><a xlink:title=" ">
<polygon fill="#bfbfbf" stroke="black" points="12.5,-112.5 12.5,-142.5 155.5,-142.5 155.5,-112.5 12.5,-112.5"/>
<text text-anchor="start" x="20.5" y="-130.5" font-family="Helvetica,sans-Serif" font-size="10.00">components/ports/include</text>
<text text-anchor="middle" x="84" y="-119.5" font-family="Helvetica,sans-Serif" font-size="10.00">/ports/uart_port.h</text>
</a>
</g>
</g>
<!-- Node2 -->
<g id="node2" class="node">
<title>Node2</title>
<g id="a_node2"><a xlink:title=" ">
<polygon fill="none" stroke="#bfbfbf" points="0,-56.5 0,-75.5 56,-75.5 56,-56.5 0,-56.5"/>
<text text-anchor="middle" x="28" y="-63.5" font-family="Helvetica,sans-Serif" font-size="10.00">stddef.h</text>
</a>
</g>
</g>
<!-- Node1&#45;&gt;Node2 -->
<g id="edge1" class="edge">
<title>Node1&#45;&gt;Node2</title>
<path fill="none" stroke="midnightblue" d="M70.73,-112.4C62.42,-103.58 51.7,-92.18 43.08,-83.02"/>
<polygon fill="midnightblue" stroke="midnightblue" points="45.55,-80.54 36.15,-75.66 40.45,-85.34 45.55,-80.54"/>
</g>
<!-- Node3 -->
<g id="node3" class="node">
<title>Node3</title>
<g id="a_node3"><a xlink:title=" ">
<polygon fill="none" stroke="#bfbfbf" points="88.5,-0.5 88.5,-19.5 141.5,-19.5 141.5,-0.5 88.5,-0.5"/>
<text text-anchor="middle" x="115" y="-7.5" font-family="Helvetica,sans-Serif" font-size="10.00">stdint.h</text>
</a>
</g>
</g>
<!-- Node1&#45;&gt;Node3 -->
<g id="edge2" class="edge">
<title>Node1&#45;&gt;Node3</title>
<path fill="none" stroke="midnightblue" d="M87.8,-112.34C93.39,-91.53 103.82,-52.66 110.01,-29.58"/>
<polygon fill="midnightblue" stroke="midnightblue" points="113.46,-30.23 112.67,-19.67 106.7,-28.42 113.46,-30.23"/>
</g>
<!-- Node4 -->
<g id="node4" class="node">
<title>Node4</title>
<g id="a_node4"><a xlink:href="status_8h.html" target="_top" xlink:title=" ">
<polygon fill="none" stroke="black" points="112,-56.5 112,-75.5 182,-75.5 182,-56.5 112,-56.5"/>
<text text-anchor="middle" x="147" y="-63.5" font-family="Helvetica,sans-Serif" font-size="10.00">ca/status.h</text>
</a>
</g>
</g>
<!-- Node1&#45;&gt;Node4 -->
<g id="edge3" class="edge">
<title>Node1&#45;&gt;Node4</title>
<path fill="none" stroke="midnightblue" d="M98.93,-112.4C108.37,-103.49 120.58,-91.95 130.33,-82.74"/>
<polygon fill="midnightblue" stroke="midnightblue" points="132.97,-85.07 137.83,-75.66 128.16,-79.98 132.97,-85.07"/>
</g>
<!-- Node4&#45;&gt;Node3 -->
<g id="edge4" class="edge">
<title>Node4&#45;&gt;Node3</title>
<path fill="none" stroke="midnightblue" d="M141.72,-56.08C137.29,-48.61 130.84,-37.72 125.38,-28.52"/>
<polygon fill="midnightblue" stroke="midnightblue" points="128.29,-26.57 120.19,-19.75 122.27,-30.14 128.29,-26.57"/>
</g>
</g>
</svg>
