<?xml version="1.0" encoding="UTF-8" standalone="no"?>
<!DOCTYPE svg PUBLIC "-//W3C//DTD SVG 1.1//EN"
 "http://www.w3.org/Graphics/SVG/1.1/DTD/svg11.dtd">
<!-- Generated by graphviz version 2.43.0 (0)
 -->
<!-- Title: components/ports/include/ports/uart_port.h Pages: 1 -->
<svg width="403pt" height="195pt"
 viewBox="0.00 0.00 402.50 195.00" xmlns="http://www.w3.org/2000/svg" xmlns:xlink="http://www.w3.org/1999/xlink">
<g id="graph0" class="graph" transform="scale(1 1) rotate(0) translate(4 191)">
<title>components/ports/include/ports/uart_port.h</title>
<!-- Node1 -->
<g id="node1" class="node">
<title>Node1</title>
<g id="a_node1"><a xlink:title=" ">
<polygon fill="#bfbfbf" stroke="black" points="131.5,-156.5 131.5,-186.5 274.5,-186.5 274.5,-156.5 131.5,-156.5"/>
<text text-anchor="start" x="139.5" y="-174.5" font-family="Helvetica,sans-Serif" font-size="10.00">components/ports/include</text>
<text text-anchor="middle" x="203" y="-163.5" font-family="Helvetica,sans-Serif" font-size="10.00">/ports/uart_port.h</text>
</a>
</g>
</g>
<!-- Node2 -->
<g id="node2" class="node">
<title>Node2</title>
<g id="a_node2"><a xlink:href="idf__uart__port_8h.html" target="_top" xlink:title=" ">
<polygon fill="none" stroke="black" points="15,-78.5 15,-119.5 175,-119.5 175,-78.5 15,-78.5"/>
<text text-anchor="start" x="23" y="-107.5" font-family="Helvetica,sans-Serif" font-size="10.00">components/infrastructure</text>
<text text-anchor="start" x="23" y="-96.5" font-family="Helvetica,sans-Serif" font-size="10.00">/idf_uart_port/include</text>
<text text-anchor="middle" x="95" y="-85.5" font-family="Helvetica,sans-Serif" font-size="10.00">/infrastructure/idf_uart_port.h</text>
</a>
</g>
</g>
<!-- Node1&#45;&gt;Node2 -->
<g id="edge1" class="edge">
<title>Node1&#45;&gt;Node2</title>
<path fill="none" stroke="midnightblue" d="M173.02,-150.93C158.09,-141.19 140.1,-129.44 125.15,-119.68"/>
<polygon fill="midnightblue" stroke="midnightblue" points="171.12,-153.87 181.4,-156.4 174.94,-148.01 171.12,-153.87"/>
</g>
<!-- Node4 -->
<g id="node4" class="node">
<title>Node4</title>
<g id="a_node4"><a xlink:href="main_8c.html" target="_top" xlink:title=" ">
<polygon fill="none" stroke="black" points="164.5,-11.5 164.5,-30.5 241.5,-30.5 241.5,-11.5 164.5,-11.5"/>
<text text-anchor="middle" x="203" y="-18.5" font-family="Helvetica,sans-Serif" font-size="10.00">main/main.c</text>
</a>
</g>
</g>
<!-- Node1&#45;&gt;Node4 -->
<g id="edge7" class="edge">
<title>Node1&#45;&gt;Node4</title>
<path fill="none" stroke="midnightblue" d="M203,-145.87C203,-112.11 203,-53.11 203,-30.85"/>
<polygon fill="midnightblue" stroke="midnightblue" points="199.5,-146.26 203,-156.26 206.5,-146.26 199.5,-146.26"/>
</g>
<!-- Node5 -->
<g id="node5" class="node">
<title>Node5</title>
<g id="a_node5"><a xlink:href="logger__uart__sink_8h.html" target="_top" xlink:title=" ">
<polygon fill="none" stroke="black" points="231,-78.5 231,-119.5 379,-119.5 379,-78.5 231,-78.5"/>
<text text-anchor="start" x="239" y="-107.5" font-family="Helvetica,sans-Serif" font-size="10.00">components/logger_uart</text>
<text text-anchor="start" x="239" y="-96.5" font-family="Helvetica,sans-Serif" font-size="10.00">_sink/include/logger/logger</text>
<text text-anchor="middle" x="305" y="-85.5" font-family="Helvetica,sans-Serif" font-size="10.00">_uart_sink.h</text>
</a>
</g>
</g>
<!-- Node1&#45;&gt;Node5 -->
<g id="edge4" class="edge">
<title>Node1&#45;&gt;Node5</title>
<path fill="none" stroke="midnightblue" d="M231.96,-150.48C245.97,-140.8 262.73,-129.22 276.66,-119.59"/>
<polygon fill="midnightblue" stroke="midnightblue" points="229.88,-147.67 223.64,-156.23 233.86,-153.43 229.88,-147.67"/>
</g>
<!-- Node3 -->
<g id="node3" class="node">
<title>Node3</title>
<g id="a_node3"><a xlink:href="idf__uart__port_8c.html" target="_top" xlink:title=" ">
<polygon fill="none" stroke="black" points="0,-0.5 0,-41.5 146,-41.5 146,-0.5 0,-0.5"/>
<text text-anchor="start" x="8" y="-29.5" font-family="Helvetica,sans-Serif" font-size="10.00">components/infrastructure</text>
<text text-anchor="start" x="8" y="-18.5" font-family="Helvetica,sans-Serif" font-size="10.00">/idf_uart_port/src/idf</text>
<text text-anchor="middle" x="73" y="-7.5" font-family="Helvetica,sans-Serif" font-size="10.00">_uart_port.c</text>
</a>
</g>
</g>
<!-- Node2&#45;&gt;Node3 -->
<g id="edge2" class="edge">
<title>Node2&#45;&gt;Node3</title>
<path fill="none" stroke="midnightblue" d="M86.49,-68.59C83.86,-59.51 81.03,-49.74 78.65,-41.51"/>
<polygon fill="midnightblue" stroke="midnightblue" points="83.19,-69.8 89.33,-78.43 89.92,-67.85 83.19,-69.8"/>
</g>
<!-- Node2&#45;&gt;Node4 -->
<g id="edge3" class="edge">
<title>Node2&#45;&gt;Node4</title>
<path fill="none" stroke="midnightblue" d="M131.1,-72.59C151.8,-58.03 176.45,-40.69 190.85,-30.55"/>
<polygon fill="midnightblue" stroke="midnightblue" points="128.98,-69.81 122.81,-78.43 133.01,-75.54 128.98,-69.81"/>
</g>
<!-- Node5&#45;&gt;Node4 -->
<g id="edge6" class="edge">
<title>Node5&#45;&gt;Node4</title>
<path fill="none" stroke="midnightblue" d="M270.64,-72.4C251.15,-57.88 228.02,-40.64 214.48,-30.55"/>
<polygon fill="midnightblue" stroke="midnightblue" points="268.62,-75.26 278.73,-78.43 272.8,-69.65 268.62,-75.26"/>
</g>
<!-- Node6 -->
<g id="node6" class="node">
<title>Node6</title>
<g id="a_node6"><a xlink:href="logger__uart__sink_8c.html" target="_top" xlink:title=" ">
<polygon fill="none" stroke="black" points="259.5,-0.5 259.5,-41.5 394.5,-41.5 394.5,-0.5 259.5,-0.5"/>
<text text-anchor="start" x="267.5" y="-29.5" font-family="Helvetica,sans-Serif" font-size="10.00">components/logger_uart</text>
<text text-anchor="start" x="267.5" y="-18.5" font-family="Helvetica,sans-Serif" font-size="10.00">_sink/src/logger_uart</text>
<text text-anchor="middle" x="327" y="-7.5" font-family="Helvetica,sans-Serif" font-size="10.00">_sink.c</text>
</a>
</g>
</g>
<!-- Node5&#45;&gt;Node6 -->
<g id="edge5" class="edge">
<title>Node5&#45;&gt;Node6</title>
<path fill="none" stroke="midnightblue" d="M313.51,-68.59C316.14,-59.51 318.97,-49.74 321.35,-41.51"/>
<polygon fill="midnightblue" stroke="midnightblue" points="310.08,-67.85 310.67,-78.43 316.81,-69.8 310.08,-67.85"/>
</g>
</g>
</svg>
